<ttFont>
    <TTGlyph name="A" xMin="20" yMin="-25" xMax="974" yMax="577">
      <contour>
        <pt x="973" y="568" on="1"/>
        <pt x="973" y="563" on="0"/>
        <pt x="945" y="563" on="0"/>
        <pt x="940" y="562" on="1"/>
        <pt x="924" y="559" on="0"/>
        <pt x="905" y="538" on="1"/>
        <pt x="872" y="505" on="0"/>
        <pt x="730" y="256" on="0"/>
        <pt x="686" y="158" on="1"/>
        <pt x="686" y="157" on="0"/>
        <pt x="685" y="155" on="1"/>
        <pt x="649" y="72" on="0"/>
        <pt x="649" y="11" on="0"/>
        <pt x="669" y="11" on="1"/>
        <pt x="696" y="11" on="0"/>
        <pt x="775" y="85" on="0"/>
        <pt x="807" y="130" on="1"/>
        <pt x="812" y="138" on="0"/>
        <pt x="821" y="130" on="0"/>
        <pt x="815" y="122" on="1"/>
        <pt x="801" y="103" on="0"/>
        <pt x="793" y="93" on="0"/>
        <pt x="775" y="70" on="0"/>
        <pt x="761" y="55" on="0"/>
        <pt x="740" y="34" on="0"/>
        <pt x="731" y="26" on="1"/>
        <pt x="688" y="-9" on="0"/>
        <pt x="656" y="-9" on="1"/>
        <pt x="598" y="-9" on="0"/>
        <pt x="598" y="52" on="1"/>
        <pt x="598" y="98" on="0"/>
        <pt x="673" y="257" on="0"/>
        <pt x="800" y="489" on="0"/>
        <pt x="831" y="530" on="1"/>
        <pt x="806" y="529" on="0"/>
        <pt x="711" y="475" on="0"/>
        <pt x="651" y="413" on="0"/>
        <pt x="539" y="289" on="0"/>
        <pt x="515" y="263" on="1"/>
        <pt x="575" y="261" on="0"/>
        <pt x="648" y="261" on="0"/>
        <pt x="679" y="276" on="1"/>
        <pt x="673" y="260" on="0"/>
        <pt x="640" y="233" on="0"/>
        <pt x="585" y="230" on="0"/>
        <pt x="515" y="230" on="0"/>
        <pt x="484" y="231" on="1"/>
        <pt x="236" y="-25" on="0"/>
        <pt x="87" y="-25" on="1"/>
        <pt x="55" y="-25" on="0"/>
        <pt x="20" y="9" on="0"/>
        <pt x="20" y="35" on="1"/>
        <pt x="20" y="41" on="0"/>
        <pt x="22" y="65" on="0"/>
        <pt x="47" y="117" on="0"/>
        <pt x="50" y="117" on="1"/>
        <pt x="58" y="118" on="0"/>
        <pt x="53" y="109" on="1"/>
        <pt x="40" y="80" on="0"/>
        <pt x="40" y="48" on="0"/>
        <pt x="45" y="40" on="1"/>
        <pt x="58" y="17" on="0"/>
        <pt x="96" y="17" on="1"/>
        <pt x="215" y="17" on="0"/>
        <pt x="447" y="233" on="1"/>
        <pt x="333" y="239" on="0"/>
        <pt x="314" y="239" on="1"/>
        <pt x="238" y="239" on="0"/>
        <pt x="213" y="214" on="1"/>
        <pt x="195" y="196" on="0"/>
        <pt x="195" y="166" on="1"/>
        <pt x="195" y="158" on="0"/>
        <pt x="197" y="151" on="1"/>
        <pt x="182" y="154" on="0"/>
        <pt x="171" y="160" on="0"/>
        <pt x="169" y="167" on="1"/>
        <pt x="170" y="175" on="0"/>
        <pt x="166" y="184" on="0"/>
        <pt x="175" y="196" on="0"/>
        <pt x="178" y="203" on="0"/>
        <pt x="191" y="212" on="0"/>
        <pt x="198" y="217" on="0"/>
        <pt x="213" y="225" on="0"/>
        <pt x="221" y="228" on="0"/>
        <pt x="229" y="232" on="1"/>
        <pt x="312" y="268" on="0"/>
        <pt x="379" y="268" on="1"/>
        <pt x="420" y="268" on="0"/>
        <pt x="481" y="265" on="1"/>
        <pt x="547" y="329" on="0"/>
        <pt x="709" y="500" on="0"/>
        <pt x="788" y="521" on="1"/>
        <pt x="733" y="521" on="1"/>
        <pt x="509" y="521" on="0"/>
        <pt x="490" y="426" on="1"/>
        <pt x="489" y="419" on="0"/>
        <pt x="489" y="396" on="0"/>
        <pt x="501" y="389" on="1"/>
        <pt x="506" y="386" on="0"/>
        <pt x="488" y="378" on="0"/>
        <pt x="485" y="380" on="1"/>
        <pt x="475" y="387" on="0"/>
        <pt x="462" y="425" on="0"/>
        <pt x="462" y="432" on="1"/>
        <pt x="462" y="463" on="0"/>
        <pt x="497" y="505" on="0"/>
        <pt x="555" y="526" on="0"/>
        <pt x="603" y="539" on="0"/>
        <pt x="642" y="542" on="1"/>
        <pt x="697" y="545" on="0"/>
        <pt x="747" y="545" on="1"/>
        <pt x="856" y="545" on="1"/>
        <pt x="858" y="545" on="0"/>
        <pt x="857" y="544" on="1"/>
        <pt x="930" y="577" on="0"/>
        <pt x="949" y="577" on="1"/>
        <pt x="973" y="577" on="0"/>
      </contour>
    </TTGlyph>
    <TTGlyph name="A.roman" xMin="19" yMin="-2" xMax="582" yMax="543">
      <contour>
        <pt x="430" y="43" on="1"/>
        <pt x="430" y="56" on="0"/>
        <pt x="418" y="173" on="1"/>
        <pt x="418" y="175" on="1"/>
        <pt x="418" y="179" on="0"/>
        <pt x="413" y="179" on="1"/>
        <pt x="229" y="179" on="1"/>
        <pt x="224" y="179" on="0"/>
        <pt x="220" y="173" on="1"/>
        <pt x="141" y="49" on="0"/>
        <pt x="141" y="34" on="1"/>
        <pt x="141" y="14" on="0"/>
        <pt x="203" y="14" on="1"/>
        <pt x="191" y="-2" on="1"/>
        <pt x="151" y="2" on="0"/>
        <pt x="50" y="2" on="0"/>
        <pt x="19" y="-2" on="1"/>
        <pt x="29" y="14" on="1"/>
        <pt x="76" y="21" on="0"/>
        <pt x="109" y="41" on="0"/>
        <pt x="130" y="75" on="1"/>
        <pt x="345" y="430" on="1"/>
        <pt x="369" y="471" on="0"/>
        <pt x="369" y="488" on="1"/>
        <pt x="369" y="491" on="1"/>
        <pt x="369" y="505" on="0"/>
        <pt x="432" y="543" on="1"/>
        <pt x="442" y="438" on="0"/>
        <pt x="467" y="267" on="1"/>
        <pt x="497" y="55" on="0"/>
        <pt x="512" y="36" on="1"/>
        <pt x="521" y="25" on="0"/>
        <pt x="541" y="20" on="0"/>
        <pt x="551" y="18" on="0"/>
        <pt x="576" y="15" on="0"/>
        <pt x="582" y="14" on="1"/>
        <pt x="571" y="-2" on="1"/>
        <pt x="491" y="2" on="0"/>
        <pt x="469" y="2" on="1"/>
        <pt x="357" y="-2" on="1"/>
        <pt x="366" y="14" on="1"/>
        <pt x="430" y="14" on="0"/>
      </contour>
      <contour>
        <pt x="381" y="429" on="1"/>
        <pt x="380" y="433" on="0"/>
        <pt x="376" y="433" on="0"/>
        <pt x="375" y="430" on="1"/>
        <pt x="243" y="212" on="1"/>
        <pt x="242" y="210" on="0"/>
        <pt x="242" y="206" on="0"/>
        <pt x="245" y="206" on="1"/>
        <pt x="407" y="206" on="1"/>
        <pt x="413" y="206" on="0"/>
        <pt x="413" y="210" on="1"/>
        <pt x="413" y="212" on="1"/>
      </contour>
    </TTGlyph>
    <TTGlyph name="A.roman_acute" xMin="19" yMin="-2" xMax="582" yMax="705">
      <contour>
        <pt x="430" y="43" on="1"/>
        <pt x="430" y="56" on="0"/>
        <pt x="418" y="173" on="1"/>
        <pt x="418" y="175" on="1"/>
        <pt x="418" y="179" on="0"/>
        <pt x="413" y="179" on="1"/>
        <pt x="229" y="179" on="1"/>
        <pt x="224" y="179" on="0"/>
        <pt x="220" y="173" on="1"/>
        <pt x="141" y="49" on="0"/>
        <pt x="141" y="34" on="1"/>
        <pt x="141" y="14" on="0"/>
        <pt x="203" y="14" on="1"/>
        <pt x="191" y="-2" on="1"/>
        <pt x="151" y="2" on="0"/>
        <pt x="50" y="2" on="0"/>
        <pt x="19" y="-2" on="1"/>
        <pt x="29" y="14" on="1"/>
        <pt x="76" y="21" on="0"/>
        <pt x="109" y="41" on="0"/>
        <pt x="130" y="75" on="1"/>
        <pt x="345" y="430" on="1"/>
        <pt x="369" y="471" on="0"/>
        <pt x="369" y="488" on="1"/>
        <pt x="369" y="491" on="1"/>
        <pt x="369" y="505" on="0"/>
        <pt x="432" y="543" on="1"/>
        <pt x="442" y="438" on="0"/>
        <pt x="467" y="267" on="1"/>
        <pt x="497" y="55" on="0"/>
        <pt x="512" y="36" on="1"/>
        <pt x="521" y="25" on="0"/>
        <pt x="541" y="20" on="0"/>
        <pt x="551" y="18" on="0"/>
        <pt x="576" y="15" on="0"/>
        <pt x="582" y="14" on="1"/>
        <pt x="571" y="-2" on="1"/>
        <pt x="491" y="2" on="0"/>
        <pt x="469" y="2" on="1"/>
        <pt x="357" y="-2" on="1"/>
        <pt x="366" y="14" on="1"/>
        <pt x="430" y="14" on="0"/>
      </contour>
      <contour>
        <pt x="381" y="429" on="1"/>
        <pt x="380" y="433" on="0"/>
        <pt x="376" y="433" on="0"/>
        <pt x="375" y="430" on="1"/>
        <pt x="243" y="212" on="1"/>
        <pt x="242" y="210" on="0"/>
        <pt x="242" y="206" on="0"/>
        <pt x="245" y="206" on="1"/>
        <pt x="407" y="206" on="1"/>
        <pt x="413" y="206" on="0"/>
        <pt x="413" y="210" on="1"/>
        <pt x="413" y="212" on="1"/>
      </contour>
      <contour>
        <pt x="553" y="705" on="1"/>
        <pt x="556" y="705" on="0"/>
        <pt x="556" y="678" on="0"/>
        <pt x="552" y="674" on="1"/>
        <pt x="547" y="665" on="0"/>
        <pt x="433" y="598" on="0"/>
        <pt x="421" y="596" on="1"/>
        <pt x="420" y="596" on="0"/>
        <pt x="422" y="603" on="1"/>
        <pt x="458" y="630" on="0"/>
        <pt x="544" y="705" on="0"/>
      </contour>
    </TTGlyph>
    <TTGlyph name="A.roman_breve" xMin="19" yMin="-2" xMax="582" yMax="634">
      <contour>
        <pt x="430" y="43" on="1"/>
        <pt x="430" y="56" on="0"/>
        <pt x="418" y="173" on="1"/>
        <pt x="418" y="175" on="1"/>
        <pt x="418" y="179" on="0"/>
        <pt x="413" y="179" on="1"/>
        <pt x="229" y="179" on="1"/>
        <pt x="224" y="179" on="0"/>
        <pt x="220" y="173" on="1"/>
        <pt x="141" y="49" on="0"/>
        <pt x="141" y="34" on="1"/>
        <pt x="141" y="14" on="0"/>
        <pt x="203" y="14" on="1"/>
        <pt x="191" y="-2" on="1"/>
        <pt x="151" y="2" on="0"/>
        <pt x="50" y="2" on="0"/>
        <pt x="19" y="-2" on="1"/>
        <pt x="29" y="14" on="1"/>
        <pt x="76" y="21" on="0"/>
        <pt x="109" y="41" on="0"/>
        <pt x="130" y="75" on="1"/>
        <pt x="345" y="430" on="1"/>
        <pt x="369" y="471" on="0"/>
        <pt x="369" y="488" on="1"/>
        <pt x="369" y="491" on="1"/>
        <pt x="369" y="505" on="0"/>
        <pt x="432" y="543" on="1"/>
        <pt x="442" y="438" on="0"/>
        <pt x="467" y="267" on="1"/>
        <pt x="497" y="55" on="0"/>
        <pt x="512" y="36" on="1"/>
        <pt x="521" y="25" on="0"/>
        <pt x="541" y="20" on="0"/>
        <pt x="551" y="18" on="0"/>
        <pt x="576" y="15" on="0"/>
        <pt x="582" y="14" on="1"/>
        <pt x="571" y="-2" on="1"/>
        <pt x="491" y="2" on="0"/>
        <pt x="469" y="2" on="1"/>
        <pt x="357" y="-2" on="1"/>
        <pt x="366" y="14" on="1"/>
        <pt x="430" y="14" on="0"/>
      </contour>
      <contour>
        <pt x="381" y="429" on="1"/>
        <pt x="380" y="433" on="0"/>
        <pt x="376" y="433" on="0"/>
        <pt x="375" y="430" on="1"/>
        <pt x="243" y="212" on="1"/>
        <pt x="242" y="210" on="0"/>
        <pt x="242" y="206" on="0"/>
        <pt x="245" y="206" on="1"/>
        <pt x="407" y="206" on="1"/>
        <pt x="413" y="206" on="0"/>
        <pt x="413" y="210" on="1"/>
        <pt x="413" y="212" on="1"/>
      </contour>
      <contour>
        <pt x="412" y="582" on="1"/>
        <pt x="354" y="582" on="0"/>
        <pt x="354" y="614" on="1"/>
        <pt x="354" y="619" on="0"/>
        <pt x="362" y="634" on="0"/>
        <pt x="366" y="634" on="1"/>
        <pt x="381" y="634" on="1"/>
        <pt x="370" y="616" on="0"/>
        <pt x="397" y="597" on="0"/>
        <pt x="450" y="597" on="0"/>
        <pt x="505" y="630" on="1"/>
        <pt x="521" y="630" on="1"/>
        <pt x="506" y="612" on="0"/>
        <pt x="442" y="582" on="0"/>
      </contour>
    </TTGlyph>
    <TTGlyph name="A.roman_circumflex" xMin="19" yMin="-2" xMax="582" yMax="668">
      <contour>
        <pt x="430" y="43" on="1"/>
        <pt x="430" y="56" on="0"/>
        <pt x="418" y="173" on="1"/>
        <pt x="418" y="175" on="1"/>
        <pt x="418" y="179" on="0"/>
        <pt x="413" y="179" on="1"/>
        <pt x="229" y="179" on="1"/>
        <pt x="224" y="179" on="0"/>
        <pt x="220" y="173" on="1"/>
        <pt x="141" y="49" on="0"/>
        <pt x="141" y="34" on="1"/>
        <pt x="141" y="14" on="0"/>
        <pt x="203" y="14" on="1"/>
        <pt x="191" y="-2" on="1"/>
        <pt x="151" y="2" on="0"/>
        <pt x="50" y="2" on="0"/>
        <pt x="19" y="-2" on="1"/>
        <pt x="29" y="14" on="1"/>
        <pt x="76" y="21" on="0"/>
        <pt x="109" y="41" on="0"/>
        <pt x="130" y="75" on="1"/>
        <pt x="345" y="430" on="1"/>
        <pt x="369" y="471" on="0"/>
        <pt x="369" y="488" on="1"/>
        <pt x="369" y="491" on="1"/>
        <pt x="369" y="505" on="0"/>
        <pt x="432" y="543" on="1"/>
        <pt x="442" y="438" on="0"/>
        <pt x="467" y="267" on="1"/>
        <pt x="497" y="55" on="0"/>
        <pt x="512" y="36" on="1"/>
        <pt x="521" y="25" on="0"/>
        <pt x="541" y="20" on="0"/>
        <pt x="551" y="18" on="0"/>
        <pt x="576" y="15" on="0"/>
        <pt x="582" y="14" on="1"/>
        <pt x="571" y="-2" on="1"/>
        <pt x="491" y="2" on="0"/>
        <pt x="469" y="2" on="1"/>
        <pt x="357" y="-2" on="1"/>
        <pt x="366" y="14" on="1"/>
        <pt x="430" y="14" on="0"/>
      </contour>
      <contour>
        <pt x="381" y="429" on="1"/>
        <pt x="380" y="433" on="0"/>
        <pt x="376" y="433" on="0"/>
        <pt x="375" y="430" on="1"/>
        <pt x="243" y="212" on="1"/>
        <pt x="242" y="210" on="0"/>
        <pt x="242" y="206" on="0"/>
        <pt x="245" y="206" on="1"/>
        <pt x="407" y="206" on="1"/>
        <pt x="413" y="206" on="0"/>
        <pt x="413" y="210" on="1"/>
        <pt x="413" y="212" on="1"/>
      </contour>
      <contour>
        <pt x="506" y="577" on="1"/>
        <pt x="483" y="577" on="0"/>
        <pt x="429" y="642" on="1"/>
        <pt x="429" y="645" on="0"/>
        <pt x="423" y="642" on="1"/>
        <pt x="412" y="632" on="0"/>
        <pt x="348" y="589" on="0"/>
        <pt x="329" y="582" on="0"/>
        <pt x="320" y="584" on="1"/>
        <pt x="393" y="633" on="0"/>
        <pt x="433" y="668" on="1"/>
        <pt x="445" y="668" on="1"/>
        <pt x="469" y="628" on="0"/>
        <pt x="513" y="598" on="1"/>
        <pt x="526" y="590" on="0"/>
        <pt x="531" y="590" on="1"/>
        <pt x="531" y="587" on="1"/>
      </contour>
    </TTGlyph>
    <TTGlyph name="A.roman_dieresis" xMin="19" yMin="-2" xMax="582" yMax="644">
      <contour>
        <pt x="430" y="43" on="1"/>
        <pt x="430" y="56" on="0"/>
        <pt x="418" y="173" on="1"/>
        <pt x="418" y="175" on="1"/>
        <pt x="418" y="179" on="0"/>
        <pt x="413" y="179" on="1"/>
        <pt x="229" y="179" on="1"/>
        <pt x="224" y="179" on="0"/>
        <pt x="220" y="173" on="1"/>
        <pt x="141" y="49" on="0"/>
        <pt x="141" y="34" on="1"/>
        <pt x="141" y="14" on="0"/>
        <pt x="203" y="14" on="1"/>
        <pt x="191" y="-2" on="1"/>
        <pt x="151" y="2" on="0"/>
        <pt x="50" y="2" on="0"/>
        <pt x="19" y="-2" on="1"/>
        <pt x="29" y="14" on="1"/>
        <pt x="76" y="21" on="0"/>
        <pt x="109" y="41" on="0"/>
        <pt x="130" y="75" on="1"/>
        <pt x="345" y="430" on="1"/>
        <pt x="369" y="471" on="0"/>
        <pt x="369" y="488" on="1"/>
        <pt x="369" y="491" on="1"/>
        <pt x="369" y="505" on="0"/>
        <pt x="432" y="543" on="1"/>
        <pt x="442" y="438" on="0"/>
        <pt x="467" y="267" on="1"/>
        <pt x="497" y="55" on="0"/>
        <pt x="512" y="36" on="1"/>
        <pt x="521" y="25" on="0"/>
        <pt x="541" y="20" on="0"/>
        <pt x="551" y="18" on="0"/>
        <pt x="576" y="15" on="0"/>
        <pt x="582" y="14" on="1"/>
        <pt x="571" y="-2" on="1"/>
        <pt x="491" y="2" on="0"/>
        <pt x="469" y="2" on="1"/>
        <pt x="357" y="-2" on="1"/>
        <pt x="366" y="14" on="1"/>
        <pt x="430" y="14" on="0"/>
      </contour>
      <contour>
        <pt x="381" y="429" on="1"/>
        <pt x="380" y="433" on="0"/>
        <pt x="376" y="433" on="0"/>
        <pt x="375" y="430" on="1"/>
        <pt x="243" y="212" on="1"/>
        <pt x="242" y="210" on="0"/>
        <pt x="242" y="206" on="0"/>
        <pt x="245" y="206" on="1"/>
        <pt x="407" y="206" on="1"/>
        <pt x="413" y="206" on="0"/>
        <pt x="413" y="210" on="1"/>
        <pt x="413" y="212" on="1"/>
      </contour>
      <contour>
        <pt x="363" y="596" on="1"/>
        <pt x="343" y="596" on="0"/>
        <pt x="326" y="618" on="1"/>
        <pt x="326" y="620" on="0"/>
        <pt x="336" y="627" on="0"/>
        <pt x="344" y="633" on="0"/>
        <pt x="352" y="638" on="0"/>
        <pt x="356" y="640" on="1"/>
        <pt x="362" y="644" on="0"/>
        <pt x="365" y="644" on="1"/>
        <pt x="385" y="632" on="0"/>
        <pt x="397" y="632" on="0"/>
        <pt x="406" y="634" on="0"/>
        <pt x="406" y="629" on="1"/>
        <pt x="405" y="625" on="0"/>
        <pt x="400" y="619" on="1"/>
        <pt x="372" y="596" on="0"/>
      </contour>
      <contour>
        <pt x="479" y="596" on="1"/>
        <pt x="442" y="596" on="0"/>
        <pt x="442" y="619" on="1"/>
        <pt x="442" y="622" on="0"/>
        <pt x="468" y="638" on="1"/>
        <pt x="481" y="644" on="1"/>
        <pt x="501" y="632" on="0"/>
        <pt x="513" y="632" on="0"/>
        <pt x="522" y="634" on="0"/>
        <pt x="522" y="629" on="1"/>
        <pt x="521" y="625" on="0"/>
        <pt x="516" y="619" on="1"/>
        <pt x="488" y="596" on="0"/>
      </contour>
    </TTGlyph>
    <TTGlyph name="A.roman_grave" xMin="19" yMin="-2" xMax="582" yMax="688">
      <contour>
        <pt x="430" y="43" on="1"/>
        <pt x="430" y="56" on="0"/>
        <pt x="418" y="173" on="1"/>
        <pt x="418" y="175" on="1"/>
        <pt x="418" y="179" on="0"/>
        <pt x="413" y="179" on="1"/>
        <pt x="229" y="179" on="1"/>
        <pt x="224" y="179" on="0"/>
        <pt x="220" y="173" on="1"/>
        <pt x="141" y="49" on="0"/>
        <pt x="141" y="34" on="1"/>
        <pt x="141" y="14" on="0"/>
        <pt x="203" y="14" on="1"/>
        <pt x="191" y="-2" on="1"/>
        <pt x="151" y="2" on="0"/>
        <pt x="50" y="2" on="0"/>
        <pt x="19" y="-2" on="1"/>
        <pt x="29" y="14" on="1"/>
        <pt x="76" y="21" on="0"/>
        <pt x="109" y="41" on="0"/>
        <pt x="130" y="75" on="1"/>
        <pt x="345" y="430" on="1"/>
        <pt x="369" y="471" on="0"/>
        <pt x="369" y="488" on="1"/>
        <pt x="369" y="491" on="1"/>
        <pt x="369" y="505" on="0"/>
        <pt x="432" y="543" on="1"/>
        <pt x="442" y="438" on="0"/>
        <pt x="467" y="267" on="1"/>
        <pt x="497" y="55" on="0"/>
        <pt x="512" y="36" on="1"/>
        <pt x="521" y="25" on="0"/>
        <pt x="541" y="20" on="0"/>
        <pt x="551" y="18" on="0"/>
        <pt x="576" y="15" on="0"/>
        <pt x="582" y="14" on="1"/>
        <pt x="571" y="-2" on="1"/>
        <pt x="491" y="2" on="0"/>
        <pt x="469" y="2" on="1"/>
        <pt x="357" y="-2" on="1"/>
        <pt x="366" y="14" on="1"/>
        <pt x="430" y="14" on="0"/>
      </contour>
      <contour>
        <pt x="381" y="429" on="1"/>
        <pt x="380" y="433" on="0"/>
        <pt x="376" y="433" on="0"/>
        <pt x="375" y="430" on="1"/>
        <pt x="243" y="212" on="1"/>
        <pt x="242" y="210" on="0"/>
        <pt x="242" y="206" on="0"/>
        <pt x="245" y="206" on="1"/>
        <pt x="407" y="206" on="1"/>
        <pt x="413" y="206" on="0"/>
        <pt x="413" y="210" on="1"/>
        <pt x="413" y="212" on="1"/>
      </contour>
      <contour>
        <pt x="347" y="657" on="1"/>
        <pt x="343" y="661" on="0"/>
        <pt x="343" y="688" on="0"/>
        <pt x="346" y="688" on="1"/>
        <pt x="355" y="688" on="0"/>
        <pt x="441" y="613" on="0"/>
        <pt x="477" y="586" on="1"/>
        <pt x="477" y="586" on="0"/>
        <pt x="478" y="579" on="1"/>
        <pt x="466" y="581" on="0"/>
        <pt x="352" y="648" on="0"/>
      </contour>
    </TTGlyph>
    <TTGlyph name="A.roman_macron" xMin="19" yMin="-2" xMax="582" yMax="616">
      <contour>
        <pt x="430" y="43" on="1"/>
        <pt x="430" y="56" on="0"/>
        <pt x="418" y="173" on="1"/>
        <pt x="418" y="175" on="1"/>
        <pt x="418" y="179" on="0"/>
        <pt x="413" y="179" on="1"/>
        <pt x="229" y="179" on="1"/>
        <pt x="224" y="179" on="0"/>
        <pt x="220" y="173" on="1"/>
        <pt x="141" y="49" on="0"/>
        <pt x="141" y="34" on="1"/>
        <pt x="141" y="14" on="0"/>
        <pt x="203" y="14" on="1"/>
        <pt x="191" y="-2" on="1"/>
        <pt x="151" y="2" on="0"/>
        <pt x="50" y="2" on="0"/>
        <pt x="19" y="-2" on="1"/>
        <pt x="29" y="14" on="1"/>
        <pt x="76" y="21" on="0"/>
        <pt x="109" y="41" on="0"/>
        <pt x="130" y="75" on="1"/>
        <pt x="345" y="430" on="1"/>
        <pt x="369" y="471" on="0"/>
        <pt x="369" y="488" on="1"/>
        <pt x="369" y="491" on="1"/>
        <pt x="369" y="505" on="0"/>
        <pt x="432" y="543" on="1"/>
        <pt x="442" y="438" on="0"/>
        <pt x="467" y="267" on="1"/>
        <pt x="497" y="55" on="0"/>
        <pt x="512" y="36" on="1"/>
        <pt x="521" y="25" on="0"/>
        <pt x="541" y="20" on="0"/>
        <pt x="551" y="18" on="0"/>
        <pt x="576" y="15" on="0"/>
        <pt x="582" y="14" on="1"/>
        <pt x="571" y="-2" on="1"/>
        <pt x="491" y="2" on="0"/>
        <pt x="469" y="2" on="1"/>
        <pt x="357" y="-2" on="1"/>
        <pt x="366" y="14" on="1"/>
        <pt x="430" y="14" on="0"/>
      </contour>
      <contour>
        <pt x="381" y="429" on="1"/>
        <pt x="380" y="433" on="0"/>
        <pt x="376" y="433" on="0"/>
        <pt x="375" y="430" on="1"/>
        <pt x="243" y="212" on="1"/>
        <pt x="242" y="210" on="0"/>
        <pt x="242" y="206" on="0"/>
        <pt x="245" y="206" on="1"/>
        <pt x="407" y="206" on="1"/>
        <pt x="413" y="206" on="0"/>
        <pt x="413" y="210" on="1"/>
        <pt x="413" y="212" on="1"/>
      </contour>
      <contour>
        <pt x="520" y="600" on="1"/>
        <pt x="366" y="591" on="1"/>
        <pt x="362" y="591" on="0"/>
        <pt x="356" y="598" on="1"/>
        <pt x="350" y="606" on="0"/>
        <pt x="353" y="611" on="1"/>
        <pt x="372" y="616" on="0"/>
        <pt x="438" y="616" on="1"/>
        <pt x="508" y="616" on="0"/>
        <pt x="526" y="606" on="1"/>
        <pt x="527" y="606" on="0"/>
        <pt x="525" y="600" on="0"/>
      </contour>
    </TTGlyph>
    <TTGlyph name="A.roman_ogonek" xMin="19" yMin="-172" xMax="582" yMax="543">
      <contour>
        <pt x="422" y="-171" on="1"/>
        <pt x="398" y="-171" on="0"/>
        <pt x="398" y="-109" on="0"/>
        <pt x="449" y="-16" on="0"/>
        <pt x="472" y="2" on="1"/>
        <pt x="469" y="2" on="1"/>
        <pt x="357" y="-2" on="1"/>
        <pt x="366" y="14" on="1"/>
        <pt x="430" y="14" on="0"/>
        <pt x="430" y="43" on="1"/>
        <pt x="430" y="56" on="0"/>
        <pt x="418" y="173" on="1"/>
        <pt x="418" y="175" on="1"/>
        <pt x="418" y="179" on="0"/>
        <pt x="413" y="179" on="1"/>
        <pt x="229" y="179" on="1"/>
        <pt x="224" y="179" on="0"/>
        <pt x="220" y="173" on="1"/>
        <pt x="141" y="49" on="0"/>
        <pt x="141" y="34" on="1"/>
        <pt x="141" y="14" on="0"/>
        <pt x="203" y="14" on="1"/>
        <pt x="191" y="-2" on="1"/>
        <pt x="151" y="2" on="0"/>
        <pt x="50" y="2" on="0"/>
        <pt x="19" y="-2" on="1"/>
        <pt x="29" y="14" on="1"/>
        <pt x="76" y="21" on="0"/>
        <pt x="109" y="41" on="0"/>
        <pt x="130" y="75" on="1"/>
        <pt x="345" y="430" on="1"/>
        <pt x="369" y="471" on="0"/>
        <pt x="369" y="488" on="1"/>
        <pt x="369" y="491" on="1"/>
        <pt x="369" y="505" on="0"/>
        <pt x="432" y="543" on="1"/>
        <pt x="442" y="438" on="0"/>
        <pt x="467" y="267" on="1"/>
        <pt x="497" y="55" on="0"/>
        <pt x="512" y="36" on="1"/>
        <pt x="521" y="25" on="0"/>
        <pt x="541" y="20" on="0"/>
        <pt x="551" y="18" on="0"/>
        <pt x="576" y="15" on="0"/>
        <pt x="582" y="14" on="1"/>
        <pt x="571" y="-2" on="1"/>
        <pt x="517" y="1" on="0"/>
        <pt x="492" y="1" on="1"/>
        <pt x="475" y="-11" on="0"/>
        <pt x="445" y="-81" on="0"/>
        <pt x="445" y="-134" on="0"/>
        <pt x="462" y="-134" on="1"/>
        <pt x="477" y="-134" on="0"/>
        <pt x="510" y="-108" on="0"/>
        <pt x="542" y="-78" on="0"/>
        <pt x="547" y="-74" on="1"/>
        <pt x="547" y="-81" on="1"/>
        <pt x="542" y="-94" on="1"/>
        <pt x="510" y="-139" on="0"/>
        <pt x="448" y="-165" on="1"/>
        <pt x="433" y="-171" on="0"/>
      </contour>
      <contour>
        <pt x="381" y="429" on="1"/>
        <pt x="380" y="433" on="0"/>
        <pt x="376" y="433" on="0"/>
        <pt x="375" y="430" on="1"/>
        <pt x="243" y="212" on="1"/>
        <pt x="242" y="210" on="0"/>
        <pt x="242" y="206" on="0"/>
        <pt x="245" y="206" on="1"/>
        <pt x="407" y="206" on="1"/>
        <pt x="413" y="206" on="0"/>
        <pt x="413" y="210" on="1"/>
        <pt x="413" y="212" on="1"/>
      </contour>
    </TTGlyph>
    <TTGlyph name="A.roman_ring" xMin="19" yMin="-2" xMax="582" yMax="658">
      <contour>
        <pt x="430" y="43" on="1"/>
        <pt x="430" y="56" on="0"/>
        <pt x="418" y="173" on="1"/>
        <pt x="418" y="175" on="1"/>
        <pt x="418" y="179" on="0"/>
        <pt x="413" y="179" on="1"/>
        <pt x="229" y="179" on="1"/>
        <pt x="224" y="179" on="0"/>
        <pt x="220" y="173" on="1"/>
        <pt x="141" y="49" on="0"/>
        <pt x="141" y="34" on="1"/>
        <pt x="141" y="14" on="0"/>
        <pt x="203" y="14" on="1"/>
        <pt x="191" y="-2" on="1"/>
        <pt x="151" y="2" on="0"/>
        <pt x="50" y="2" on="0"/>
        <pt x="19" y="-2" on="1"/>
        <pt x="29" y="14" on="1"/>
        <pt x="76" y="21" on="0"/>
        <pt x="109" y="41" on="0"/>
        <pt x="130" y="75" on="1"/>
        <pt x="345" y="430" on="1"/>
        <pt x="369" y="471" on="0"/>
        <pt x="369" y="488" on="1"/>
        <pt x="369" y="491" on="1"/>
        <pt x="369" y="505" on="0"/>
        <pt x="432" y="543" on="1"/>
        <pt x="442" y="438" on="0"/>
        <pt x="467" y="267" on="1"/>
        <pt x="497" y="55" on="0"/>
        <pt x="512" y="36" on="1"/>
        <pt x="521" y="25" on="0"/>
        <pt x="541" y="20" on="0"/>
        <pt x="551" y="18" on="0"/>
        <pt x="576" y="15" on="0"/>
        <pt x="582" y="14" on="1"/>
        <pt x="571" y="-2" on="1"/>
        <pt x="491" y="2" on="0"/>
        <pt x="469" y="2" on="1"/>
        <pt x="357" y="-2" on="1"/>
        <pt x="366" y="14" on="1"/>
        <pt x="430" y="14" on="0"/>
      </contour>
      <contour>
        <pt x="381" y="429" on="1"/>
        <pt x="380" y="433" on="0"/>
        <pt x="376" y="433" on="0"/>
        <pt x="375" y="430" on="1"/>
        <pt x="243" y="212" on="1"/>
        <pt x="242" y="210" on="0"/>
        <pt x="242" y="206" on="0"/>
        <pt x="245" y="206" on="1"/>
        <pt x="407" y="206" on="1"/>
        <pt x="413" y="206" on="0"/>
        <pt x="413" y="210" on="1"/>
        <pt x="413" y="212" on="1"/>
      </contour>
      <contour>
        <pt x="412" y="545" on="1"/>
        <pt x="375" y="545" on="0"/>
        <pt x="375" y="570" on="1"/>
        <pt x="375" y="585" on="0"/>
        <pt x="404" y="629" on="0"/>
        <pt x="418" y="632" on="1"/>
        <pt x="435" y="658" on="0"/>
        <pt x="465" y="658" on="1"/>
        <pt x="482" y="658" on="0"/>
        <pt x="496" y="636" on="0"/>
        <pt x="496" y="629" on="1"/>
        <pt x="496" y="595" on="0"/>
        <pt x="435" y="545" on="0"/>
      </contour>
      <contour>
        <pt x="461" y="643" on="1"/>
        <pt x="451" y="643" on="0"/>
        <pt x="435" y="633" on="1"/>
        <pt x="443" y="629" on="1"/>
        <pt x="439" y="623" on="0"/>
        <pt x="406" y="586" on="0"/>
        <pt x="406" y="560" on="0"/>
        <pt x="417" y="560" on="1"/>
        <pt x="437" y="560" on="0"/>
        <pt x="454" y="578" on="1"/>
        <pt x="476" y="601" on="0"/>
        <pt x="476" y="643" on="0"/>
      </contour>
    </TTGlyph>
    <TTGlyph name="A.roman_tilde" xMin="19" yMin="-2" xMax="582" yMax="640">
      <contour>
        <pt x="430" y="43" on="1"/>
        <pt x="430" y="56" on="0"/>
        <pt x="418" y="173" on="1"/>
        <pt x="418" y="175" on="1"/>
        <pt x="418" y="179" on="0"/>
        <pt x="413" y="179" on="1"/>
        <pt x="229" y="179" on="1"/>
        <pt x="224" y="179" on="0"/>
        <pt x="220" y="173" on="1"/>
        <pt x="141" y="49" on="0"/>
        <pt x="141" y="34" on="1"/>
        <pt x="141" y="14" on="0"/>
        <pt x="203" y="14" on="1"/>
        <pt x="191" y="-2" on="1"/>
        <pt x="151" y="2" on="0"/>
        <pt x="50" y="2" on="0"/>
        <pt x="19" y="-2" on="1"/>
        <pt x="29" y="14" on="1"/>
        <pt x="76" y="21" on="0"/>
        <pt x="109" y="41" on="0"/>
        <pt x="130" y="75" on="1"/>
        <pt x="345" y="430" on="1"/>
        <pt x="369" y="471" on="0"/>
        <pt x="369" y="488" on="1"/>
        <pt x="369" y="491" on="1"/>
        <pt x="369" y="505" on="0"/>
        <pt x="432" y="543" on="1"/>
        <pt x="442" y="438" on="0"/>
        <pt x="467" y="267" on="1"/>
        <pt x="497" y="55" on="0"/>
        <pt x="512" y="36" on="1"/>
        <pt x="521" y="25" on="0"/>
        <pt x="541" y="20" on="0"/>
        <pt x="551" y="18" on="0"/>
        <pt x="576" y="15" on="0"/>
        <pt x="582" y="14" on="1"/>
        <pt x="571" y="-2" on="1"/>
        <pt x="491" y="2" on="0"/>
        <pt x="469" y="2" on="1"/>
        <pt x="357" y="-2" on="1"/>
        <pt x="366" y="14" on="1"/>
        <pt x="430" y="14" on="0"/>
      </contour>
      <contour>
        <pt x="381" y="429" on="1"/>
        <pt x="380" y="433" on="0"/>
        <pt x="376" y="433" on="0"/>
        <pt x="375" y="430" on="1"/>
        <pt x="243" y="212" on="1"/>
        <pt x="242" y="210" on="0"/>
        <pt x="242" y="206" on="0"/>
        <pt x="245" y="206" on="1"/>
        <pt x="407" y="206" on="1"/>
        <pt x="413" y="206" on="0"/>
        <pt x="413" y="210" on="1"/>
        <pt x="413" y="212" on="1"/>
      </contour>
      <contour>
        <pt x="523" y="619" on="0"/>
        <pt x="496" y="590" on="0"/>
        <pt x="462" y="590" on="0"/>
        <pt x="399" y="615" on="0"/>
        <pt x="360" y="615" on="0"/>
        <pt x="352" y="597" on="1"/>
        <pt x="340" y="597" on="1"/>
        <pt x="345" y="613" on="0"/>
        <pt x="375" y="640" on="0"/>
        <pt x="407" y="640" on="0"/>
        <pt x="432" y="630" on="1"/>
        <pt x="463" y="618" on="0"/>
        <pt x="503" y="618" on="0"/>
        <pt x="519" y="640" on="1"/>
        <pt x="529" y="640" on="1"/>
      </contour>
    </TTGlyph>
    <TTGlyph name="A.sm" xMin="9" yMin="-2" xMax="409" yMax="383">
      <contour>
        <pt x="307" y="1" on="1"/>
        <pt x="261" y="-1" on="0"/>
        <pt x="242" y="-1" on="1"/>
        <pt x="252" y="17" on="1"/>
        <pt x="293" y="17" on="0"/>
        <pt x="294" y="31" on="1"/>
        <pt x="294" y="53" on="0"/>
        <pt x="286" y="122" on="1"/>
        <pt x="286" y="123" on="1"/>
        <pt x="159" y="123" on="1"/>
        <pt x="158" y="123" on="0"/>
        <pt x="156" y="121" on="1"/>
        <pt x="157" y="121" on="1"/>
        <pt x="122" y="66" on="0"/>
        <pt x="103" y="31" on="1"/>
        <pt x="103" y="29" on="1"/>
        <pt x="100" y="17" on="0"/>
        <pt x="149" y="17" on="1"/>
        <pt x="135" y="-1" on="1"/>
        <pt x="109" y="1" on="0"/>
        <pt x="29" y="1" on="0"/>
        <pt x="9" y="-2" on="1"/>
        <pt x="20" y="17" on="1"/>
        <pt x="54" y="22" on="0"/>
        <pt x="61" y="25" on="1"/>
        <pt x="74" y="34" on="0"/>
        <pt x="90" y="57" on="1"/>
        <pt x="236" y="301" on="1"/>
        <pt x="248" y="321" on="0"/>
        <pt x="253" y="340" on="1"/>
        <pt x="250" y="346" on="0"/>
        <pt x="260" y="354" on="1"/>
        <pt x="288" y="374" on="0"/>
        <pt x="303" y="383" on="1"/>
        <pt x="322" y="219" on="1"/>
        <pt x="346" y="59" on="0"/>
        <pt x="354" y="38" on="1"/>
        <pt x="357" y="22" on="0"/>
        <pt x="377" y="20" on="1"/>
        <pt x="381" y="20" on="0"/>
        <pt x="402" y="16" on="0"/>
        <pt x="409" y="16" on="1"/>
        <pt x="397" y="-1" on="1"/>
        <pt x="356" y="1" on="0"/>
        <pt x="325" y="1" on="1"/>
      </contour>
      <contour>
        <pt x="281" y="153" on="1"/>
        <pt x="261" y="294" on="1"/>
        <pt x="172" y="148" on="1"/>
        <pt x="282" y="148" on="1"/>
        <pt x="281" y="150" on="0"/>
      </contour>
    </TTGlyph>
    <TTGlyph name="A.sm_E.sm" xMin="9" yMin="-4" xMax="555" yMax="376">
      <contour>
        <pt x="471" y="165" on="1"/>
        <pt x="471" y="186" on="0"/>
        <pt x="374" y="183" on="1"/>
        <pt x="352" y="73" on="0"/>
        <pt x="350" y="31" on="0"/>
        <pt x="355" y="28" on="1"/>
        <pt x="356" y="29" on="1"/>
        <pt x="365" y="22" on="0"/>
        <pt x="469" y="22" on="0"/>
        <pt x="514" y="50" on="0"/>
        <pt x="531" y="87" on="1"/>
        <pt x="540" y="83" on="1"/>
        <pt x="541" y="78" on="1"/>
        <pt x="537" y="72" on="0"/>
        <pt x="518" y="22" on="0"/>
        <pt x="497" y="-4" on="0"/>
        <pt x="480" y="-4" on="1"/>
        <pt x="473" y="-4" on="1"/>
        <pt x="350" y="5" on="0"/>
        <pt x="335" y="5" on="1"/>
        <pt x="276" y="3" on="1"/>
        <pt x="215" y="-2" on="1"/>
        <pt x="226" y="17" on="1"/>
        <pt x="232" y="17" on="1"/>
        <pt x="236" y="16" on="0"/>
        <pt x="237" y="16" on="1"/>
        <pt x="273" y="16" on="0"/>
        <pt x="297" y="47" on="0"/>
        <pt x="314" y="123" on="1"/>
        <pt x="181" y="123" on="1"/>
        <pt x="180" y="123" on="0"/>
        <pt x="178" y="121" on="1"/>
        <pt x="179" y="121" on="1"/>
        <pt x="115" y="43" on="0"/>
        <pt x="107" y="27" on="1"/>
        <pt x="107" y="17" on="0"/>
        <pt x="152" y="17" on="1"/>
        <pt x="135" y="-1" on="1"/>
        <pt x="109" y="1" on="0"/>
        <pt x="29" y="1" on="0"/>
        <pt x="9" y="-2" on="1"/>
        <pt x="23" y="17" on="1"/>
        <pt x="34" y="18" on="0"/>
        <pt x="48" y="21" on="0"/>
        <pt x="60" y="23" on="0"/>
        <pt x="69" y="28" on="0"/>
        <pt x="74" y="29" on="0"/>
        <pt x="83" y="38" on="0"/>
        <pt x="84" y="39" on="1"/>
        <pt x="91" y="43" on="0"/>
        <pt x="100" y="57" on="1"/>
        <pt x="335" y="356" on="1"/>
        <pt x="321" y="357" on="1"/>
        <pt x="319" y="357" on="0"/>
        <pt x="307" y="356" on="0"/>
        <pt x="304" y="356" on="1"/>
        <pt x="315" y="376" on="1"/>
        <pt x="344" y="370" on="0"/>
        <pt x="391" y="370" on="1"/>
        <pt x="549" y="372" on="1"/>
        <pt x="555" y="372" on="0"/>
        <pt x="555" y="365" on="1"/>
        <pt x="555" y="363" on="0"/>
        <pt x="526" y="288" on="1"/>
        <pt x="507" y="291" on="1"/>
        <pt x="524" y="325" on="1"/>
        <pt x="524" y="328" on="1"/>
        <pt x="524" y="338" on="0"/>
        <pt x="496" y="344" on="0"/>
        <pt x="457" y="344" on="1"/>
        <pt x="415" y="343" on="1"/>
        <pt x="399" y="299" on="0"/>
        <pt x="379" y="206" on="1"/>
        <pt x="492" y="208" on="1"/>
        <pt x="500" y="208" on="0"/>
        <pt x="500" y="201" on="1"/>
        <pt x="500" y="200" on="0"/>
        <pt x="491" y="182" on="0"/>
        <pt x="491" y="177" on="1"/>
        <pt x="486" y="164" on="1"/>
        <pt x="484" y="148" on="1"/>
        <pt x="464" y="144" on="1"/>
        <pt x="471" y="162" on="1"/>
      </contour>
      <contour>
        <pt x="352" y="334" on="1"/>
        <pt x="352" y="343" on="1"/>
        <pt x="198" y="148" on="1"/>
        <pt x="319" y="148" on="1"/>
        <pt x="321" y="155" on="1"/>
        <pt x="342" y="248" on="0"/>
        <pt x="342" y="258" on="1"/>
        <pt x="352" y="308" on="0"/>
      </contour>
    </TTGlyph>
    <TTGlyph name="A.sm_acute" xMin="9" yMin="-2" xMax="409" yMax="516">
      <contour>
        <pt x="307" y="1" on="1"/>
        <pt x="261" y="-1" on="0"/>
        <pt x="242" y="-1" on="1"/>
        <pt x="252" y="17" on="1"/>
        <pt x="293" y="17" on="0"/>
        <pt x="294" y="31" on="1"/>
        <pt x="294" y="53" on="0"/>
        <pt x="286" y="122" on="1"/>
        <pt x="286" y="123" on="1"/>
        <pt x="159" y="123" on="1"/>
        <pt x="158" y="123" on="0"/>
        <pt x="156" y="121" on="1"/>
        <pt x="157" y="121" on="1"/>
        <pt x="122" y="66" on="0"/>
        <pt x="103" y="31" on="1"/>
        <pt x="103" y="29" on="1"/>
        <pt x="100" y="17" on="0"/>
        <pt x="149" y="17" on="1"/>
        <pt x="135" y="-1" on="1"/>
        <pt x="109" y="1" on="0"/>
        <pt x="29" y="1" on="0"/>
        <pt x="9" y="-2" on="1"/>
        <pt x="20" y="17" on="1"/>
        <pt x="54" y="22" on="0"/>
        <pt x="61" y="25" on="1"/>
        <pt x="74" y="34" on="0"/>
        <pt x="90" y="57" on="1"/>
        <pt x="236" y="301" on="1"/>
        <pt x="248" y="321" on="0"/>
        <pt x="253" y="340" on="1"/>
        <pt x="250" y="346" on="0"/>
        <pt x="260" y="354" on="1"/>
        <pt x="288" y="374" on="0"/>
        <pt x="303" y="383" on="1"/>
        <pt x="322" y="219" on="1"/>
        <pt x="346" y="59" on="0"/>
        <pt x="354" y="38" on="1"/>
        <pt x="357" y="22" on="0"/>
        <pt x="377" y="20" on="1"/>
        <pt x="381" y="20" on="0"/>
        <pt x="402" y="16" on="0"/>
        <pt x="409" y="16" on="1"/>
        <pt x="397" y="-1" on="1"/>
        <pt x="356" y="1" on="0"/>
        <pt x="325" y="1" on="1"/>
      </contour>
      <contour>
        <pt x="281" y="153" on="1"/>
        <pt x="261" y="294" on="1"/>
        <pt x="172" y="148" on="1"/>
        <pt x="282" y="148" on="1"/>
        <pt x="281" y="150" on="0"/>
      </contour>
      <contour>
        <pt x="375" y="516" on="1"/>
        <pt x="378" y="516" on="0"/>
        <pt x="378" y="489" on="0"/>
        <pt x="374" y="485" on="1"/>
        <pt x="369" y="476" on="0"/>
        <pt x="255" y="409" on="0"/>
        <pt x="243" y="407" on="1"/>
        <pt x="242" y="407" on="0"/>
        <pt x="244" y="414" on="1"/>
        <pt x="280" y="441" on="0"/>
        <pt x="366" y="516" on="0"/>
      </contour>
    </TTGlyph>
    <TTGlyph name="A.sm_breve" xMin="9" yMin="-2" xMax="409" yMax="487">
      <contour>
        <pt x="307" y="1" on="1"/>
        <pt x="261" y="-1" on="0"/>
        <pt x="242" y="-1" on="1"/>
        <pt x="252" y="17" on="1"/>
        <pt x="293" y="17" on="0"/>
        <pt x="294" y="31" on="1"/>
        <pt x="294" y="53" on="0"/>
        <pt x="286" y="122" on="1"/>
        <pt x="286" y="123" on="1"/>
        <pt x="159" y="123" on="1"/>
        <pt x="158" y="123" on="0"/>
        <pt x="156" y="121" on="1"/>
        <pt x="157" y="121" on="1"/>
        <pt x="122" y="66" on="0"/>
        <pt x="103" y="31" on="1"/>
        <pt x="103" y="29" on="1"/>
        <pt x="100" y="17" on="0"/>
        <pt x="149" y="17" on="1"/>
        <pt x="135" y="-1" on="1"/>
        <pt x="109" y="1" on="0"/>
        <pt x="29" y="1" on="0"/>
        <pt x="9" y="-2" on="1"/>
        <pt x="20" y="17" on="1"/>
        <pt x="54" y="22" on="0"/>
        <pt x="61" y="25" on="1"/>
        <pt x="74" y="34" on="0"/>
        <pt x="90" y="57" on="1"/>
        <pt x="236" y="301" on="1"/>
        <pt x="248" y="321" on="0"/>
        <pt x="253" y="340" on="1"/>
        <pt x="250" y="346" on="0"/>
        <pt x="260" y="354" on="1"/>
        <pt x="288" y="374" on="0"/>
        <pt x="303" y="383" on="1"/>
        <pt x="322" y="219" on="1"/>
        <pt x="346" y="59" on="0"/>
        <pt x="354" y="38" on="1"/>
        <pt x="357" y="22" on="0"/>
        <pt x="377" y="20" on="1"/>
        <pt x="381" y="20" on="0"/>
        <pt x="402" y="16" on="0"/>
        <pt x="409" y="16" on="1"/>
        <pt x="397" y="-1" on="1"/>
        <pt x="356" y="1" on="0"/>
        <pt x="325" y="1" on="1"/>
      </contour>
      <contour>
        <pt x="281" y="153" on="1"/>
        <pt x="261" y="294" on="1"/>
        <pt x="172" y="148" on="1"/>
        <pt x="282" y="148" on="1"/>
        <pt x="281" y="150" on="0"/>
      </contour>
      <contour>
        <pt x="288" y="435" on="1"/>
        <pt x="230" y="435" on="0"/>
        <pt x="230" y="467" on="1"/>
        <pt x="230" y="472" on="0"/>
        <pt x="238" y="487" on="0"/>
        <pt x="242" y="487" on="1"/>
        <pt x="257" y="487" on="1"/>
        <pt x="246" y="469" on="0"/>
        <pt x="273" y="450" on="0"/>
        <pt x="326" y="450" on="0"/>
        <pt x="381" y="483" on="1"/>
        <pt x="397" y="483" on="1"/>
        <pt x="382" y="465" on="0"/>
        <pt x="318" y="435" on="0"/>
      </contour>
    </TTGlyph>
    <TTGlyph name="A.sm_circumflex" xMin="9" yMin="-2" xMax="409" yMax="502">
      <contour>
        <pt x="307" y="1" on="1"/>
        <pt x="261" y="-1" on="0"/>
        <pt x="242" y="-1" on="1"/>
        <pt x="252" y="17" on="1"/>
        <pt x="293" y="17" on="0"/>
        <pt x="294" y="31" on="1"/>
        <pt x="294" y="53" on="0"/>
        <pt x="286" y="122" on="1"/>
        <pt x="286" y="123" on="1"/>
        <pt x="159" y="123" on="1"/>
        <pt x="158" y="123" on="0"/>
        <pt x="156" y="121" on="1"/>
        <pt x="157" y="121" on="1"/>
        <pt x="122" y="66" on="0"/>
        <pt x="103" y="31" on="1"/>
        <pt x="103" y="29" on="1"/>
        <pt x="100" y="17" on="0"/>
        <pt x="149" y="17" on="1"/>
        <pt x="135" y="-1" on="1"/>
        <pt x="109" y="1" on="0"/>
        <pt x="29" y="1" on="0"/>
        <pt x="9" y="-2" on="1"/>
        <pt x="20" y="17" on="1"/>
        <pt x="54" y="22" on="0"/>
        <pt x="61" y="25" on="1"/>
        <pt x="74" y="34" on="0"/>
        <pt x="90" y="57" on="1"/>
        <pt x="236" y="301" on="1"/>
        <pt x="248" y="321" on="0"/>
        <pt x="253" y="340" on="1"/>
        <pt x="250" y="346" on="0"/>
        <pt x="260" y="354" on="1"/>
        <pt x="288" y="374" on="0"/>
        <pt x="303" y="383" on="1"/>
        <pt x="322" y="219" on="1"/>
        <pt x="346" y="59" on="0"/>
        <pt x="354" y="38" on="1"/>
        <pt x="357" y="22" on="0"/>
        <pt x="377" y="20" on="1"/>
        <pt x="381" y="20" on="0"/>
        <pt x="402" y="16" on="0"/>
        <pt x="409" y="16" on="1"/>
        <pt x="397" y="-1" on="1"/>
        <pt x="356" y="1" on="0"/>
        <pt x="325" y="1" on="1"/>
      </contour>
      <contour>
        <pt x="281" y="153" on="1"/>
        <pt x="261" y="294" on="1"/>
        <pt x="172" y="148" on="1"/>
        <pt x="282" y="148" on="1"/>
        <pt x="281" y="150" on="0"/>
      </contour>
      <contour>
        <pt x="378" y="411" on="1"/>
        <pt x="355" y="411" on="0"/>
        <pt x="301" y="476" on="1"/>
        <pt x="301" y="479" on="0"/>
        <pt x="295" y="476" on="1"/>
        <pt x="284" y="466" on="0"/>
        <pt x="220" y="423" on="0"/>
        <pt x="201" y="416" on="0"/>
        <pt x="192" y="418" on="1"/>
        <pt x="265" y="467" on="0"/>
        <pt x="305" y="502" on="1"/>
        <pt x="317" y="502" on="1"/>
        <pt x="341" y="462" on="0"/>
        <pt x="385" y="432" on="1"/>
        <pt x="398" y="424" on="0"/>
        <pt x="403" y="424" on="1"/>
        <pt x="403" y="421" on="1"/>
        <pt x="403" y="421" on="0"/>
      </contour>
    </TTGlyph>
    <TTGlyph name="A.sm_dieresis" xMin="9" yMin="-2" xMax="409" yMax="482">
      <contour>
        <pt x="307" y="1" on="1"/>
        <pt x="261" y="-1" on="0"/>
        <pt x="242" y="-1" on="1"/>
        <pt x="252" y="17" on="1"/>
        <pt x="293" y="17" on="0"/>
        <pt x="294" y="31" on="1"/>
        <pt x="294" y="53" on="0"/>
        <pt x="286" y="122" on="1"/>
        <pt x="286" y="123" on="1"/>
        <pt x="159" y="123" on="1"/>
        <pt x="158" y="123" on="0"/>
        <pt x="156" y="121" on="1"/>
        <pt x="157" y="121" on="1"/>
        <pt x="122" y="66" on="0"/>
        <pt x="103" y="31" on="1"/>
        <pt x="103" y="29" on="1"/>
        <pt x="100" y="17" on="0"/>
        <pt x="149" y="17" on="1"/>
        <pt x="135" y="-1" on="1"/>
        <pt x="109" y="1" on="0"/>
        <pt x="29" y="1" on="0"/>
        <pt x="9" y="-2" on="1"/>
        <pt x="20" y="17" on="1"/>
        <pt x="54" y="22" on="0"/>
        <pt x="61" y="25" on="1"/>
        <pt x="74" y="34" on="0"/>
        <pt x="90" y="57" on="1"/>
        <pt x="236" y="301" on="1"/>
        <pt x="248" y="321" on="0"/>
        <pt x="253" y="340" on="1"/>
        <pt x="250" y="346" on="0"/>
        <pt x="260" y="354" on="1"/>
        <pt x="288" y="374" on="0"/>
        <pt x="303" y="383" on="1"/>
        <pt x="322" y="219" on="1"/>
        <pt x="346" y="59" on="0"/>
        <pt x="354" y="38" on="1"/>
        <pt x="357" y="22" on="0"/>
        <pt x="377" y="20" on="1"/>
        <pt x="381" y="20" on="0"/>
        <pt x="402" y="16" on="0"/>
        <pt x="409" y="16" on="1"/>
        <pt x="397" y="-1" on="1"/>
        <pt x="356" y="1" on="0"/>
        <pt x="325" y="1" on="1"/>
      </contour>
      <contour>
        <pt x="281" y="153" on="1"/>
        <pt x="261" y="294" on="1"/>
        <pt x="172" y="148" on="1"/>
        <pt x="282" y="148" on="1"/>
        <pt x="281" y="150" on="0"/>
      </contour>
      <contour>
        <pt x="233" y="434" on="1"/>
        <pt x="196" y="434" on="0"/>
        <pt x="196" y="457" on="1"/>
        <pt x="196" y="460" on="0"/>
        <pt x="222" y="476" on="1"/>
        <pt x="235" y="482" on="1"/>
        <pt x="255" y="470" on="0"/>
        <pt x="267" y="470" on="0"/>
        <pt x="276" y="472" on="0"/>
        <pt x="276" y="467" on="1"/>
        <pt x="275" y="463" on="0"/>
        <pt x="270" y="457" on="1"/>
        <pt x="242" y="434" on="0"/>
      </contour>
      <contour>
        <pt x="349" y="434" on="1"/>
        <pt x="312" y="434" on="0"/>
        <pt x="312" y="457" on="1"/>
        <pt x="312" y="460" on="0"/>
        <pt x="338" y="476" on="1"/>
        <pt x="351" y="482" on="1"/>
        <pt x="371" y="470" on="0"/>
        <pt x="383" y="470" on="0"/>
        <pt x="392" y="472" on="0"/>
        <pt x="392" y="467" on="1"/>
        <pt x="391" y="463" on="0"/>
        <pt x="386" y="457" on="1"/>
        <pt x="358" y="434" on="0"/>
      </contour>
    </TTGlyph>
    <TTGlyph name="A.sm_grave" xMin="9" yMin="-2" xMax="409" yMax="528">
      <contour>
        <pt x="307" y="1" on="1"/>
        <pt x="261" y="-1" on="0"/>
        <pt x="242" y="-1" on="1"/>
        <pt x="252" y="17" on="1"/>
        <pt x="293" y="17" on="0"/>
        <pt x="294" y="31" on="1"/>
        <pt x="294" y="53" on="0"/>
        <pt x="286" y="122" on="1"/>
        <pt x="286" y="123" on="1"/>
        <pt x="159" y="123" on="1"/>
        <pt x="158" y="123" on="0"/>
        <pt x="156" y="121" on="1"/>
        <pt x="157" y="121" on="1"/>
        <pt x="122" y="66" on="0"/>
        <pt x="103" y="31" on="1"/>
        <pt x="103" y="29" on="1"/>
        <pt x="100" y="17" on="0"/>
        <pt x="149" y="17" on="1"/>
        <pt x="135" y="-1" on="1"/>
        <pt x="109" y="1" on="0"/>
        <pt x="29" y="1" on="0"/>
        <pt x="9" y="-2" on="1"/>
        <pt x="20" y="17" on="1"/>
        <pt x="54" y="22" on="0"/>
        <pt x="61" y="25" on="1"/>
        <pt x="74" y="34" on="0"/>
        <pt x="90" y="57" on="1"/>
        <pt x="236" y="301" on="1"/>
        <pt x="248" y="321" on="0"/>
        <pt x="253" y="340" on="1"/>
        <pt x="250" y="346" on="0"/>
        <pt x="260" y="354" on="1"/>
        <pt x="288" y="374" on="0"/>
        <pt x="303" y="383" on="1"/>
        <pt x="322" y="219" on="1"/>
        <pt x="346" y="59" on="0"/>
        <pt x="354" y="38" on="1"/>
        <pt x="357" y="22" on="0"/>
        <pt x="377" y="20" on="1"/>
        <pt x="381" y="20" on="0"/>
        <pt x="402" y="16" on="0"/>
        <pt x="409" y="16" on="1"/>
        <pt x="397" y="-1" on="1"/>
        <pt x="356" y="1" on="0"/>
        <pt x="325" y="1" on="1"/>
      </contour>
      <contour>
        <pt x="281" y="153" on="1"/>
        <pt x="261" y="294" on="1"/>
        <pt x="172" y="148" on="1"/>
        <pt x="282" y="148" on="1"/>
        <pt x="281" y="150" on="0"/>
      </contour>
      <contour>
        <pt x="219" y="497" on="1"/>
        <pt x="215" y="501" on="0"/>
        <pt x="215" y="528" on="0"/>
        <pt x="218" y="528" on="1"/>
        <pt x="227" y="528" on="0"/>
        <pt x="313" y="453" on="0"/>
        <pt x="349" y="426" on="1"/>
        <pt x="349" y="426" on="0"/>
        <pt x="350" y="419" on="1"/>
        <pt x="338" y="421" on="0"/>
        <pt x="224" y="488" on="0"/>
      </contour>
    </TTGlyph>
    <TTGlyph name="A.sm_macron" xMin="9" yMin="-2" xMax="409" yMax="471">
      <contour>
        <pt x="307" y="1" on="1"/>
        <pt x="261" y="-1" on="0"/>
        <pt x="242" y="-1" on="1"/>
        <pt x="252" y="17" on="1"/>
        <pt x="293" y="17" on="0"/>
        <pt x="294" y="31" on="1"/>
        <pt x="294" y="53" on="0"/>
        <pt x="286" y="122" on="1"/>
        <pt x="286" y="123" on="1"/>
        <pt x="159" y="123" on="1"/>
        <pt x="158" y="123" on="0"/>
        <pt x="156" y="121" on="1"/>
        <pt x="157" y="121" on="1"/>
        <pt x="122" y="66" on="0"/>
        <pt x="103" y="31" on="1"/>
        <pt x="103" y="29" on="1"/>
        <pt x="100" y="17" on="0"/>
        <pt x="149" y="17" on="1"/>
        <pt x="135" y="-1" on="1"/>
        <pt x="109" y="1" on="0"/>
        <pt x="29" y="1" on="0"/>
        <pt x="9" y="-2" on="1"/>
        <pt x="20" y="17" on="1"/>
        <pt x="54" y="22" on="0"/>
        <pt x="61" y="25" on="1"/>
        <pt x="74" y="34" on="0"/>
        <pt x="90" y="57" on="1"/>
        <pt x="236" y="301" on="1"/>
        <pt x="248" y="321" on="0"/>
        <pt x="253" y="340" on="1"/>
        <pt x="250" y="346" on="0"/>
        <pt x="260" y="354" on="1"/>
        <pt x="288" y="374" on="0"/>
        <pt x="303" y="383" on="1"/>
        <pt x="322" y="219" on="1"/>
        <pt x="346" y="59" on="0"/>
        <pt x="354" y="38" on="1"/>
        <pt x="357" y="22" on="0"/>
        <pt x="377" y="20" on="1"/>
        <pt x="381" y="20" on="0"/>
        <pt x="402" y="16" on="0"/>
        <pt x="409" y="16" on="1"/>
        <pt x="397" y="-1" on="1"/>
        <pt x="356" y="1" on="0"/>
        <pt x="325" y="1" on="1"/>
      </contour>
      <contour>
        <pt x="281" y="153" on="1"/>
        <pt x="261" y="294" on="1"/>
        <pt x="172" y="148" on="1"/>
        <pt x="282" y="148" on="1"/>
        <pt x="281" y="150" on="0"/>
      </contour>
      <contour>
        <pt x="381" y="455" on="1"/>
        <pt x="227" y="446" on="1"/>
        <pt x="223" y="446" on="0"/>
        <pt x="218" y="453" on="1"/>
        <pt x="211" y="461" on="0"/>
        <pt x="214" y="466" on="1"/>
        <pt x="233" y="471" on="0"/>
        <pt x="298" y="471" on="1"/>
        <pt x="369" y="471" on="0"/>
        <pt x="387" y="461" on="1"/>
        <pt x="388" y="461" on="0"/>
        <pt x="386" y="455" on="0"/>
      </contour>
    </TTGlyph>
    <TTGlyph name="A.sm_ogonek" xMin="9" yMin="-174" xMax="409" yMax="383">
      <contour>
        <pt x="397" y="-1" on="1"/>
        <pt x="333" y="1" on="1"/>
        <pt x="315" y="-9" on="0"/>
        <pt x="284" y="-82" on="0"/>
        <pt x="284" y="-136" on="0"/>
        <pt x="301" y="-136" on="1"/>
        <pt x="316" y="-136" on="0"/>
        <pt x="349" y="-110" on="0"/>
        <pt x="381" y="-80" on="0"/>
        <pt x="386" y="-76" on="1"/>
        <pt x="386" y="-83" on="1"/>
        <pt x="381" y="-96" on="1"/>
        <pt x="349" y="-141" on="0"/>
        <pt x="287" y="-167" on="1"/>
        <pt x="272" y="-173" on="0"/>
        <pt x="261" y="-173" on="1"/>
        <pt x="237" y="-173" on="0"/>
        <pt x="237" y="-111" on="0"/>
        <pt x="289" y="-16" on="0"/>
        <pt x="312" y="1" on="1"/>
        <pt x="307" y="1" on="1"/>
        <pt x="261" y="-1" on="0"/>
        <pt x="242" y="-1" on="1"/>
        <pt x="252" y="17" on="1"/>
        <pt x="293" y="17" on="0"/>
        <pt x="294" y="31" on="1"/>
        <pt x="294" y="53" on="0"/>
        <pt x="286" y="122" on="1"/>
        <pt x="286" y="123" on="1"/>
        <pt x="159" y="123" on="1"/>
        <pt x="158" y="123" on="0"/>
        <pt x="156" y="121" on="1"/>
        <pt x="157" y="121" on="1"/>
        <pt x="122" y="66" on="0"/>
        <pt x="103" y="31" on="1"/>
        <pt x="103" y="29" on="1"/>
        <pt x="100" y="17" on="0"/>
        <pt x="149" y="17" on="1"/>
        <pt x="135" y="-1" on="1"/>
        <pt x="109" y="1" on="0"/>
        <pt x="29" y="1" on="0"/>
        <pt x="9" y="-2" on="1"/>
        <pt x="20" y="17" on="1"/>
        <pt x="54" y="22" on="0"/>
        <pt x="61" y="25" on="1"/>
        <pt x="74" y="34" on="0"/>
        <pt x="90" y="57" on="1"/>
        <pt x="236" y="301" on="1"/>
        <pt x="248" y="321" on="0"/>
        <pt x="253" y="340" on="1"/>
        <pt x="250" y="346" on="0"/>
        <pt x="260" y="354" on="1"/>
        <pt x="288" y="374" on="0"/>
        <pt x="303" y="383" on="1"/>
        <pt x="322" y="219" on="1"/>
        <pt x="346" y="59" on="0"/>
        <pt x="354" y="38" on="1"/>
        <pt x="357" y="22" on="0"/>
        <pt x="377" y="20" on="1"/>
        <pt x="381" y="20" on="0"/>
        <pt x="402" y="16" on="0"/>
        <pt x="409" y="16" on="1"/>
      </contour>
      <contour>
        <pt x="281" y="153" on="1"/>
        <pt x="261" y="294" on="1"/>
        <pt x="172" y="148" on="1"/>
        <pt x="282" y="148" on="1"/>
        <pt x="281" y="150" on="0"/>
      </contour>
    </TTGlyph>
    <TTGlyph name="A.sm_ring" xMin="9" yMin="-2" xMax="409" yMax="522">
      <contour>
        <pt x="307" y="1" on="1"/>
        <pt x="261" y="-1" on="0"/>
        <pt x="242" y="-1" on="1"/>
        <pt x="252" y="17" on="1"/>
        <pt x="293" y="17" on="0"/>
        <pt x="294" y="31" on="1"/>
        <pt x="294" y="53" on="0"/>
        <pt x="286" y="122" on="1"/>
        <pt x="286" y="123" on="1"/>
        <pt x="159" y="123" on="1"/>
        <pt x="158" y="123" on="0"/>
        <pt x="156" y="121" on="1"/>
        <pt x="157" y="121" on="1"/>
        <pt x="122" y="66" on="0"/>
        <pt x="103" y="31" on="1"/>
        <pt x="103" y="29" on="1"/>
        <pt x="100" y="17" on="0"/>
        <pt x="149" y="17" on="1"/>
        <pt x="135" y="-1" on="1"/>
        <pt x="109" y="1" on="0"/>
        <pt x="29" y="1" on="0"/>
        <pt x="9" y="-2" on="1"/>
        <pt x="20" y="17" on="1"/>
        <pt x="54" y="22" on="0"/>
        <pt x="61" y="25" on="1"/>
        <pt x="74" y="34" on="0"/>
        <pt x="90" y="57" on="1"/>
        <pt x="236" y="301" on="1"/>
        <pt x="248" y="321" on="0"/>
        <pt x="253" y="340" on="1"/>
        <pt x="250" y="346" on="0"/>
        <pt x="260" y="354" on="1"/>
        <pt x="288" y="374" on="0"/>
        <pt x="303" y="383" on="1"/>
        <pt x="322" y="219" on="1"/>
        <pt x="346" y="59" on="0"/>
        <pt x="354" y="38" on="1"/>
        <pt x="357" y="22" on="0"/>
        <pt x="377" y="20" on="1"/>
        <pt x="381" y="20" on="0"/>
        <pt x="402" y="16" on="0"/>
        <pt x="409" y="16" on="1"/>
        <pt x="397" y="-1" on="1"/>
        <pt x="356" y="1" on="0"/>
        <pt x="325" y="1" on="1"/>
      </contour>
      <contour>
        <pt x="281" y="153" on="1"/>
        <pt x="261" y="294" on="1"/>
        <pt x="172" y="148" on="1"/>
        <pt x="282" y="148" on="1"/>
        <pt x="281" y="150" on="0"/>
      </contour>
      <contour>
        <pt x="274" y="409" on="1"/>
        <pt x="237" y="409" on="0"/>
        <pt x="237" y="434" on="1"/>
        <pt x="237" y="449" on="0"/>
        <pt x="266" y="493" on="0"/>
        <pt x="280" y="496" on="1"/>
        <pt x="297" y="522" on="0"/>
        <pt x="327" y="522" on="1"/>
        <pt x="344" y="522" on="0"/>
        <pt x="358" y="500" on="0"/>
        <pt x="358" y="493" on="1"/>
        <pt x="358" y="459" on="0"/>
        <pt x="297" y="409" on="0"/>
      </contour>
      <contour>
        <pt x="323" y="507" on="1"/>
        <pt x="313" y="507" on="0"/>
        <pt x="297" y="497" on="1"/>
        <pt x="305" y="493" on="1"/>
        <pt x="301" y="487" on="0"/>
        <pt x="268" y="450" on="0"/>
        <pt x="268" y="424" on="0"/>
        <pt x="279" y="424" on="1"/>
        <pt x="299" y="424" on="0"/>
        <pt x="316" y="442" on="1"/>
        <pt x="338" y="465" on="0"/>
        <pt x="338" y="507" on="0"/>
      </contour>
    </TTGlyph>
    <TTGlyph name="A.sm_tilde" xMin="9" yMin="-2" xMax="409" yMax="479">
      <contour>
        <pt x="307" y="1" on="1"/>
        <pt x="261" y="-1" on="0"/>
        <pt x="242" y="-1" on="1"/>
        <pt x="252" y="17" on="1"/>
        <pt x="293" y="17" on="0"/>
        <pt x="294" y="31" on="1"/>
        <pt x="294" y="53" on="0"/>
        <pt x="286" y="122" on="1"/>
        <pt x="286" y="123" on="1"/>
        <pt x="159" y="123" on="1"/>
        <pt x="158" y="123" on="0"/>
        <pt x="156" y="121" on="1"/>
        <pt x="157" y="121" on="1"/>
        <pt x="122" y="66" on="0"/>
        <pt x="103" y="31" on="1"/>
        <pt x="103" y="29" on="1"/>
        <pt x="100" y="17" on="0"/>
        <pt x="149" y="17" on="1"/>
        <pt x="135" y="-1" on="1"/>
        <pt x="109" y="1" on="0"/>
        <pt x="29" y="1" on="0"/>
        <pt x="9" y="-2" on="1"/>
        <pt x="20" y="17" on="1"/>
        <pt x="54" y="22" on="0"/>
        <pt x="61" y="25" on="1"/>
        <pt x="74" y="34" on="0"/>
        <pt x="90" y="57" on="1"/>
        <pt x="236" y="301" on="1"/>
        <pt x="248" y="321" on="0"/>
        <pt x="253" y="340" on="1"/>
        <pt x="250" y="346" on="0"/>
        <pt x="260" y="354" on="1"/>
        <pt x="288" y="374" on="0"/>
        <pt x="303" y="383" on="1"/>
        <pt x="322" y="219" on="1"/>
        <pt x="346" y="59" on="0"/>
        <pt x="354" y="38" on="1"/>
        <pt x="357" y="22" on="0"/>
        <pt x="377" y="20" on="1"/>
        <pt x="381" y="20" on="0"/>
        <pt x="402" y="16" on="0"/>
        <pt x="409" y="16" on="1"/>
        <pt x="397" y="-1" on="1"/>
        <pt x="356" y="1" on="0"/>
        <pt x="325" y="1" on="1"/>
      </contour>
      <contour>
        <pt x="281" y="153" on="1"/>
        <pt x="261" y="294" on="1"/>
        <pt x="172" y="148" on="1"/>
        <pt x="282" y="148" on="1"/>
        <pt x="281" y="150" on="0"/>
      </contour>
      <contour>
        <pt x="384" y="458" on="0"/>
        <pt x="357" y="429" on="0"/>
        <pt x="323" y="429" on="0"/>
        <pt x="260" y="454" on="0"/>
        <pt x="221" y="454" on="0"/>
        <pt x="213" y="436" on="1"/>
        <pt x="201" y="436" on="1"/>
        <pt x="206" y="452" on="0"/>
        <pt x="236" y="479" on="0"/>
        <pt x="268" y="479" on="0"/>
        <pt x="293" y="469" on="1"/>
        <pt x="324" y="457" on="0"/>
        <pt x="364" y="457" on="0"/>
        <pt x="380" y="479" on="1"/>
        <pt x="390" y="479" on="1"/>
      </contour>
    </TTGlyph>
    <TTGlyph name="AE" xMin="20" yMin="-25" xMax="1119" yMax="577">
      <contour>
        <pt x="913" y="546" on="1"/>
        <pt x="996" y="548" on="1"/>
        <pt x="1095" y="548" on="0"/>
        <pt x="1110" y="534" on="1"/>
        <pt x="1119" y="527" on="0"/>
        <pt x="1119" y="513" on="0"/>
        <pt x="1117" y="505" on="1"/>
        <pt x="1113" y="476" on="0"/>
        <pt x="1088" y="439" on="1"/>
        <pt x="1081" y="426" on="0"/>
        <pt x="1071" y="427" on="1"/>
        <pt x="1067" y="427" on="0"/>
        <pt x="1074" y="456" on="0"/>
        <pt x="1074" y="474" on="1"/>
        <pt x="1074" y="516" on="0"/>
        <pt x="1042" y="526" on="1"/>
        <pt x="1028" y="530" on="0"/>
        <pt x="966" y="530" on="0"/>
        <pt x="895" y="526" on="0"/>
        <pt x="881" y="508" on="1"/>
        <pt x="850" y="464" on="0"/>
        <pt x="759" y="307" on="1"/>
        <pt x="755" y="296" on="0"/>
        <pt x="767" y="296" on="1"/>
        <pt x="883" y="294" on="1"/>
        <pt x="962" y="294" on="0"/>
        <pt x="989" y="308" on="1"/>
        <pt x="998" y="314" on="0"/>
        <pt x="997" y="306" on="1"/>
        <pt x="996" y="290" on="0"/>
        <pt x="962" y="265" on="0"/>
        <pt x="949" y="265" on="1"/>
        <pt x="792" y="269" on="1"/>
        <pt x="768" y="269" on="0"/>
        <pt x="737" y="267" on="0"/>
        <pt x="728" y="250" on="0"/>
        <pt x="716" y="228" on="1"/>
        <pt x="648" y="100" on="0"/>
        <pt x="648" y="63" on="1"/>
        <pt x="648" y="10" on="0"/>
        <pt x="748" y="8" on="1"/>
        <pt x="957" y="8" on="0"/>
        <pt x="1055" y="133" on="1"/>
        <pt x="1059" y="139" on="0"/>
        <pt x="1063" y="124" on="0"/>
        <pt x="1057" y="116" on="0"/>
        <pt x="1019" y="67" on="0"/>
        <pt x="1005" y="52" on="0"/>
        <pt x="990" y="36" on="1"/>
        <pt x="965" y="9" on="0"/>
        <pt x="936" y="0" on="1"/>
        <pt x="894" y="-12" on="0"/>
        <pt x="709" y="-12" on="0"/>
        <pt x="590" y="0" on="0"/>
        <pt x="576" y="21" on="1"/>
        <pt x="571" y="29" on="0"/>
        <pt x="571" y="59" on="0"/>
        <pt x="586" y="89" on="1"/>
        <pt x="634" y="175" on="1"/>
        <pt x="676" y="264" on="0"/>
        <pt x="801" y="489" on="0"/>
        <pt x="831" y="530" on="1"/>
        <pt x="806" y="529" on="0"/>
        <pt x="711" y="475" on="0"/>
        <pt x="651" y="413" on="0"/>
        <pt x="539" y="289" on="0"/>
        <pt x="515" y="263" on="1"/>
        <pt x="575" y="261" on="0"/>
        <pt x="648" y="261" on="0"/>
        <pt x="679" y="276" on="1"/>
        <pt x="673" y="260" on="0"/>
        <pt x="640" y="233" on="0"/>
        <pt x="585" y="230" on="0"/>
        <pt x="515" y="230" on="0"/>
        <pt x="484" y="231" on="1"/>
        <pt x="236" y="-25" on="0"/>
        <pt x="87" y="-25" on="1"/>
        <pt x="55" y="-25" on="0"/>
        <pt x="20" y="9" on="0"/>
        <pt x="20" y="35" on="1"/>
        <pt x="20" y="41" on="0"/>
        <pt x="22" y="65" on="0"/>
        <pt x="47" y="117" on="0"/>
        <pt x="50" y="117" on="1"/>
        <pt x="58" y="118" on="0"/>
        <pt x="53" y="109" on="1"/>
        <pt x="40" y="80" on="0"/>
        <pt x="40" y="48" on="0"/>
        <pt x="45" y="40" on="1"/>
        <pt x="58" y="17" on="0"/>
        <pt x="96" y="17" on="1"/>
        <pt x="215" y="17" on="0"/>
        <pt x="447" y="233" on="1"/>
        <pt x="333" y="239" on="0"/>
        <pt x="314" y="239" on="1"/>
        <pt x="238" y="239" on="0"/>
        <pt x="213" y="214" on="1"/>
        <pt x="195" y="196" on="0"/>
        <pt x="195" y="166" on="1"/>
        <pt x="195" y="158" on="0"/>
        <pt x="197" y="151" on="1"/>
        <pt x="182" y="154" on="0"/>
        <pt x="171" y="160" on="0"/>
        <pt x="169" y="167" on="1"/>
        <pt x="170" y="175" on="0"/>
        <pt x="166" y="184" on="0"/>
        <pt x="175" y="196" on="0"/>
        <pt x="178" y="203" on="0"/>
        <pt x="191" y="212" on="0"/>
        <pt x="198" y="217" on="0"/>
        <pt x="213" y="225" on="0"/>
        <pt x="221" y="228" on="0"/>
        <pt x="229" y="232" on="1"/>
        <pt x="312" y="268" on="0"/>
        <pt x="379" y="268" on="1"/>
        <pt x="420" y="268" on="0"/>
        <pt x="481" y="265" on="1"/>
        <pt x="547" y="329" on="0"/>
        <pt x="709" y="500" on="0"/>
        <pt x="788" y="521" on="1"/>
        <pt x="733" y="521" on="1"/>
        <pt x="509" y="521" on="0"/>
        <pt x="490" y="426" on="1"/>
        <pt x="489" y="419" on="0"/>
        <pt x="489" y="396" on="0"/>
        <pt x="501" y="389" on="1"/>
        <pt x="506" y="386" on="0"/>
        <pt x="488" y="378" on="0"/>
        <pt x="485" y="380" on="1"/>
        <pt x="475" y="387" on="0"/>
        <pt x="462" y="425" on="0"/>
        <pt x="462" y="432" on="1"/>
        <pt x="462" y="463" on="0"/>
        <pt x="497" y="505" on="0"/>
        <pt x="555" y="526" on="0"/>
        <pt x="603" y="539" on="0"/>
        <pt x="642" y="542" on="1"/>
        <pt x="697" y="545" on="0"/>
        <pt x="747" y="545" on="1"/>
        <pt x="860" y="545" on="1"/>
        <pt x="928" y="577" on="0"/>
        <pt x="957" y="577" on="1"/>
        <pt x="969" y="577" on="0"/>
        <pt x="975" y="566" on="0"/>
        <pt x="963" y="563" on="0"/>
        <pt x="948" y="563" on="0"/>
        <pt x="943" y="562" on="1"/>
        <pt x="930" y="561" on="0"/>
      </contour>
    </TTGlyph>
    <TTGlyph name="AE.roman" xMin="25" yMin="-6" xMax="797" yMax="535">
      <contour>
        <pt x="686" y="237" on="1"/>
        <pt x="686" y="271" on="0"/>
        <pt x="573" y="266" on="1"/>
        <pt x="560" y="266" on="0"/>
        <pt x="557" y="266" on="1"/>
        <pt x="535" y="266" on="1"/>
        <pt x="499" y="95" on="0"/>
        <pt x="499" y="50" on="1"/>
        <pt x="499" y="41" on="0"/>
        <pt x="504" y="36" on="1"/>
        <pt x="518" y="22" on="0"/>
        <pt x="676" y="22" on="0"/>
        <pt x="748" y="67" on="0"/>
        <pt x="769" y="114" on="1"/>
        <pt x="778" y="110" on="1"/>
        <pt x="770" y="97" on="0"/>
        <pt x="742" y="28" on="0"/>
        <pt x="714" y="-6" on="0"/>
        <pt x="693" y="-6" on="1"/>
        <pt x="483" y="7" on="1"/>
        <pt x="478" y="7" on="0"/>
        <pt x="317" y="-2" on="1"/>
        <pt x="326" y="14" on="1"/>
        <pt x="338" y="13" on="1"/>
        <pt x="364" y="13" on="0"/>
        <pt x="416" y="33" on="0"/>
        <pt x="437" y="81" on="0"/>
        <pt x="458" y="179" on="1"/>
        <pt x="260" y="179" on="1"/>
        <pt x="254" y="179" on="0"/>
        <pt x="250" y="173" on="1"/>
        <pt x="144" y="45" on="0"/>
        <pt x="144" y="32" on="1"/>
        <pt x="144" y="14" on="0"/>
        <pt x="203" y="14" on="1"/>
        <pt x="197" y="-2" on="1"/>
        <pt x="157" y="2" on="0"/>
        <pt x="57" y="2" on="0"/>
        <pt x="25" y="-2" on="1"/>
        <pt x="29" y="14" on="1"/>
        <pt x="77" y="20" on="0"/>
        <pt x="114" y="40" on="0"/>
        <pt x="141" y="75" on="1"/>
        <pt x="487" y="518" on="1"/>
        <pt x="473" y="520" on="0"/>
        <pt x="462" y="520" on="0"/>
        <pt x="450" y="519" on="0"/>
        <pt x="446" y="519" on="1"/>
        <pt x="456" y="535" on="1"/>
        <pt x="494" y="528" on="0"/>
        <pt x="563" y="528" on="1"/>
        <pt x="791" y="530" on="1"/>
        <pt x="797" y="530" on="0"/>
        <pt x="797" y="521" on="1"/>
        <pt x="756" y="419" on="1"/>
        <pt x="740" y="422" on="1"/>
        <pt x="762" y="464" on="0"/>
        <pt x="762" y="472" on="1"/>
        <pt x="762" y="488" on="0"/>
        <pt x="718" y="501" on="0"/>
        <pt x="635" y="501" on="0"/>
        <pt x="596" y="498" on="1"/>
        <pt x="574" y="451" on="0"/>
        <pt x="540" y="290" on="1"/>
        <pt x="710" y="292" on="1"/>
        <pt x="716" y="292" on="0"/>
        <pt x="716" y="284" on="0"/>
        <pt x="712" y="274" on="1"/>
        <pt x="700" y="245" on="0"/>
        <pt x="694" y="215" on="1"/>
        <pt x="677" y="211" on="1"/>
        <pt x="686" y="229" on="0"/>
      </contour>
      <contour>
        <pt x="281" y="206" on="1"/>
        <pt x="464" y="206" on="1"/>
        <pt x="498" y="365" on="0"/>
        <pt x="513" y="450" on="0"/>
        <pt x="513" y="498" on="0"/>
        <pt x="510" y="504" on="1"/>
        <pt x="278" y="209" on="0"/>
        <pt x="278" y="206" on="0"/>
      </contour>
    </TTGlyph>
    <TTGlyph name="Aacute" xMin="20" yMin="-25" xMax="974" yMax="725">
      <contour>
        <pt x="973" y="568" on="1"/>
        <pt x="973" y="563" on="0"/>
        <pt x="945" y="563" on="0"/>
        <pt x="940" y="562" on="1"/>
        <pt x="924" y="559" on="0"/>
        <pt x="905" y="538" on="1"/>
        <pt x="872" y="505" on="0"/>
        <pt x="730" y="256" on="0"/>
        <pt x="686" y="158" on="1"/>
        <pt x="686" y="157" on="0"/>
        <pt x="685" y="155" on="1"/>
        <pt x="649" y="72" on="0"/>
        <pt x="649" y="11" on="0"/>
        <pt x="669" y="11" on="1"/>
        <pt x="696" y="11" on="0"/>
        <pt x="775" y="85" on="0"/>
        <pt x="807" y="130" on="1"/>
        <pt x="812" y="138" on="0"/>
        <pt x="821" y="130" on="0"/>
        <pt x="815" y="122" on="1"/>
        <pt x="801" y="103" on="0"/>
        <pt x="793" y="93" on="0"/>
        <pt x="775" y="70" on="0"/>
        <pt x="761" y="55" on="0"/>
        <pt x="740" y="34" on="0"/>
        <pt x="731" y="26" on="1"/>
        <pt x="688" y="-9" on="0"/>
        <pt x="656" y="-9" on="1"/>
        <pt x="598" y="-9" on="0"/>
        <pt x="598" y="52" on="1"/>
        <pt x="598" y="98" on="0"/>
        <pt x="673" y="257" on="0"/>
        <pt x="800" y="489" on="0"/>
        <pt x="831" y="530" on="1"/>
        <pt x="806" y="529" on="0"/>
        <pt x="711" y="475" on="0"/>
        <pt x="651" y="413" on="0"/>
        <pt x="539" y="289" on="0"/>
        <pt x="515" y="263" on="1"/>
        <pt x="575" y="261" on="0"/>
        <pt x="648" y="261" on="0"/>
        <pt x="679" y="276" on="1"/>
        <pt x="673" y="260" on="0"/>
        <pt x="640" y="233" on="0"/>
        <pt x="585" y="230" on="0"/>
        <pt x="515" y="230" on="0"/>
        <pt x="484" y="231" on="1"/>
        <pt x="236" y="-25" on="0"/>
        <pt x="87" y="-25" on="1"/>
        <pt x="55" y="-25" on="0"/>
        <pt x="20" y="9" on="0"/>
        <pt x="20" y="35" on="1"/>
        <pt x="20" y="41" on="0"/>
        <pt x="22" y="65" on="0"/>
        <pt x="47" y="117" on="0"/>
        <pt x="50" y="117" on="1"/>
        <pt x="58" y="118" on="0"/>
        <pt x="53" y="109" on="1"/>
        <pt x="40" y="80" on="0"/>
        <pt x="40" y="48" on="0"/>
        <pt x="45" y="40" on="1"/>
        <pt x="58" y="17" on="0"/>
        <pt x="96" y="17" on="1"/>
        <pt x="215" y="17" on="0"/>
        <pt x="447" y="233" on="1"/>
        <pt x="333" y="239" on="0"/>
        <pt x="314" y="239" on="1"/>
        <pt x="238" y="239" on="0"/>
        <pt x="213" y="214" on="1"/>
        <pt x="195" y="196" on="0"/>
        <pt x="195" y="166" on="1"/>
        <pt x="195" y="158" on="0"/>
        <pt x="197" y="151" on="1"/>
        <pt x="182" y="154" on="0"/>
        <pt x="171" y="160" on="0"/>
        <pt x="169" y="167" on="1"/>
        <pt x="170" y="175" on="0"/>
        <pt x="166" y="184" on="0"/>
        <pt x="175" y="196" on="0"/>
        <pt x="178" y="203" on="0"/>
        <pt x="191" y="212" on="0"/>
        <pt x="198" y="217" on="0"/>
        <pt x="213" y="225" on="0"/>
        <pt x="221" y="228" on="0"/>
        <pt x="229" y="232" on="1"/>
        <pt x="312" y="268" on="0"/>
        <pt x="379" y="268" on="1"/>
        <pt x="420" y="268" on="0"/>
        <pt x="481" y="265" on="1"/>
        <pt x="547" y="329" on="0"/>
        <pt x="709" y="500" on="0"/>
        <pt x="788" y="521" on="1"/>
        <pt x="733" y="521" on="1"/>
        <pt x="509" y="521" on="0"/>
        <pt x="490" y="426" on="1"/>
        <pt x="489" y="419" on="0"/>
        <pt x="489" y="396" on="0"/>
        <pt x="501" y="389" on="1"/>
        <pt x="506" y="386" on="0"/>
        <pt x="488" y="378" on="0"/>
        <pt x="485" y="380" on="1"/>
        <pt x="475" y="387" on="0"/>
        <pt x="462" y="425" on="0"/>
        <pt x="462" y="432" on="1"/>
        <pt x="462" y="463" on="0"/>
        <pt x="497" y="505" on="0"/>
        <pt x="555" y="526" on="0"/>
        <pt x="603" y="539" on="0"/>
        <pt x="642" y="542" on="1"/>
        <pt x="697" y="545" on="0"/>
        <pt x="747" y="545" on="1"/>
        <pt x="856" y="545" on="1"/>
        <pt x="858" y="545" on="0"/>
        <pt x="857" y="544" on="1"/>
        <pt x="930" y="577" on="0"/>
        <pt x="949" y="577" on="1"/>
        <pt x="973" y="577" on="0"/>
      </contour>
      <contour>
        <pt x="966" y="725" on="1"/>
        <pt x="969" y="725" on="0"/>
        <pt x="969" y="698" on="0"/>
        <pt x="965" y="694" on="1"/>
        <pt x="960" y="685" on="0"/>
        <pt x="846" y="618" on="0"/>
        <pt x="834" y="616" on="1"/>
        <pt x="833" y="616" on="0"/>
        <pt x="835" y="623" on="1"/>
        <pt x="871" y="650" on="0"/>
        <pt x="957" y="725" on="0"/>
      </contour>
    </TTGlyph>
    <TTGlyph name="Abreve" xMin="20" yMin="-25" xMax="978" yMax="653">
      <contour>
        <pt x="640" y="233" on="0"/>
        <pt x="585" y="230" on="0"/>
        <pt x="515" y="230" on="0"/>
        <pt x="484" y="231" on="1"/>
        <pt x="236" y="-25" on="0"/>
        <pt x="87" y="-25" on="1"/>
        <pt x="55" y="-25" on="0"/>
        <pt x="20" y="9" on="0"/>
        <pt x="20" y="35" on="1"/>
        <pt x="20" y="41" on="0"/>
        <pt x="22" y="65" on="0"/>
        <pt x="47" y="117" on="0"/>
        <pt x="50" y="117" on="1"/>
        <pt x="58" y="118" on="0"/>
        <pt x="53" y="109" on="1"/>
        <pt x="40" y="80" on="0"/>
        <pt x="40" y="48" on="0"/>
        <pt x="45" y="40" on="1"/>
        <pt x="58" y="17" on="0"/>
        <pt x="96" y="17" on="1"/>
        <pt x="215" y="17" on="0"/>
        <pt x="447" y="233" on="1"/>
        <pt x="333" y="239" on="0"/>
        <pt x="314" y="239" on="1"/>
        <pt x="238" y="239" on="0"/>
        <pt x="213" y="214" on="1"/>
        <pt x="195" y="196" on="0"/>
        <pt x="195" y="166" on="1"/>
        <pt x="195" y="158" on="0"/>
        <pt x="197" y="151" on="1"/>
        <pt x="182" y="154" on="0"/>
        <pt x="171" y="160" on="0"/>
        <pt x="169" y="167" on="1"/>
        <pt x="170" y="175" on="0"/>
        <pt x="166" y="184" on="0"/>
        <pt x="175" y="196" on="0"/>
        <pt x="178" y="203" on="0"/>
        <pt x="191" y="212" on="0"/>
        <pt x="198" y="217" on="0"/>
        <pt x="213" y="225" on="0"/>
        <pt x="221" y="228" on="0"/>
        <pt x="229" y="232" on="1"/>
        <pt x="312" y="268" on="0"/>
        <pt x="379" y="268" on="1"/>
        <pt x="420" y="268" on="0"/>
        <pt x="481" y="265" on="1"/>
        <pt x="547" y="329" on="0"/>
        <pt x="709" y="500" on="0"/>
        <pt x="788" y="521" on="1"/>
        <pt x="733" y="521" on="1"/>
        <pt x="509" y="521" on="0"/>
        <pt x="490" y="426" on="1"/>
        <pt x="489" y="419" on="0"/>
        <pt x="489" y="396" on="0"/>
        <pt x="501" y="389" on="1"/>
        <pt x="506" y="386" on="0"/>
        <pt x="488" y="378" on="0"/>
        <pt x="485" y="380" on="1"/>
        <pt x="475" y="387" on="0"/>
        <pt x="462" y="425" on="0"/>
        <pt x="462" y="432" on="1"/>
        <pt x="462" y="463" on="0"/>
        <pt x="497" y="505" on="0"/>
        <pt x="555" y="526" on="0"/>
        <pt x="603" y="539" on="0"/>
        <pt x="642" y="542" on="1"/>
        <pt x="697" y="545" on="0"/>
        <pt x="747" y="545" on="1"/>
        <pt x="856" y="545" on="1"/>
        <pt x="858" y="545" on="0"/>
        <pt x="857" y="544" on="1"/>
        <pt x="930" y="577" on="0"/>
        <pt x="969" y="577" on="0"/>
        <pt x="975" y="566" on="0"/>
        <pt x="963" y="563" on="0"/>
        <pt x="945" y="563" on="0"/>
        <pt x="940" y="562" on="1"/>
        <pt x="924" y="559" on="0"/>
        <pt x="905" y="538" on="1"/>
        <pt x="872" y="505" on="0"/>
        <pt x="730" y="256" on="0"/>
        <pt x="686" y="158" on="1"/>
        <pt x="686" y="157" on="0"/>
        <pt x="685" y="155" on="1"/>
        <pt x="649" y="72" on="0"/>
        <pt x="649" y="11" on="0"/>
        <pt x="669" y="11" on="1"/>
        <pt x="696" y="11" on="0"/>
        <pt x="775" y="85" on="0"/>
        <pt x="807" y="130" on="1"/>
        <pt x="812" y="138" on="0"/>
        <pt x="821" y="130" on="0"/>
        <pt x="815" y="122" on="1"/>
        <pt x="801" y="103" on="0"/>
        <pt x="793" y="93" on="0"/>
        <pt x="775" y="70" on="0"/>
        <pt x="761" y="55" on="0"/>
        <pt x="740" y="34" on="0"/>
        <pt x="731" y="26" on="1"/>
        <pt x="688" y="-9" on="0"/>
        <pt x="656" y="-9" on="1"/>
        <pt x="598" y="-9" on="0"/>
        <pt x="598" y="52" on="1"/>
        <pt x="598" y="98" on="0"/>
        <pt x="673" y="257" on="0"/>
        <pt x="800" y="489" on="0"/>
        <pt x="831" y="530" on="1"/>
        <pt x="806" y="529" on="0"/>
        <pt x="711" y="475" on="0"/>
        <pt x="651" y="413" on="0"/>
        <pt x="539" y="289" on="0"/>
        <pt x="515" y="263" on="1"/>
        <pt x="575" y="261" on="0"/>
        <pt x="648" y="261" on="0"/>
        <pt x="679" y="276" on="1"/>
        <pt x="673" y="260" on="0"/>
      </contour>
      <contour>
        <pt x="869" y="601" on="1"/>
        <pt x="811" y="601" on="0"/>
        <pt x="811" y="633" on="1"/>
        <pt x="811" y="638" on="0"/>
        <pt x="819" y="653" on="0"/>
        <pt x="823" y="653" on="1"/>
        <pt x="838" y="653" on="1"/>
        <pt x="827" y="635" on="0"/>
        <pt x="854" y="616" on="0"/>
        <pt x="907" y="616" on="0"/>
        <pt x="962" y="649" on="1"/>
        <pt x="978" y="649" on="1"/>
        <pt x="963" y="631" on="0"/>
        <pt x="899" y="601" on="0"/>
      </contour>
    </TTGlyph>
    <TTGlyph name="Acircumflex" xMin="20" yMin="-25" xMax="986" yMax="707">
      <contour>
        <pt x="640" y="233" on="0"/>
        <pt x="585" y="230" on="0"/>
        <pt x="515" y="230" on="0"/>
        <pt x="484" y="231" on="1"/>
        <pt x="236" y="-25" on="0"/>
        <pt x="87" y="-25" on="1"/>
        <pt x="55" y="-25" on="0"/>
        <pt x="20" y="9" on="0"/>
        <pt x="20" y="35" on="1"/>
        <pt x="20" y="41" on="0"/>
        <pt x="22" y="65" on="0"/>
        <pt x="47" y="117" on="0"/>
        <pt x="50" y="117" on="1"/>
        <pt x="58" y="118" on="0"/>
        <pt x="53" y="109" on="1"/>
        <pt x="40" y="80" on="0"/>
        <pt x="40" y="48" on="0"/>
        <pt x="45" y="40" on="1"/>
        <pt x="58" y="17" on="0"/>
        <pt x="96" y="17" on="1"/>
        <pt x="215" y="17" on="0"/>
        <pt x="447" y="233" on="1"/>
        <pt x="333" y="239" on="0"/>
        <pt x="314" y="239" on="1"/>
        <pt x="238" y="239" on="0"/>
        <pt x="213" y="214" on="1"/>
        <pt x="195" y="196" on="0"/>
        <pt x="195" y="166" on="1"/>
        <pt x="195" y="158" on="0"/>
        <pt x="197" y="151" on="1"/>
        <pt x="182" y="154" on="0"/>
        <pt x="171" y="160" on="0"/>
        <pt x="169" y="167" on="1"/>
        <pt x="170" y="175" on="0"/>
        <pt x="166" y="184" on="0"/>
        <pt x="175" y="196" on="0"/>
        <pt x="178" y="203" on="0"/>
        <pt x="191" y="212" on="0"/>
        <pt x="198" y="217" on="0"/>
        <pt x="213" y="225" on="0"/>
        <pt x="221" y="228" on="0"/>
        <pt x="229" y="232" on="1"/>
        <pt x="312" y="268" on="0"/>
        <pt x="379" y="268" on="1"/>
        <pt x="420" y="268" on="0"/>
        <pt x="481" y="265" on="1"/>
        <pt x="547" y="329" on="0"/>
        <pt x="709" y="500" on="0"/>
        <pt x="788" y="521" on="1"/>
        <pt x="733" y="521" on="1"/>
        <pt x="509" y="521" on="0"/>
        <pt x="490" y="426" on="1"/>
        <pt x="489" y="419" on="0"/>
        <pt x="489" y="396" on="0"/>
        <pt x="501" y="389" on="1"/>
        <pt x="506" y="386" on="0"/>
        <pt x="488" y="378" on="0"/>
        <pt x="485" y="380" on="1"/>
        <pt x="475" y="387" on="0"/>
        <pt x="462" y="425" on="0"/>
        <pt x="462" y="432" on="1"/>
        <pt x="462" y="463" on="0"/>
        <pt x="497" y="505" on="0"/>
        <pt x="555" y="526" on="0"/>
        <pt x="603" y="539" on="0"/>
        <pt x="642" y="542" on="1"/>
        <pt x="697" y="545" on="0"/>
        <pt x="747" y="545" on="1"/>
        <pt x="856" y="545" on="1"/>
        <pt x="858" y="545" on="0"/>
        <pt x="857" y="544" on="1"/>
        <pt x="930" y="577" on="0"/>
        <pt x="969" y="577" on="0"/>
        <pt x="975" y="566" on="0"/>
        <pt x="963" y="563" on="0"/>
        <pt x="945" y="563" on="0"/>
        <pt x="940" y="562" on="1"/>
        <pt x="924" y="559" on="0"/>
        <pt x="905" y="538" on="1"/>
        <pt x="872" y="505" on="0"/>
        <pt x="730" y="256" on="0"/>
        <pt x="686" y="158" on="1"/>
        <pt x="686" y="157" on="0"/>
        <pt x="685" y="155" on="1"/>
        <pt x="649" y="72" on="0"/>
        <pt x="649" y="11" on="0"/>
        <pt x="669" y="11" on="1"/>
        <pt x="696" y="11" on="0"/>
        <pt x="775" y="85" on="0"/>
        <pt x="807" y="130" on="1"/>
        <pt x="812" y="138" on="0"/>
        <pt x="821" y="130" on="0"/>
        <pt x="815" y="122" on="1"/>
        <pt x="801" y="103" on="0"/>
        <pt x="793" y="93" on="0"/>
        <pt x="775" y="70" on="0"/>
        <pt x="761" y="55" on="0"/>
        <pt x="740" y="34" on="0"/>
        <pt x="731" y="26" on="1"/>
        <pt x="688" y="-9" on="0"/>
        <pt x="656" y="-9" on="1"/>
        <pt x="598" y="-9" on="0"/>
        <pt x="598" y="52" on="1"/>
        <pt x="598" y="98" on="0"/>
        <pt x="673" y="257" on="0"/>
        <pt x="800" y="489" on="0"/>
        <pt x="831" y="530" on="1"/>
        <pt x="806" y="529" on="0"/>
        <pt x="711" y="475" on="0"/>
        <pt x="651" y="413" on="0"/>
        <pt x="539" y="289" on="0"/>
        <pt x="515" y="263" on="1"/>
        <pt x="575" y="261" on="0"/>
        <pt x="648" y="261" on="0"/>
        <pt x="679" y="276" on="1"/>
        <pt x="673" y="260" on="0"/>
      </contour>
      <contour>
        <pt x="961" y="616" on="1"/>
        <pt x="938" y="616" on="0"/>
        <pt x="884" y="681" on="1"/>
        <pt x="884" y="684" on="0"/>
        <pt x="878" y="681" on="1"/>
        <pt x="867" y="671" on="0"/>
        <pt x="803" y="628" on="0"/>
        <pt x="784" y="621" on="0"/>
        <pt x="775" y="623" on="1"/>
        <pt x="848" y="672" on="0"/>
        <pt x="888" y="707" on="1"/>
        <pt x="900" y="707" on="1"/>
        <pt x="924" y="667" on="0"/>
        <pt x="968" y="637" on="1"/>
        <pt x="981" y="629" on="0"/>
        <pt x="986" y="629" on="1"/>
        <pt x="986" y="626" on="1"/>
      </contour>
    </TTGlyph>
    <TTGlyph name="Adieresis" xMin="20" yMin="-25" xMax="974" yMax="699">
      <contour>
        <pt x="973" y="568" on="1"/>
        <pt x="973" y="563" on="0"/>
        <pt x="945" y="563" on="0"/>
        <pt x="940" y="562" on="1"/>
        <pt x="924" y="559" on="0"/>
        <pt x="905" y="538" on="1"/>
        <pt x="872" y="505" on="0"/>
        <pt x="730" y="256" on="0"/>
        <pt x="686" y="158" on="1"/>
        <pt x="686" y="157" on="0"/>
        <pt x="685" y="155" on="1"/>
        <pt x="649" y="72" on="0"/>
        <pt x="649" y="11" on="0"/>
        <pt x="669" y="11" on="1"/>
        <pt x="696" y="11" on="0"/>
        <pt x="775" y="85" on="0"/>
        <pt x="807" y="130" on="1"/>
        <pt x="812" y="138" on="0"/>
        <pt x="821" y="130" on="0"/>
        <pt x="815" y="122" on="1"/>
        <pt x="801" y="103" on="0"/>
        <pt x="793" y="93" on="0"/>
        <pt x="775" y="70" on="0"/>
        <pt x="761" y="55" on="0"/>
        <pt x="740" y="34" on="0"/>
        <pt x="731" y="26" on="1"/>
        <pt x="688" y="-9" on="0"/>
        <pt x="656" y="-9" on="1"/>
        <pt x="598" y="-9" on="0"/>
        <pt x="598" y="52" on="1"/>
        <pt x="598" y="98" on="0"/>
        <pt x="673" y="257" on="0"/>
        <pt x="800" y="489" on="0"/>
        <pt x="831" y="530" on="1"/>
        <pt x="806" y="529" on="0"/>
        <pt x="711" y="475" on="0"/>
        <pt x="651" y="413" on="0"/>
        <pt x="539" y="289" on="0"/>
        <pt x="515" y="263" on="1"/>
        <pt x="575" y="261" on="0"/>
        <pt x="648" y="261" on="0"/>
        <pt x="679" y="276" on="1"/>
        <pt x="673" y="260" on="0"/>
        <pt x="640" y="233" on="0"/>
        <pt x="585" y="230" on="0"/>
        <pt x="515" y="230" on="0"/>
        <pt x="484" y="231" on="1"/>
        <pt x="236" y="-25" on="0"/>
        <pt x="87" y="-25" on="1"/>
        <pt x="55" y="-25" on="0"/>
        <pt x="20" y="9" on="0"/>
        <pt x="20" y="35" on="1"/>
        <pt x="20" y="41" on="0"/>
        <pt x="22" y="65" on="0"/>
        <pt x="47" y="117" on="0"/>
        <pt x="50" y="117" on="1"/>
        <pt x="58" y="118" on="0"/>
        <pt x="53" y="109" on="1"/>
        <pt x="40" y="80" on="0"/>
        <pt x="40" y="48" on="0"/>
        <pt x="45" y="40" on="1"/>
        <pt x="58" y="17" on="0"/>
        <pt x="96" y="17" on="1"/>
        <pt x="215" y="17" on="0"/>
        <pt x="447" y="233" on="1"/>
        <pt x="333" y="239" on="0"/>
        <pt x="314" y="239" on="1"/>
        <pt x="238" y="239" on="0"/>
        <pt x="213" y="214" on="1"/>
        <pt x="195" y="196" on="0"/>
        <pt x="195" y="166" on="1"/>
        <pt x="195" y="158" on="0"/>
        <pt x="197" y="151" on="1"/>
        <pt x="182" y="154" on="0"/>
        <pt x="171" y="160" on="0"/>
        <pt x="169" y="167" on="1"/>
        <pt x="170" y="175" on="0"/>
        <pt x="166" y="184" on="0"/>
        <pt x="175" y="196" on="0"/>
        <pt x="178" y="203" on="0"/>
        <pt x="191" y="212" on="0"/>
        <pt x="198" y="217" on="0"/>
        <pt x="213" y="225" on="0"/>
        <pt x="221" y="228" on="0"/>
        <pt x="229" y="232" on="1"/>
        <pt x="312" y="268" on="0"/>
        <pt x="379" y="268" on="1"/>
        <pt x="420" y="268" on="0"/>
        <pt x="481" y="265" on="1"/>
        <pt x="547" y="329" on="0"/>
        <pt x="709" y="500" on="0"/>
        <pt x="788" y="521" on="1"/>
        <pt x="733" y="521" on="1"/>
        <pt x="509" y="521" on="0"/>
        <pt x="490" y="426" on="1"/>
        <pt x="489" y="419" on="0"/>
        <pt x="489" y="396" on="0"/>
        <pt x="501" y="389" on="1"/>
        <pt x="506" y="386" on="0"/>
        <pt x="488" y="378" on="0"/>
        <pt x="485" y="380" on="1"/>
        <pt x="475" y="387" on="0"/>
        <pt x="462" y="425" on="0"/>
        <pt x="462" y="432" on="1"/>
        <pt x="462" y="463" on="0"/>
        <pt x="497" y="505" on="0"/>
        <pt x="555" y="526" on="0"/>
        <pt x="603" y="539" on="0"/>
        <pt x="642" y="542" on="1"/>
        <pt x="697" y="545" on="0"/>
        <pt x="747" y="545" on="1"/>
        <pt x="856" y="545" on="1"/>
        <pt x="858" y="545" on="0"/>
        <pt x="857" y="544" on="1"/>
        <pt x="930" y="577" on="0"/>
        <pt x="949" y="577" on="1"/>
        <pt x="973" y="577" on="0"/>
      </contour>
      <contour>
        <pt x="920" y="650" on="1"/>
        <pt x="900" y="650" on="0"/>
        <pt x="883" y="672" on="1"/>
        <pt x="883" y="674" on="0"/>
        <pt x="893" y="681" on="0"/>
        <pt x="901" y="687" on="0"/>
        <pt x="909" y="692" on="0"/>
        <pt x="912" y="694" on="1"/>
        <pt x="920" y="698" on="0"/>
        <pt x="922" y="698" on="1"/>
        <pt x="942" y="686" on="0"/>
        <pt x="954" y="686" on="0"/>
        <pt x="963" y="688" on="0"/>
        <pt x="963" y="683" on="1"/>
        <pt x="962" y="679" on="0"/>
        <pt x="957" y="673" on="1"/>
        <pt x="929" y="650" on="0"/>
      </contour>
      <contour>
        <pt x="804" y="650" on="1"/>
        <pt x="767" y="650" on="0"/>
        <pt x="767" y="673" on="1"/>
        <pt x="767" y="678" on="0"/>
        <pt x="804" y="698" on="0"/>
        <pt x="806" y="698" on="0"/>
        <pt x="826" y="686" on="0"/>
        <pt x="838" y="686" on="0"/>
        <pt x="847" y="688" on="0"/>
        <pt x="847" y="683" on="1"/>
        <pt x="846" y="679" on="0"/>
        <pt x="841" y="673" on="1"/>
        <pt x="813" y="650" on="0"/>
      </contour>
    </TTGlyph>
    <TTGlyph name="Agrave" xMin="20" yMin="-25" xMax="974" yMax="725">
      <contour>
        <pt x="973" y="568" on="1"/>
        <pt x="973" y="563" on="0"/>
        <pt x="945" y="563" on="0"/>
        <pt x="940" y="562" on="1"/>
        <pt x="924" y="559" on="0"/>
        <pt x="905" y="538" on="1"/>
        <pt x="872" y="505" on="0"/>
        <pt x="730" y="256" on="0"/>
        <pt x="686" y="158" on="1"/>
        <pt x="686" y="157" on="0"/>
        <pt x="685" y="155" on="1"/>
        <pt x="649" y="72" on="0"/>
        <pt x="649" y="11" on="0"/>
        <pt x="669" y="11" on="1"/>
        <pt x="696" y="11" on="0"/>
        <pt x="775" y="85" on="0"/>
        <pt x="807" y="130" on="1"/>
        <pt x="812" y="138" on="0"/>
        <pt x="821" y="130" on="0"/>
        <pt x="815" y="122" on="1"/>
        <pt x="801" y="103" on="0"/>
        <pt x="793" y="93" on="0"/>
        <pt x="775" y="70" on="0"/>
        <pt x="761" y="55" on="0"/>
        <pt x="740" y="34" on="0"/>
        <pt x="731" y="26" on="1"/>
        <pt x="688" y="-9" on="0"/>
        <pt x="656" y="-9" on="1"/>
        <pt x="598" y="-9" on="0"/>
        <pt x="598" y="52" on="1"/>
        <pt x="598" y="98" on="0"/>
        <pt x="673" y="257" on="0"/>
        <pt x="800" y="489" on="0"/>
        <pt x="831" y="530" on="1"/>
        <pt x="806" y="529" on="0"/>
        <pt x="711" y="475" on="0"/>
        <pt x="651" y="413" on="0"/>
        <pt x="539" y="289" on="0"/>
        <pt x="515" y="263" on="1"/>
        <pt x="575" y="261" on="0"/>
        <pt x="648" y="261" on="0"/>
        <pt x="679" y="276" on="1"/>
        <pt x="673" y="260" on="0"/>
        <pt x="640" y="233" on="0"/>
        <pt x="585" y="230" on="0"/>
        <pt x="515" y="230" on="0"/>
        <pt x="484" y="231" on="1"/>
        <pt x="236" y="-25" on="0"/>
        <pt x="87" y="-25" on="1"/>
        <pt x="55" y="-25" on="0"/>
        <pt x="20" y="9" on="0"/>
        <pt x="20" y="35" on="1"/>
        <pt x="20" y="41" on="0"/>
        <pt x="22" y="65" on="0"/>
        <pt x="47" y="117" on="0"/>
        <pt x="50" y="117" on="1"/>
        <pt x="58" y="118" on="0"/>
        <pt x="53" y="109" on="1"/>
        <pt x="40" y="80" on="0"/>
        <pt x="40" y="48" on="0"/>
        <pt x="45" y="40" on="1"/>
        <pt x="58" y="17" on="0"/>
        <pt x="96" y="17" on="1"/>
        <pt x="215" y="17" on="0"/>
        <pt x="447" y="233" on="1"/>
        <pt x="333" y="239" on="0"/>
        <pt x="314" y="239" on="1"/>
        <pt x="238" y="239" on="0"/>
        <pt x="213" y="214" on="1"/>
        <pt x="195" y="196" on="0"/>
        <pt x="195" y="166" on="1"/>
        <pt x="195" y="158" on="0"/>
        <pt x="197" y="151" on="1"/>
        <pt x="182" y="154" on="0"/>
        <pt x="171" y="160" on="0"/>
        <pt x="169" y="167" on="1"/>
        <pt x="170" y="175" on="0"/>
        <pt x="166" y="184" on="0"/>
        <pt x="175" y="196" on="0"/>
        <pt x="178" y="203" on="0"/>
        <pt x="191" y="212" on="0"/>
        <pt x="198" y="217" on="0"/>
        <pt x="213" y="225" on="0"/>
        <pt x="221" y="228" on="0"/>
        <pt x="229" y="232" on="1"/>
        <pt x="312" y="268" on="0"/>
        <pt x="379" y="268" on="1"/>
        <pt x="420" y="268" on="0"/>
        <pt x="481" y="265" on="1"/>
        <pt x="547" y="329" on="0"/>
        <pt x="709" y="500" on="0"/>
        <pt x="788" y="521" on="1"/>
        <pt x="733" y="521" on="1"/>
        <pt x="509" y="521" on="0"/>
        <pt x="490" y="426" on="1"/>
        <pt x="489" y="419" on="0"/>
        <pt x="489" y="396" on="0"/>
        <pt x="501" y="389" on="1"/>
        <pt x="506" y="386" on="0"/>
        <pt x="488" y="378" on="0"/>
        <pt x="485" y="380" on="1"/>
        <pt x="475" y="387" on="0"/>
        <pt x="462" y="425" on="0"/>
        <pt x="462" y="432" on="1"/>
        <pt x="462" y="463" on="0"/>
        <pt x="497" y="505" on="0"/>
        <pt x="555" y="526" on="0"/>
        <pt x="603" y="539" on="0"/>
        <pt x="642" y="542" on="1"/>
        <pt x="697" y="545" on="0"/>
        <pt x="747" y="545" on="1"/>
        <pt x="856" y="545" on="1"/>
        <pt x="858" y="545" on="0"/>
        <pt x="857" y="544" on="1"/>
        <pt x="930" y="577" on="0"/>
        <pt x="949" y="577" on="1"/>
        <pt x="973" y="577" on="0"/>
      </contour>
      <contour>
        <pt x="759" y="694" on="1"/>
        <pt x="755" y="698" on="0"/>
        <pt x="755" y="725" on="0"/>
        <pt x="758" y="725" on="1"/>
        <pt x="767" y="725" on="0"/>
        <pt x="853" y="650" on="0"/>
        <pt x="889" y="623" on="1"/>
        <pt x="889" y="623" on="0"/>
        <pt x="890" y="616" on="1"/>
        <pt x="878" y="618" on="0"/>
        <pt x="764" y="685" on="0"/>
      </contour>
    </TTGlyph>
    <TTGlyph name="Amacron" xMin="20" yMin="-25" xMax="1001" yMax="648">
      <contour>
        <pt x="640" y="233" on="0"/>
        <pt x="585" y="230" on="0"/>
        <pt x="515" y="230" on="0"/>
        <pt x="484" y="231" on="1"/>
        <pt x="236" y="-25" on="0"/>
        <pt x="87" y="-25" on="1"/>
        <pt x="55" y="-25" on="0"/>
        <pt x="20" y="9" on="0"/>
        <pt x="20" y="35" on="1"/>
        <pt x="20" y="41" on="0"/>
        <pt x="22" y="65" on="0"/>
        <pt x="47" y="117" on="0"/>
        <pt x="50" y="117" on="1"/>
        <pt x="58" y="118" on="0"/>
        <pt x="53" y="109" on="1"/>
        <pt x="40" y="80" on="0"/>
        <pt x="40" y="48" on="0"/>
        <pt x="45" y="40" on="1"/>
        <pt x="58" y="17" on="0"/>
        <pt x="96" y="17" on="1"/>
        <pt x="215" y="17" on="0"/>
        <pt x="447" y="233" on="1"/>
        <pt x="333" y="239" on="0"/>
        <pt x="314" y="239" on="1"/>
        <pt x="238" y="239" on="0"/>
        <pt x="213" y="214" on="1"/>
        <pt x="195" y="196" on="0"/>
        <pt x="195" y="166" on="1"/>
        <pt x="195" y="158" on="0"/>
        <pt x="197" y="151" on="1"/>
        <pt x="182" y="154" on="0"/>
        <pt x="171" y="160" on="0"/>
        <pt x="169" y="167" on="1"/>
        <pt x="170" y="175" on="0"/>
        <pt x="166" y="184" on="0"/>
        <pt x="175" y="196" on="0"/>
        <pt x="178" y="203" on="0"/>
        <pt x="191" y="212" on="0"/>
        <pt x="198" y="217" on="0"/>
        <pt x="213" y="225" on="0"/>
        <pt x="221" y="228" on="0"/>
        <pt x="229" y="232" on="1"/>
        <pt x="312" y="268" on="0"/>
        <pt x="379" y="268" on="1"/>
        <pt x="420" y="268" on="0"/>
        <pt x="481" y="265" on="1"/>
        <pt x="547" y="329" on="0"/>
        <pt x="709" y="500" on="0"/>
        <pt x="788" y="521" on="1"/>
        <pt x="733" y="521" on="1"/>
        <pt x="509" y="521" on="0"/>
        <pt x="490" y="426" on="1"/>
        <pt x="489" y="419" on="0"/>
        <pt x="489" y="396" on="0"/>
        <pt x="501" y="389" on="1"/>
        <pt x="506" y="386" on="0"/>
        <pt x="488" y="378" on="0"/>
        <pt x="485" y="380" on="1"/>
        <pt x="475" y="387" on="0"/>
        <pt x="462" y="425" on="0"/>
        <pt x="462" y="432" on="1"/>
        <pt x="462" y="463" on="0"/>
        <pt x="497" y="505" on="0"/>
        <pt x="555" y="526" on="0"/>
        <pt x="603" y="539" on="0"/>
        <pt x="642" y="542" on="1"/>
        <pt x="697" y="545" on="0"/>
        <pt x="747" y="545" on="1"/>
        <pt x="856" y="545" on="1"/>
        <pt x="858" y="545" on="0"/>
        <pt x="857" y="544" on="1"/>
        <pt x="930" y="577" on="0"/>
        <pt x="969" y="577" on="0"/>
        <pt x="975" y="566" on="0"/>
        <pt x="963" y="563" on="0"/>
        <pt x="945" y="563" on="0"/>
        <pt x="940" y="562" on="1"/>
        <pt x="924" y="559" on="0"/>
        <pt x="905" y="538" on="1"/>
        <pt x="872" y="505" on="0"/>
        <pt x="730" y="256" on="0"/>
        <pt x="686" y="158" on="1"/>
        <pt x="686" y="157" on="0"/>
        <pt x="685" y="155" on="1"/>
        <pt x="649" y="72" on="0"/>
        <pt x="649" y="11" on="0"/>
        <pt x="669" y="11" on="1"/>
        <pt x="696" y="11" on="0"/>
        <pt x="775" y="85" on="0"/>
        <pt x="807" y="130" on="1"/>
        <pt x="812" y="138" on="0"/>
        <pt x="821" y="130" on="0"/>
        <pt x="815" y="122" on="1"/>
        <pt x="801" y="103" on="0"/>
        <pt x="793" y="93" on="0"/>
        <pt x="775" y="70" on="0"/>
        <pt x="761" y="55" on="0"/>
        <pt x="740" y="34" on="0"/>
        <pt x="731" y="26" on="1"/>
        <pt x="688" y="-9" on="0"/>
        <pt x="656" y="-9" on="1"/>
        <pt x="598" y="-9" on="0"/>
        <pt x="598" y="52" on="1"/>
        <pt x="598" y="98" on="0"/>
        <pt x="673" y="257" on="0"/>
        <pt x="800" y="489" on="0"/>
        <pt x="831" y="530" on="1"/>
        <pt x="806" y="529" on="0"/>
        <pt x="711" y="475" on="0"/>
        <pt x="651" y="413" on="0"/>
        <pt x="539" y="289" on="0"/>
        <pt x="515" y="263" on="1"/>
        <pt x="575" y="261" on="0"/>
        <pt x="648" y="261" on="0"/>
        <pt x="679" y="276" on="1"/>
        <pt x="673" y="260" on="0"/>
      </contour>
      <contour>
        <pt x="995" y="632" on="1"/>
        <pt x="841" y="623" on="1"/>
        <pt x="837" y="623" on="0"/>
        <pt x="832" y="630" on="1"/>
        <pt x="825" y="638" on="0"/>
        <pt x="828" y="643" on="1"/>
        <pt x="847" y="648" on="0"/>
        <pt x="912" y="648" on="1"/>
        <pt x="983" y="648" on="0"/>
        <pt x="1001" y="638" on="1"/>
        <pt x="1002" y="638" on="0"/>
        <pt x="1000" y="632" on="0"/>
      </contour>
    </TTGlyph>
    <TTGlyph name="Aogonek" xMin="20" yMin="-179" xMax="974" yMax="577">
      <contour>
        <pt x="973" y="568" on="1"/>
        <pt x="973" y="563" on="0"/>
        <pt x="945" y="563" on="0"/>
        <pt x="940" y="562" on="1"/>
        <pt x="924" y="559" on="0"/>
        <pt x="905" y="538" on="1"/>
        <pt x="872" y="505" on="0"/>
        <pt x="730" y="256" on="0"/>
        <pt x="686" y="158" on="1"/>
        <pt x="686" y="157" on="0"/>
        <pt x="685" y="155" on="1"/>
        <pt x="649" y="72" on="0"/>
        <pt x="649" y="11" on="0"/>
        <pt x="669" y="11" on="1"/>
        <pt x="696" y="11" on="0"/>
        <pt x="775" y="85" on="0"/>
        <pt x="807" y="130" on="1"/>
        <pt x="812" y="138" on="0"/>
        <pt x="821" y="130" on="0"/>
        <pt x="815" y="122" on="1"/>
        <pt x="801" y="103" on="0"/>
        <pt x="793" y="93" on="0"/>
        <pt x="775" y="70" on="0"/>
        <pt x="761" y="55" on="0"/>
        <pt x="740" y="34" on="0"/>
        <pt x="731" y="26" on="1"/>
        <pt x="692" y="-6" on="0"/>
        <pt x="659" y="-8" on="1"/>
        <pt x="642" y="-23" on="0"/>
        <pt x="616" y="-90" on="0"/>
        <pt x="616" y="-141" on="0"/>
        <pt x="633" y="-141" on="1"/>
        <pt x="648" y="-141" on="0"/>
        <pt x="681" y="-115" on="0"/>
        <pt x="713" y="-85" on="0"/>
        <pt x="718" y="-81" on="1"/>
        <pt x="718" y="-88" on="1"/>
        <pt x="713" y="-101" on="1"/>
        <pt x="681" y="-146" on="0"/>
        <pt x="619" y="-172" on="1"/>
        <pt x="604" y="-178" on="0"/>
        <pt x="593" y="-178" on="1"/>
        <pt x="569" y="-178" on="0"/>
        <pt x="569" y="-117" on="0"/>
        <pt x="617" y="-28" on="0"/>
        <pt x="640" y="-8" on="1"/>
        <pt x="598" y="-2" on="0"/>
        <pt x="598" y="98" on="0"/>
        <pt x="673" y="257" on="0"/>
        <pt x="800" y="489" on="0"/>
        <pt x="831" y="530" on="1"/>
        <pt x="806" y="529" on="0"/>
        <pt x="711" y="475" on="0"/>
        <pt x="651" y="413" on="0"/>
        <pt x="539" y="289" on="0"/>
        <pt x="515" y="263" on="1"/>
        <pt x="575" y="261" on="0"/>
        <pt x="648" y="261" on="0"/>
        <pt x="679" y="276" on="1"/>
        <pt x="673" y="260" on="0"/>
        <pt x="640" y="233" on="0"/>
        <pt x="585" y="230" on="0"/>
        <pt x="515" y="230" on="0"/>
        <pt x="484" y="231" on="1"/>
        <pt x="236" y="-25" on="0"/>
        <pt x="87" y="-25" on="1"/>
        <pt x="55" y="-25" on="0"/>
        <pt x="20" y="9" on="0"/>
        <pt x="20" y="35" on="1"/>
        <pt x="20" y="41" on="0"/>
        <pt x="22" y="65" on="0"/>
        <pt x="47" y="117" on="0"/>
        <pt x="50" y="117" on="1"/>
        <pt x="58" y="118" on="0"/>
        <pt x="53" y="109" on="1"/>
        <pt x="40" y="80" on="0"/>
        <pt x="40" y="48" on="0"/>
        <pt x="45" y="40" on="1"/>
        <pt x="58" y="17" on="0"/>
        <pt x="96" y="17" on="1"/>
        <pt x="215" y="17" on="0"/>
        <pt x="447" y="233" on="1"/>
        <pt x="333" y="239" on="0"/>
        <pt x="314" y="239" on="1"/>
        <pt x="238" y="239" on="0"/>
        <pt x="213" y="214" on="1"/>
        <pt x="195" y="196" on="0"/>
        <pt x="195" y="166" on="1"/>
        <pt x="195" y="158" on="0"/>
        <pt x="197" y="151" on="1"/>
        <pt x="182" y="154" on="0"/>
        <pt x="171" y="160" on="0"/>
        <pt x="169" y="167" on="1"/>
        <pt x="170" y="175" on="0"/>
        <pt x="166" y="184" on="0"/>
        <pt x="175" y="196" on="0"/>
        <pt x="178" y="203" on="0"/>
        <pt x="191" y="212" on="0"/>
        <pt x="198" y="217" on="0"/>
        <pt x="213" y="225" on="0"/>
        <pt x="221" y="228" on="0"/>
        <pt x="229" y="232" on="1"/>
        <pt x="312" y="268" on="0"/>
        <pt x="379" y="268" on="1"/>
        <pt x="420" y="268" on="0"/>
        <pt x="481" y="265" on="1"/>
        <pt x="547" y="329" on="0"/>
        <pt x="709" y="500" on="0"/>
        <pt x="788" y="521" on="1"/>
        <pt x="733" y="521" on="1"/>
        <pt x="509" y="521" on="0"/>
        <pt x="490" y="426" on="1"/>
        <pt x="489" y="419" on="0"/>
        <pt x="489" y="396" on="0"/>
        <pt x="501" y="389" on="1"/>
        <pt x="506" y="386" on="0"/>
        <pt x="488" y="378" on="0"/>
        <pt x="485" y="380" on="1"/>
        <pt x="475" y="387" on="0"/>
        <pt x="462" y="425" on="0"/>
        <pt x="462" y="432" on="1"/>
        <pt x="462" y="463" on="0"/>
        <pt x="497" y="505" on="0"/>
        <pt x="555" y="526" on="0"/>
        <pt x="603" y="539" on="0"/>
        <pt x="642" y="542" on="1"/>
        <pt x="697" y="545" on="0"/>
        <pt x="747" y="545" on="1"/>
        <pt x="856" y="545" on="1"/>
        <pt x="858" y="545" on="0"/>
        <pt x="857" y="544" on="1"/>
        <pt x="930" y="577" on="0"/>
        <pt x="949" y="577" on="1"/>
        <pt x="973" y="577" on="0"/>
      </contour>
    </TTGlyph>
    <TTGlyph name="Aring" xMin="20" yMin="-25" xMax="983" yMax="727">
      <contour>
        <pt x="640" y="233" on="0"/>
        <pt x="585" y="230" on="0"/>
        <pt x="515" y="230" on="0"/>
        <pt x="484" y="231" on="1"/>
        <pt x="236" y="-25" on="0"/>
        <pt x="87" y="-25" on="1"/>
        <pt x="55" y="-25" on="0"/>
        <pt x="20" y="9" on="0"/>
        <pt x="20" y="35" on="1"/>
        <pt x="20" y="41" on="0"/>
        <pt x="22" y="65" on="0"/>
        <pt x="47" y="117" on="0"/>
        <pt x="50" y="117" on="1"/>
        <pt x="58" y="118" on="0"/>
        <pt x="53" y="109" on="1"/>
        <pt x="40" y="80" on="0"/>
        <pt x="40" y="48" on="0"/>
        <pt x="45" y="40" on="1"/>
        <pt x="58" y="17" on="0"/>
        <pt x="96" y="17" on="1"/>
        <pt x="215" y="17" on="0"/>
        <pt x="447" y="233" on="1"/>
        <pt x="333" y="239" on="0"/>
        <pt x="314" y="239" on="1"/>
        <pt x="238" y="239" on="0"/>
        <pt x="213" y="214" on="1"/>
        <pt x="195" y="196" on="0"/>
        <pt x="195" y="166" on="1"/>
        <pt x="195" y="158" on="0"/>
        <pt x="197" y="151" on="1"/>
        <pt x="182" y="154" on="0"/>
        <pt x="171" y="160" on="0"/>
        <pt x="169" y="167" on="1"/>
        <pt x="170" y="175" on="0"/>
        <pt x="166" y="184" on="0"/>
        <pt x="175" y="196" on="0"/>
        <pt x="178" y="203" on="0"/>
        <pt x="191" y="212" on="0"/>
        <pt x="198" y="217" on="0"/>
        <pt x="213" y="225" on="0"/>
        <pt x="221" y="228" on="0"/>
        <pt x="229" y="232" on="1"/>
        <pt x="312" y="268" on="0"/>
        <pt x="379" y="268" on="1"/>
        <pt x="420" y="268" on="0"/>
        <pt x="481" y="265" on="1"/>
        <pt x="547" y="329" on="0"/>
        <pt x="709" y="500" on="0"/>
        <pt x="788" y="521" on="1"/>
        <pt x="733" y="521" on="1"/>
        <pt x="509" y="521" on="0"/>
        <pt x="490" y="426" on="1"/>
        <pt x="489" y="419" on="0"/>
        <pt x="489" y="396" on="0"/>
        <pt x="501" y="389" on="1"/>
        <pt x="506" y="386" on="0"/>
        <pt x="488" y="378" on="0"/>
        <pt x="485" y="380" on="1"/>
        <pt x="475" y="387" on="0"/>
        <pt x="462" y="425" on="0"/>
        <pt x="462" y="432" on="1"/>
        <pt x="462" y="463" on="0"/>
        <pt x="497" y="505" on="0"/>
        <pt x="555" y="526" on="0"/>
        <pt x="603" y="539" on="0"/>
        <pt x="642" y="542" on="1"/>
        <pt x="697" y="545" on="0"/>
        <pt x="747" y="545" on="1"/>
        <pt x="856" y="545" on="1"/>
        <pt x="858" y="545" on="0"/>
        <pt x="857" y="544" on="1"/>
        <pt x="930" y="577" on="0"/>
        <pt x="969" y="577" on="0"/>
        <pt x="975" y="566" on="0"/>
        <pt x="963" y="563" on="0"/>
        <pt x="945" y="563" on="0"/>
        <pt x="940" y="562" on="1"/>
        <pt x="924" y="559" on="0"/>
        <pt x="905" y="538" on="1"/>
        <pt x="872" y="505" on="0"/>
        <pt x="730" y="256" on="0"/>
        <pt x="686" y="158" on="1"/>
        <pt x="686" y="157" on="0"/>
        <pt x="685" y="155" on="1"/>
        <pt x="649" y="72" on="0"/>
        <pt x="649" y="11" on="0"/>
        <pt x="669" y="11" on="1"/>
        <pt x="696" y="11" on="0"/>
        <pt x="775" y="85" on="0"/>
        <pt x="807" y="130" on="1"/>
        <pt x="812" y="138" on="0"/>
        <pt x="821" y="130" on="0"/>
        <pt x="815" y="122" on="1"/>
        <pt x="801" y="103" on="0"/>
        <pt x="793" y="93" on="0"/>
        <pt x="775" y="70" on="0"/>
        <pt x="761" y="55" on="0"/>
        <pt x="740" y="34" on="0"/>
        <pt x="731" y="26" on="1"/>
        <pt x="688" y="-9" on="0"/>
        <pt x="656" y="-9" on="1"/>
        <pt x="598" y="-9" on="0"/>
        <pt x="598" y="52" on="1"/>
        <pt x="598" y="98" on="0"/>
        <pt x="673" y="257" on="0"/>
        <pt x="800" y="489" on="0"/>
        <pt x="831" y="530" on="1"/>
        <pt x="806" y="529" on="0"/>
        <pt x="711" y="475" on="0"/>
        <pt x="651" y="413" on="0"/>
        <pt x="539" y="289" on="0"/>
        <pt x="515" y="263" on="1"/>
        <pt x="575" y="261" on="0"/>
        <pt x="648" y="261" on="0"/>
        <pt x="679" y="276" on="1"/>
        <pt x="673" y="260" on="0"/>
      </contour>
      <contour>
        <pt x="900" y="614" on="1"/>
        <pt x="862" y="614" on="0"/>
        <pt x="862" y="639" on="1"/>
        <pt x="862" y="654" on="0"/>
        <pt x="891" y="698" on="0"/>
        <pt x="905" y="701" on="1"/>
        <pt x="922" y="727" on="0"/>
        <pt x="952" y="727" on="1"/>
        <pt x="969" y="727" on="0"/>
        <pt x="983" y="705" on="0"/>
        <pt x="983" y="698" on="1"/>
        <pt x="983" y="664" on="0"/>
        <pt x="922" y="614" on="0"/>
      </contour>
      <contour>
        <pt x="948" y="712" on="1"/>
        <pt x="938" y="712" on="0"/>
        <pt x="922" y="702" on="1"/>
        <pt x="930" y="698" on="1"/>
        <pt x="926" y="692" on="0"/>
        <pt x="893" y="655" on="0"/>
        <pt x="893" y="629" on="0"/>
        <pt x="904" y="629" on="1"/>
        <pt x="924" y="629" on="0"/>
        <pt x="942" y="648" on="1"/>
        <pt x="963" y="670" on="0"/>
        <pt x="963" y="712" on="0"/>
      </contour>
    </TTGlyph>
    <TTGlyph name="Atilde" xMin="20" yMin="-25" xMax="978" yMax="682">
      <contour>
        <pt x="640" y="233" on="0"/>
        <pt x="585" y="230" on="0"/>
        <pt x="515" y="230" on="0"/>
        <pt x="484" y="231" on="1"/>
        <pt x="236" y="-25" on="0"/>
        <pt x="87" y="-25" on="1"/>
        <pt x="55" y="-25" on="0"/>
        <pt x="20" y="9" on="0"/>
        <pt x="20" y="35" on="1"/>
        <pt x="20" y="41" on="0"/>
        <pt x="22" y="65" on="0"/>
        <pt x="47" y="117" on="0"/>
        <pt x="50" y="117" on="1"/>
        <pt x="58" y="118" on="0"/>
        <pt x="53" y="109" on="1"/>
        <pt x="40" y="80" on="0"/>
        <pt x="40" y="48" on="0"/>
        <pt x="45" y="40" on="1"/>
        <pt x="58" y="17" on="0"/>
        <pt x="96" y="17" on="1"/>
        <pt x="215" y="17" on="0"/>
        <pt x="447" y="233" on="1"/>
        <pt x="333" y="239" on="0"/>
        <pt x="314" y="239" on="1"/>
        <pt x="238" y="239" on="0"/>
        <pt x="213" y="214" on="1"/>
        <pt x="195" y="196" on="0"/>
        <pt x="195" y="166" on="1"/>
        <pt x="195" y="158" on="0"/>
        <pt x="197" y="151" on="1"/>
        <pt x="182" y="154" on="0"/>
        <pt x="171" y="160" on="0"/>
        <pt x="169" y="167" on="1"/>
        <pt x="170" y="175" on="0"/>
        <pt x="166" y="184" on="0"/>
        <pt x="175" y="196" on="0"/>
        <pt x="178" y="203" on="0"/>
        <pt x="191" y="212" on="0"/>
        <pt x="198" y="217" on="0"/>
        <pt x="213" y="225" on="0"/>
        <pt x="221" y="228" on="0"/>
        <pt x="229" y="232" on="1"/>
        <pt x="312" y="268" on="0"/>
        <pt x="379" y="268" on="1"/>
        <pt x="420" y="268" on="0"/>
        <pt x="481" y="265" on="1"/>
        <pt x="547" y="329" on="0"/>
        <pt x="709" y="500" on="0"/>
        <pt x="788" y="521" on="1"/>
        <pt x="733" y="521" on="1"/>
        <pt x="509" y="521" on="0"/>
        <pt x="490" y="426" on="1"/>
        <pt x="489" y="419" on="0"/>
        <pt x="489" y="396" on="0"/>
        <pt x="501" y="389" on="1"/>
        <pt x="506" y="386" on="0"/>
        <pt x="488" y="378" on="0"/>
        <pt x="485" y="380" on="1"/>
        <pt x="475" y="387" on="0"/>
        <pt x="462" y="425" on="0"/>
        <pt x="462" y="432" on="1"/>
        <pt x="462" y="463" on="0"/>
        <pt x="497" y="505" on="0"/>
        <pt x="555" y="526" on="0"/>
        <pt x="603" y="539" on="0"/>
        <pt x="642" y="542" on="1"/>
        <pt x="697" y="545" on="0"/>
        <pt x="747" y="545" on="1"/>
        <pt x="856" y="545" on="1"/>
        <pt x="858" y="545" on="0"/>
        <pt x="857" y="544" on="1"/>
        <pt x="930" y="577" on="0"/>
        <pt x="969" y="577" on="0"/>
        <pt x="975" y="566" on="0"/>
        <pt x="963" y="563" on="0"/>
        <pt x="945" y="563" on="0"/>
        <pt x="940" y="562" on="1"/>
        <pt x="924" y="559" on="0"/>
        <pt x="905" y="538" on="1"/>
        <pt x="872" y="505" on="0"/>
        <pt x="730" y="256" on="0"/>
        <pt x="686" y="158" on="1"/>
        <pt x="686" y="157" on="0"/>
        <pt x="685" y="155" on="1"/>
        <pt x="649" y="72" on="0"/>
        <pt x="649" y="11" on="0"/>
        <pt x="669" y="11" on="1"/>
        <pt x="696" y="11" on="0"/>
        <pt x="775" y="85" on="0"/>
        <pt x="807" y="130" on="1"/>
        <pt x="812" y="138" on="0"/>
        <pt x="821" y="130" on="0"/>
        <pt x="815" y="122" on="1"/>
        <pt x="801" y="103" on="0"/>
        <pt x="793" y="93" on="0"/>
        <pt x="775" y="70" on="0"/>
        <pt x="761" y="55" on="0"/>
        <pt x="740" y="34" on="0"/>
        <pt x="731" y="26" on="1"/>
        <pt x="688" y="-9" on="0"/>
        <pt x="656" y="-9" on="1"/>
        <pt x="598" y="-9" on="0"/>
        <pt x="598" y="52" on="1"/>
        <pt x="598" y="98" on="0"/>
        <pt x="673" y="257" on="0"/>
        <pt x="800" y="489" on="0"/>
        <pt x="831" y="530" on="1"/>
        <pt x="806" y="529" on="0"/>
        <pt x="711" y="475" on="0"/>
        <pt x="651" y="413" on="0"/>
        <pt x="539" y="289" on="0"/>
        <pt x="515" y="263" on="1"/>
        <pt x="575" y="261" on="0"/>
        <pt x="648" y="261" on="0"/>
        <pt x="679" y="276" on="1"/>
        <pt x="673" y="260" on="0"/>
      </contour>
      <contour>
        <pt x="972" y="661" on="0"/>
        <pt x="945" y="632" on="0"/>
        <pt x="911" y="632" on="0"/>
        <pt x="848" y="657" on="0"/>
        <pt x="809" y="657" on="0"/>
        <pt x="801" y="639" on="1"/>
        <pt x="789" y="639" on="1"/>
        <pt x="794" y="655" on="0"/>
        <pt x="824" y="682" on="0"/>
        <pt x="856" y="682" on="0"/>
        <pt x="881" y="672" on="1"/>
        <pt x="912" y="660" on="0"/>
        <pt x="952" y="660" on="0"/>
        <pt x="968" y="682" on="1"/>
        <pt x="978" y="682" on="1"/>
      </contour>
    </TTGlyph>
    <TTGlyph name="B" xMin="-2" yMin="-20" xMax="585" yMax="546">
      <contour>
        <pt x="415" y="544" on="1"/>
        <pt x="455" y="545" on="1"/>
        <pt x="487" y="545" on="0"/>
        <pt x="521" y="534" on="1"/>
        <pt x="585" y="514" on="0"/>
        <pt x="585" y="447" on="1"/>
        <pt x="585" y="402" on="0"/>
        <pt x="551" y="358" on="1"/>
        <pt x="504" y="300" on="0"/>
        <pt x="429" y="283" on="1"/>
        <pt x="427" y="283" on="0"/>
        <pt x="427" y="277" on="0"/>
        <pt x="431" y="277" on="0"/>
        <pt x="446" y="275" on="0"/>
        <pt x="463" y="272" on="0"/>
        <pt x="469" y="271" on="1"/>
        <pt x="506" y="263" on="0"/>
        <pt x="551" y="217" on="0"/>
        <pt x="551" y="181" on="1"/>
        <pt x="551" y="120" on="0"/>
        <pt x="506" y="72" on="1"/>
        <pt x="423" y="-17" on="0"/>
        <pt x="288" y="-17" on="1"/>
        <pt x="197" y="-17" on="0"/>
        <pt x="138" y="14" on="1"/>
        <pt x="123" y="22" on="0"/>
        <pt x="93" y="22" on="0"/>
        <pt x="75" y="13" on="0"/>
        <pt x="54" y="0" on="1"/>
        <pt x="22" y="-19" on="0"/>
        <pt x="-2" y="-19" on="0"/>
        <pt x="-2" y="-13" on="1"/>
        <pt x="-2" y="-11" on="0"/>
        <pt x="0" y="-10" on="1"/>
        <pt x="41" y="-3" on="0"/>
        <pt x="64" y="38" on="1"/>
        <pt x="99" y="97" on="0"/>
        <pt x="258" y="388" on="0"/>
        <pt x="304" y="483" on="0"/>
        <pt x="308" y="491" on="1"/>
        <pt x="321" y="515" on="0"/>
        <pt x="367" y="531" on="1"/>
        <pt x="352" y="532" on="0"/>
        <pt x="278" y="532" on="0"/>
        <pt x="202" y="518" on="1"/>
        <pt x="98" y="499" on="0"/>
        <pt x="98" y="435" on="1"/>
        <pt x="98" y="411" on="0"/>
        <pt x="114" y="401" on="1"/>
        <pt x="119" y="399" on="0"/>
        <pt x="108" y="392" on="0"/>
        <pt x="96" y="399" on="0"/>
        <pt x="83" y="418" on="1"/>
        <pt x="63" y="448" on="0"/>
        <pt x="63" y="492" on="0"/>
        <pt x="86" y="525" on="0"/>
        <pt x="120" y="532" on="1"/>
        <pt x="171" y="544" on="0"/>
        <pt x="231" y="544" on="1"/>
        <pt x="233" y="544" on="0"/>
        <pt x="234" y="544" on="1"/>
        <pt x="383" y="545" on="1"/>
        <pt x="398" y="544" on="0"/>
      </contour>
      <contour>
        <pt x="472" y="319" on="0"/>
        <pt x="509" y="364" on="0"/>
        <pt x="532" y="426" on="0"/>
        <pt x="532" y="446" on="1"/>
        <pt x="532" y="519" on="0"/>
        <pt x="472" y="528" on="1"/>
        <pt x="463" y="529" on="0"/>
        <pt x="450" y="529" on="1"/>
        <pt x="398" y="529" on="0"/>
        <pt x="360" y="482" on="0"/>
        <pt x="321" y="415" on="0"/>
        <pt x="295" y="366" on="0"/>
        <pt x="254" y="283" on="0"/>
        <pt x="184" y="147" on="0"/>
        <pt x="152" y="83" on="1"/>
        <pt x="147" y="72" on="0"/>
        <pt x="147" y="61" on="1"/>
        <pt x="147" y="39" on="0"/>
        <pt x="171" y="21" on="1"/>
        <pt x="212" y="-3" on="0"/>
        <pt x="256" y="-3" on="1"/>
        <pt x="305" y="-3" on="0"/>
        <pt x="414" y="39" on="0"/>
        <pt x="493" y="134" on="0"/>
        <pt x="493" y="196" on="1"/>
        <pt x="493" y="235" on="0"/>
        <pt x="435" y="268" on="0"/>
        <pt x="404" y="268" on="1"/>
        <pt x="343" y="268" on="0"/>
        <pt x="275" y="250" on="1"/>
        <pt x="274" y="250" on="0"/>
        <pt x="274" y="252" on="1"/>
        <pt x="274" y="257" on="0"/>
        <pt x="302" y="280" on="0"/>
        <pt x="314" y="292" on="0"/>
        <pt x="322" y="292" on="1"/>
        <pt x="365" y="292" on="0"/>
        <pt x="417" y="298" on="0"/>
      </contour>
    </TTGlyph>
    <TTGlyph name="B.roman" xMin="17" yMin="-2" xMax="520" yMax="533">
      <contour>
        <pt x="246" y="527" on="1"/>
        <pt x="365" y="532" on="1"/>
        <pt x="503" y="532" on="0"/>
        <pt x="503" y="453" on="1"/>
        <pt x="503" y="406" on="0"/>
        <pt x="440" y="326" on="0"/>
        <pt x="391" y="307" on="1"/>
        <pt x="520" y="301" on="0"/>
        <pt x="520" y="208" on="1"/>
        <pt x="520" y="192" on="0"/>
        <pt x="515" y="167" on="1"/>
        <pt x="499" y="88" on="0"/>
        <pt x="369" y="0" on="0"/>
        <pt x="275" y="0" on="1"/>
        <pt x="177" y="4" on="1"/>
        <pt x="91" y="4" on="0"/>
        <pt x="17" y="-2" on="1"/>
        <pt x="28" y="14" on="1"/>
        <pt x="97" y="14" on="0"/>
        <pt x="133" y="86" on="0"/>
        <pt x="207" y="466" on="0"/>
        <pt x="207" y="490" on="1"/>
        <pt x="207" y="521" on="0"/>
        <pt x="167" y="521" on="1"/>
        <pt x="155" y="521" on="0"/>
        <pt x="140" y="518" on="1"/>
        <pt x="150" y="533" on="1"/>
        <pt x="196" y="527" on="0"/>
      </contour>
      <contour>
        <pt x="457" y="198" on="1"/>
        <pt x="457" y="241" on="0"/>
        <pt x="398" y="291" on="0"/>
        <pt x="351" y="291" on="1"/>
        <pt x="233" y="291" on="1"/>
        <pt x="215" y="207" on="1"/>
        <pt x="195" y="119" on="0"/>
        <pt x="188" y="51" on="1"/>
        <pt x="188" y="28" on="0"/>
        <pt x="215" y="17" on="0"/>
        <pt x="344" y="17" on="0"/>
        <pt x="441" y="100" on="0"/>
        <pt x="454" y="167" on="1"/>
        <pt x="457" y="184" on="0"/>
      </contour>
      <contour>
        <pt x="314" y="309" on="1"/>
        <pt x="373" y="309" on="0"/>
        <pt x="449" y="389" on="0"/>
        <pt x="449" y="464" on="0"/>
        <pt x="400" y="506" on="0"/>
        <pt x="317" y="506" on="0"/>
        <pt x="309" y="504" on="1"/>
        <pt x="289" y="501" on="0"/>
        <pt x="266" y="447" on="0"/>
        <pt x="253" y="386" on="0"/>
        <pt x="249" y="369" on="0"/>
        <pt x="241" y="330" on="0"/>
        <pt x="236" y="309" on="1"/>
      </contour>
    </TTGlyph>
    <TTGlyph name="B.sm" xMin="7" yMin="-2" xMax="363" yMax="374">
      <contour>
        <pt x="172" y="370" on="1"/>
        <pt x="254" y="373" on="1"/>
        <pt x="352" y="373" on="0"/>
        <pt x="352" y="314" on="1"/>
        <pt x="352" y="286" on="0"/>
        <pt x="314" y="231" on="0"/>
        <pt x="285" y="218" on="1"/>
        <pt x="363" y="208" on="0"/>
        <pt x="363" y="149" on="1"/>
        <pt x="363" y="71" on="0"/>
        <pt x="300" y="30" on="1"/>
        <pt x="253" y="-1" on="0"/>
        <pt x="187" y="-1" on="1"/>
        <pt x="122" y="3" on="1"/>
        <pt x="79" y="3" on="0"/>
        <pt x="7" y="-2" on="1"/>
        <pt x="20" y="17" on="1"/>
        <pt x="69" y="17" on="0"/>
        <pt x="87" y="60" on="0"/>
        <pt x="119" y="210" on="0"/>
        <pt x="141" y="338" on="0"/>
        <pt x="141" y="343" on="1"/>
        <pt x="141" y="357" on="0"/>
        <pt x="115" y="357" on="1"/>
        <pt x="109" y="357" on="0"/>
        <pt x="91" y="355" on="1"/>
        <pt x="103" y="374" on="1"/>
        <pt x="136" y="370" on="0"/>
      </contour>
      <contour>
        <pt x="313" y="138" on="1"/>
        <pt x="313" y="167" on="0"/>
        <pt x="274" y="200" on="0"/>
        <pt x="243" y="200" on="1"/>
        <pt x="165" y="200" on="1"/>
        <pt x="138" y="66" on="0"/>
        <pt x="135" y="39" on="1"/>
        <pt x="135" y="25" on="0"/>
        <pt x="156" y="19" on="0"/>
        <pt x="236" y="19" on="0"/>
        <pt x="302" y="73" on="0"/>
        <pt x="311" y="118" on="1"/>
        <pt x="313" y="132" on="0"/>
      </contour>
      <contour>
        <pt x="219" y="220" on="1"/>
        <pt x="257" y="220" on="0"/>
        <pt x="307" y="271" on="0"/>
        <pt x="307" y="321" on="0"/>
        <pt x="275" y="348" on="0"/>
        <pt x="213" y="348" on="0"/>
        <pt x="190" y="322" on="0"/>
        <pt x="181" y="278" on="1"/>
        <pt x="169" y="220" on="1"/>
      </contour>
    </TTGlyph>
    <TTGlyph name="C" xMin="38" yMin="-29" xMax="590" yMax="549">
      <contour>
        <pt x="526" y="384" on="1"/>
        <pt x="543" y="412" on="0"/>
        <pt x="543" y="482" on="0"/>
        <pt x="532" y="502" on="1"/>
        <pt x="513" y="534" on="0"/>
        <pt x="458" y="534" on="1"/>
        <pt x="356" y="534" on="0"/>
        <pt x="259" y="452" on="1"/>
        <pt x="188" y="389" on="0"/>
        <pt x="97" y="214" on="0"/>
        <pt x="97" y="77" on="0"/>
        <pt x="160" y="8" on="0"/>
        <pt x="209" y="1" on="1"/>
        <pt x="235" y="-3" on="0"/>
        <pt x="260" y="-3" on="1"/>
        <pt x="336" y="-3" on="0"/>
        <pt x="404" y="24" on="1"/>
        <pt x="513" y="66" on="0"/>
        <pt x="579" y="148" on="1"/>
        <pt x="589" y="160" on="0"/>
        <pt x="589" y="148" on="1"/>
        <pt x="589" y="141" on="0"/>
        <pt x="581" y="130" on="1"/>
        <pt x="518" y="46" on="0"/>
        <pt x="412" y="2" on="1"/>
        <pt x="337" y="-29" on="0"/>
        <pt x="253" y="-29" on="1"/>
        <pt x="117" y="-29" on="0"/>
        <pt x="65" y="43" on="1"/>
        <pt x="38" y="80" on="0"/>
        <pt x="38" y="135" on="1"/>
        <pt x="38" y="229" on="0"/>
        <pt x="142" y="408" on="0"/>
        <pt x="224" y="470" on="1"/>
        <pt x="329" y="549" on="0"/>
        <pt x="451" y="549" on="1"/>
        <pt x="506" y="549" on="0"/>
        <pt x="587" y="510" on="0"/>
        <pt x="587" y="478" on="1"/>
        <pt x="587" y="464" on="0"/>
        <pt x="550" y="403" on="0"/>
        <pt x="545" y="389" on="1"/>
        <pt x="543" y="382" on="0"/>
        <pt x="530" y="381" on="1"/>
        <pt x="526" y="382" on="0"/>
      </contour>
    </TTGlyph>
    <TTGlyph name="C.roman" xMin="78" yMin="-10" xMax="662" yMax="538">
      <contour>
        <pt x="598" y="375" on="1"/>
        <pt x="598" y="373" on="0"/>
        <pt x="599" y="373" on="1"/>
        <pt x="588" y="375" on="1"/>
        <pt x="596" y="393" on="0"/>
        <pt x="596" y="419" on="1"/>
        <pt x="596" y="456" on="0"/>
        <pt x="501" y="506" on="0"/>
        <pt x="421" y="506" on="1"/>
        <pt x="301" y="506" on="0"/>
        <pt x="152" y="359" on="0"/>
        <pt x="152" y="223" on="1"/>
        <pt x="152" y="132" on="0"/>
        <pt x="254" y="25" on="0"/>
        <pt x="436" y="25" on="0"/>
        <pt x="561" y="76" on="1"/>
        <pt x="557" y="61" on="1"/>
        <pt x="464" y="13" on="0"/>
        <pt x="394" y="-10" on="0"/>
        <pt x="335" y="-10" on="1"/>
        <pt x="214" y="-10" on="0"/>
        <pt x="78" y="101" on="0"/>
        <pt x="78" y="201" on="1"/>
        <pt x="78" y="355" on="0"/>
        <pt x="291" y="538" on="0"/>
        <pt x="456" y="538" on="1"/>
        <pt x="568" y="538" on="0"/>
        <pt x="662" y="501" on="1"/>
        <pt x="659" y="495" on="1"/>
        <pt x="651" y="495" on="0"/>
        <pt x="598" y="398" on="0"/>
      </contour>
    </TTGlyph>
    <TTGlyph name="C.roman_acute" xMin="78" yMin="-10" xMax="662" yMax="678">
      <contour>
        <pt x="598" y="375" on="1"/>
        <pt x="598" y="373" on="0"/>
        <pt x="599" y="373" on="1"/>
        <pt x="588" y="375" on="1"/>
        <pt x="596" y="393" on="0"/>
        <pt x="596" y="419" on="1"/>
        <pt x="596" y="456" on="0"/>
        <pt x="501" y="506" on="0"/>
        <pt x="421" y="506" on="1"/>
        <pt x="301" y="506" on="0"/>
        <pt x="152" y="359" on="0"/>
        <pt x="152" y="223" on="1"/>
        <pt x="152" y="132" on="0"/>
        <pt x="254" y="25" on="0"/>
        <pt x="436" y="25" on="0"/>
        <pt x="561" y="76" on="1"/>
        <pt x="557" y="61" on="1"/>
        <pt x="464" y="13" on="0"/>
        <pt x="394" y="-10" on="0"/>
        <pt x="335" y="-10" on="1"/>
        <pt x="214" y="-10" on="0"/>
        <pt x="78" y="101" on="0"/>
        <pt x="78" y="201" on="1"/>
        <pt x="78" y="355" on="0"/>
        <pt x="291" y="538" on="0"/>
        <pt x="456" y="538" on="1"/>
        <pt x="568" y="538" on="0"/>
        <pt x="662" y="501" on="1"/>
        <pt x="659" y="495" on="1"/>
        <pt x="651" y="495" on="0"/>
        <pt x="598" y="398" on="0"/>
      </contour>
      <contour>
        <pt x="573" y="678" on="1"/>
        <pt x="576" y="678" on="0"/>
        <pt x="576" y="651" on="0"/>
        <pt x="572" y="647" on="1"/>
        <pt x="567" y="638" on="0"/>
        <pt x="453" y="571" on="0"/>
        <pt x="441" y="569" on="1"/>
        <pt x="440" y="569" on="0"/>
        <pt x="442" y="576" on="1"/>
        <pt x="478" y="603" on="0"/>
        <pt x="564" y="678" on="0"/>
      </contour>
    </TTGlyph>
    <TTGlyph name="C.roman_caron" xMin="78" yMin="-10" xMax="662" yMax="669">
      <contour>
        <pt x="598" y="375" on="1"/>
        <pt x="598" y="373" on="0"/>
        <pt x="599" y="373" on="1"/>
        <pt x="588" y="375" on="1"/>
        <pt x="596" y="393" on="0"/>
        <pt x="596" y="419" on="1"/>
        <pt x="596" y="456" on="0"/>
        <pt x="501" y="506" on="0"/>
        <pt x="421" y="506" on="1"/>
        <pt x="301" y="506" on="0"/>
        <pt x="152" y="359" on="0"/>
        <pt x="152" y="223" on="1"/>
        <pt x="152" y="132" on="0"/>
        <pt x="254" y="25" on="0"/>
        <pt x="436" y="25" on="0"/>
        <pt x="561" y="76" on="1"/>
        <pt x="557" y="61" on="1"/>
        <pt x="464" y="13" on="0"/>
        <pt x="394" y="-10" on="0"/>
        <pt x="335" y="-10" on="1"/>
        <pt x="214" y="-10" on="0"/>
        <pt x="78" y="101" on="0"/>
        <pt x="78" y="201" on="1"/>
        <pt x="78" y="355" on="0"/>
        <pt x="291" y="538" on="0"/>
        <pt x="456" y="538" on="1"/>
        <pt x="568" y="538" on="0"/>
        <pt x="662" y="501" on="1"/>
        <pt x="659" y="495" on="1"/>
        <pt x="651" y="495" on="0"/>
        <pt x="598" y="398" on="0"/>
      </contour>
      <contour>
        <pt x="408" y="669" on="1"/>
        <pt x="431" y="669" on="0"/>
        <pt x="485" y="604" on="1"/>
        <pt x="485" y="601" on="0"/>
        <pt x="491" y="604" on="1"/>
        <pt x="502" y="614" on="0"/>
        <pt x="566" y="657" on="0"/>
        <pt x="585" y="664" on="0"/>
        <pt x="594" y="662" on="1"/>
        <pt x="521" y="613" on="0"/>
        <pt x="481" y="578" on="1"/>
        <pt x="469" y="578" on="1"/>
        <pt x="445" y="618" on="0"/>
        <pt x="401" y="648" on="1"/>
        <pt x="388" y="656" on="0"/>
        <pt x="383" y="656" on="1"/>
        <pt x="383" y="659" on="1"/>
      </contour>
    </TTGlyph>
    <TTGlyph name="C.roman_cedilla" xMin="78" yMin="-222" xMax="662" yMax="538">
      <contour>
        <pt x="598" y="375" on="1"/>
        <pt x="598" y="373" on="0"/>
        <pt x="599" y="373" on="1"/>
        <pt x="588" y="375" on="1"/>
        <pt x="596" y="393" on="0"/>
        <pt x="596" y="419" on="1"/>
        <pt x="596" y="456" on="0"/>
        <pt x="501" y="506" on="0"/>
        <pt x="421" y="506" on="1"/>
        <pt x="301" y="506" on="0"/>
        <pt x="152" y="359" on="0"/>
        <pt x="152" y="223" on="1"/>
        <pt x="152" y="132" on="0"/>
        <pt x="254" y="25" on="0"/>
        <pt x="436" y="25" on="0"/>
        <pt x="561" y="76" on="1"/>
        <pt x="557" y="61" on="1"/>
        <pt x="465" y="14" on="0"/>
        <pt x="395" y="-9" on="0"/>
        <pt x="339" y="-10" on="1"/>
        <pt x="300" y="-26" on="0"/>
        <pt x="300" y="-59" on="1"/>
        <pt x="300" y="-73" on="0"/>
        <pt x="335" y="-121" on="0"/>
        <pt x="335" y="-140" on="1"/>
        <pt x="335" y="-143" on="0"/>
        <pt x="335" y="-146" on="1"/>
        <pt x="328" y="-183" on="0"/>
        <pt x="240" y="-222" on="0"/>
        <pt x="195" y="-222" on="1"/>
        <pt x="187" y="-222" on="0"/>
        <pt x="189" y="-214" on="1"/>
        <pt x="189" y="-208" on="0"/>
        <pt x="198" y="-208" on="1"/>
        <pt x="262" y="-208" on="0"/>
        <pt x="285" y="-183" on="1"/>
        <pt x="298" y="-168" on="0"/>
        <pt x="298" y="-140" on="0"/>
        <pt x="265" y="-87" on="0"/>
        <pt x="265" y="-52" on="0"/>
        <pt x="290" y="-16" on="0"/>
        <pt x="310" y="-9" on="1"/>
        <pt x="201" y="-4" on="0"/>
        <pt x="78" y="106" on="0"/>
        <pt x="78" y="201" on="1"/>
        <pt x="78" y="355" on="0"/>
        <pt x="291" y="538" on="0"/>
        <pt x="456" y="538" on="1"/>
        <pt x="568" y="538" on="0"/>
        <pt x="662" y="501" on="1"/>
        <pt x="659" y="495" on="1"/>
        <pt x="651" y="495" on="0"/>
        <pt x="598" y="398" on="0"/>
      </contour>
    </TTGlyph>
    <TTGlyph name="C.roman_circumflex" xMin="78" yMin="-10" xMax="662" yMax="665">
      <contour>
        <pt x="598" y="375" on="1"/>
        <pt x="598" y="373" on="0"/>
        <pt x="599" y="373" on="1"/>
        <pt x="588" y="375" on="1"/>
        <pt x="596" y="393" on="0"/>
        <pt x="596" y="419" on="1"/>
        <pt x="596" y="456" on="0"/>
        <pt x="501" y="506" on="0"/>
        <pt x="421" y="506" on="1"/>
        <pt x="301" y="506" on="0"/>
        <pt x="152" y="359" on="0"/>
        <pt x="152" y="223" on="1"/>
        <pt x="152" y="132" on="0"/>
        <pt x="254" y="25" on="0"/>
        <pt x="436" y="25" on="0"/>
        <pt x="561" y="76" on="1"/>
        <pt x="557" y="61" on="1"/>
        <pt x="464" y="13" on="0"/>
        <pt x="394" y="-10" on="0"/>
        <pt x="335" y="-10" on="1"/>
        <pt x="214" y="-10" on="0"/>
        <pt x="78" y="101" on="0"/>
        <pt x="78" y="201" on="1"/>
        <pt x="78" y="355" on="0"/>
        <pt x="291" y="538" on="0"/>
        <pt x="456" y="538" on="1"/>
        <pt x="568" y="538" on="0"/>
        <pt x="662" y="501" on="1"/>
        <pt x="659" y="495" on="1"/>
        <pt x="651" y="495" on="0"/>
        <pt x="598" y="398" on="0"/>
      </contour>
      <contour>
        <pt x="570" y="574" on="1"/>
        <pt x="547" y="574" on="0"/>
        <pt x="493" y="639" on="1"/>
        <pt x="493" y="642" on="0"/>
        <pt x="487" y="639" on="1"/>
        <pt x="476" y="629" on="0"/>
        <pt x="412" y="586" on="0"/>
        <pt x="393" y="579" on="0"/>
        <pt x="384" y="581" on="1"/>
        <pt x="457" y="630" on="0"/>
        <pt x="497" y="665" on="1"/>
        <pt x="509" y="665" on="1"/>
        <pt x="533" y="625" on="0"/>
        <pt x="577" y="595" on="1"/>
        <pt x="590" y="587" on="0"/>
        <pt x="595" y="587" on="1"/>
        <pt x="595" y="584" on="1"/>
      </contour>
    </TTGlyph>
    <TTGlyph name="C.roman_dotaccent" xMin="78" yMin="-10" xMax="662" yMax="629">
      <contour>
        <pt x="598" y="375" on="1"/>
        <pt x="598" y="373" on="0"/>
        <pt x="599" y="373" on="1"/>
        <pt x="588" y="375" on="1"/>
        <pt x="596" y="393" on="0"/>
        <pt x="596" y="419" on="1"/>
        <pt x="596" y="456" on="0"/>
        <pt x="501" y="506" on="0"/>
        <pt x="421" y="506" on="1"/>
        <pt x="301" y="506" on="0"/>
        <pt x="152" y="359" on="0"/>
        <pt x="152" y="223" on="1"/>
        <pt x="152" y="132" on="0"/>
        <pt x="254" y="25" on="0"/>
        <pt x="436" y="25" on="0"/>
        <pt x="561" y="76" on="1"/>
        <pt x="557" y="61" on="1"/>
        <pt x="464" y="13" on="0"/>
        <pt x="394" y="-10" on="0"/>
        <pt x="335" y="-10" on="1"/>
        <pt x="214" y="-10" on="0"/>
        <pt x="78" y="101" on="0"/>
        <pt x="78" y="201" on="1"/>
        <pt x="78" y="355" on="0"/>
        <pt x="291" y="538" on="0"/>
        <pt x="456" y="538" on="1"/>
        <pt x="568" y="538" on="0"/>
        <pt x="662" y="501" on="1"/>
        <pt x="659" y="495" on="1"/>
        <pt x="651" y="495" on="0"/>
        <pt x="598" y="398" on="0"/>
      </contour>
      <contour>
        <pt x="491" y="581" on="1"/>
        <pt x="471" y="581" on="0"/>
        <pt x="454" y="603" on="1"/>
        <pt x="454" y="605" on="0"/>
        <pt x="464" y="612" on="0"/>
        <pt x="472" y="618" on="0"/>
        <pt x="480" y="623" on="0"/>
        <pt x="484" y="625" on="1"/>
        <pt x="490" y="629" on="0"/>
        <pt x="493" y="629" on="1"/>
        <pt x="513" y="617" on="0"/>
        <pt x="525" y="617" on="0"/>
        <pt x="534" y="619" on="0"/>
        <pt x="534" y="614" on="1"/>
        <pt x="533" y="610" on="0"/>
        <pt x="528" y="604" on="1"/>
        <pt x="500" y="581" on="0"/>
      </contour>
    </TTGlyph>
    <TTGlyph name="C.sm" xMin="52" yMin="-7" xMax="463" yMax="377">
      <contour>
        <pt x="409" y="290" on="1"/>
        <pt x="409" y="315" on="0"/>
        <pt x="345" y="348" on="0"/>
        <pt x="291" y="348" on="1"/>
        <pt x="211" y="348" on="0"/>
        <pt x="112" y="252" on="0"/>
        <pt x="112" y="162" on="1"/>
        <pt x="112" y="98" on="0"/>
        <pt x="178" y="24" on="0"/>
        <pt x="303" y="24" on="0"/>
        <pt x="392" y="61" on="1"/>
        <pt x="389" y="43" on="1"/>
        <pt x="326" y="9" on="0"/>
        <pt x="275" y="-7" on="0"/>
        <pt x="232" y="-7" on="1"/>
        <pt x="146" y="-7" on="0"/>
        <pt x="52" y="72" on="0"/>
        <pt x="52" y="143" on="1"/>
        <pt x="52" y="244" on="0"/>
        <pt x="192" y="372" on="0"/>
        <pt x="300" y="377" on="1"/>
        <pt x="317" y="377" on="1"/>
        <pt x="395" y="377" on="0"/>
        <pt x="463" y="350" on="1"/>
        <pt x="458" y="341" on="1"/>
        <pt x="449" y="341" on="0"/>
        <pt x="423" y="284" on="0"/>
        <pt x="418" y="263" on="1"/>
        <pt x="418" y="262" on="0"/>
        <pt x="422" y="257" on="1"/>
        <pt x="402" y="258" on="1"/>
        <pt x="409" y="281" on="0"/>
      </contour>
    </TTGlyph>
    <TTGlyph name="Cacute" xMin="38" yMin="-29" xMax="590" yMax="725">
      <contour>
        <pt x="526" y="384" on="1"/>
        <pt x="543" y="412" on="0"/>
        <pt x="543" y="482" on="0"/>
        <pt x="532" y="502" on="1"/>
        <pt x="513" y="534" on="0"/>
        <pt x="458" y="534" on="1"/>
        <pt x="356" y="534" on="0"/>
        <pt x="259" y="452" on="1"/>
        <pt x="188" y="389" on="0"/>
        <pt x="97" y="214" on="0"/>
        <pt x="97" y="77" on="0"/>
        <pt x="160" y="8" on="0"/>
        <pt x="209" y="1" on="1"/>
        <pt x="235" y="-3" on="0"/>
        <pt x="260" y="-3" on="1"/>
        <pt x="336" y="-3" on="0"/>
        <pt x="404" y="24" on="1"/>
        <pt x="513" y="66" on="0"/>
        <pt x="579" y="148" on="1"/>
        <pt x="589" y="160" on="0"/>
        <pt x="589" y="148" on="1"/>
        <pt x="589" y="141" on="0"/>
        <pt x="581" y="130" on="1"/>
        <pt x="518" y="46" on="0"/>
        <pt x="412" y="2" on="1"/>
        <pt x="337" y="-29" on="0"/>
        <pt x="253" y="-29" on="1"/>
        <pt x="117" y="-29" on="0"/>
        <pt x="65" y="43" on="1"/>
        <pt x="38" y="80" on="0"/>
        <pt x="38" y="135" on="1"/>
        <pt x="38" y="229" on="0"/>
        <pt x="142" y="408" on="0"/>
        <pt x="224" y="470" on="1"/>
        <pt x="329" y="549" on="0"/>
        <pt x="451" y="549" on="1"/>
        <pt x="506" y="549" on="0"/>
        <pt x="587" y="510" on="0"/>
        <pt x="587" y="478" on="1"/>
        <pt x="587" y="464" on="0"/>
        <pt x="550" y="403" on="0"/>
        <pt x="545" y="389" on="1"/>
        <pt x="543" y="382" on="0"/>
        <pt x="530" y="381" on="1"/>
        <pt x="526" y="382" on="0"/>
      </contour>
      <contour>
        <pt x="585" y="725" on="1"/>
        <pt x="588" y="725" on="0"/>
        <pt x="588" y="698" on="0"/>
        <pt x="584" y="694" on="1"/>
        <pt x="579" y="685" on="0"/>
        <pt x="465" y="618" on="0"/>
        <pt x="453" y="616" on="1"/>
        <pt x="452" y="616" on="0"/>
        <pt x="454" y="623" on="1"/>
        <pt x="490" y="650" on="0"/>
        <pt x="576" y="725" on="0"/>
      </contour>
    </TTGlyph>
    <TTGlyph name="Ccaron" xMin="38" yMin="-29" xMax="590" yMax="672">
      <contour>
        <pt x="526" y="384" on="1"/>
        <pt x="543" y="412" on="0"/>
        <pt x="543" y="482" on="0"/>
        <pt x="532" y="502" on="1"/>
        <pt x="513" y="534" on="0"/>
        <pt x="458" y="534" on="1"/>
        <pt x="356" y="534" on="0"/>
        <pt x="259" y="452" on="1"/>
        <pt x="188" y="389" on="0"/>
        <pt x="97" y="214" on="0"/>
        <pt x="97" y="77" on="0"/>
        <pt x="160" y="8" on="0"/>
        <pt x="209" y="1" on="1"/>
        <pt x="235" y="-3" on="0"/>
        <pt x="260" y="-3" on="1"/>
        <pt x="336" y="-3" on="0"/>
        <pt x="404" y="24" on="1"/>
        <pt x="513" y="66" on="0"/>
        <pt x="579" y="148" on="1"/>
        <pt x="589" y="160" on="0"/>
        <pt x="589" y="148" on="1"/>
        <pt x="589" y="141" on="0"/>
        <pt x="581" y="130" on="1"/>
        <pt x="518" y="46" on="0"/>
        <pt x="412" y="2" on="1"/>
        <pt x="337" y="-29" on="0"/>
        <pt x="253" y="-29" on="1"/>
        <pt x="117" y="-29" on="0"/>
        <pt x="65" y="43" on="1"/>
        <pt x="38" y="80" on="0"/>
        <pt x="38" y="135" on="1"/>
        <pt x="38" y="229" on="0"/>
        <pt x="142" y="408" on="0"/>
        <pt x="224" y="470" on="1"/>
        <pt x="329" y="549" on="0"/>
        <pt x="451" y="549" on="1"/>
        <pt x="506" y="549" on="0"/>
        <pt x="587" y="510" on="0"/>
        <pt x="587" y="478" on="1"/>
        <pt x="587" y="464" on="0"/>
        <pt x="550" y="403" on="0"/>
        <pt x="545" y="389" on="1"/>
        <pt x="543" y="382" on="0"/>
        <pt x="530" y="381" on="1"/>
        <pt x="526" y="382" on="0"/>
      </contour>
      <contour>
        <pt x="397" y="672" on="1"/>
        <pt x="420" y="672" on="0"/>
        <pt x="474" y="607" on="1"/>
        <pt x="474" y="604" on="0"/>
        <pt x="480" y="607" on="1"/>
        <pt x="491" y="617" on="0"/>
        <pt x="555" y="660" on="0"/>
        <pt x="574" y="667" on="0"/>
        <pt x="583" y="665" on="1"/>
        <pt x="510" y="616" on="0"/>
        <pt x="470" y="581" on="1"/>
        <pt x="458" y="581" on="1"/>
        <pt x="434" y="621" on="0"/>
        <pt x="390" y="651" on="1"/>
        <pt x="377" y="659" on="0"/>
        <pt x="372" y="659" on="1"/>
        <pt x="372" y="662" on="1"/>
      </contour>
    </TTGlyph>
    <TTGlyph name="Ccedilla" xMin="38" yMin="-233" xMax="590" yMax="549">
      <contour>
        <pt x="526" y="384" on="1"/>
        <pt x="543" y="412" on="0"/>
        <pt x="543" y="482" on="0"/>
        <pt x="532" y="502" on="1"/>
        <pt x="513" y="534" on="0"/>
        <pt x="458" y="534" on="1"/>
        <pt x="356" y="534" on="0"/>
        <pt x="259" y="452" on="1"/>
        <pt x="188" y="389" on="0"/>
        <pt x="97" y="214" on="0"/>
        <pt x="97" y="77" on="0"/>
        <pt x="160" y="8" on="0"/>
        <pt x="209" y="1" on="1"/>
        <pt x="235" y="-3" on="0"/>
        <pt x="260" y="-3" on="1"/>
        <pt x="336" y="-3" on="0"/>
        <pt x="404" y="24" on="1"/>
        <pt x="513" y="66" on="0"/>
        <pt x="579" y="148" on="1"/>
        <pt x="589" y="160" on="0"/>
        <pt x="589" y="148" on="1"/>
        <pt x="589" y="141" on="0"/>
        <pt x="581" y="130" on="1"/>
        <pt x="518" y="46" on="0"/>
        <pt x="412" y="2" on="1"/>
        <pt x="336" y="-29" on="0"/>
        <pt x="248" y="-29" on="1"/>
        <pt x="223" y="-46" on="0"/>
        <pt x="223" y="-84" on="0"/>
        <pt x="258" y="-132" on="0"/>
        <pt x="258" y="-151" on="1"/>
        <pt x="258" y="-154" on="0"/>
        <pt x="258" y="-157" on="1"/>
        <pt x="251" y="-194" on="0"/>
        <pt x="163" y="-233" on="0"/>
        <pt x="118" y="-233" on="1"/>
        <pt x="110" y="-233" on="0"/>
        <pt x="112" y="-225" on="1"/>
        <pt x="112" y="-219" on="0"/>
        <pt x="121" y="-219" on="1"/>
        <pt x="185" y="-219" on="0"/>
        <pt x="208" y="-194" on="1"/>
        <pt x="221" y="-179" on="0"/>
        <pt x="221" y="-151" on="0"/>
        <pt x="188" y="-98" on="0"/>
        <pt x="188" y="-83" on="1"/>
        <pt x="188" y="-48" on="0"/>
        <pt x="219" y="-27" on="1"/>
        <pt x="139" y="-21" on="0"/>
        <pt x="38" y="57" on="0"/>
        <pt x="38" y="229" on="0"/>
        <pt x="142" y="408" on="0"/>
        <pt x="224" y="470" on="1"/>
        <pt x="329" y="549" on="0"/>
        <pt x="451" y="549" on="1"/>
        <pt x="506" y="549" on="0"/>
        <pt x="587" y="510" on="0"/>
        <pt x="587" y="478" on="1"/>
        <pt x="587" y="464" on="0"/>
        <pt x="550" y="403" on="0"/>
        <pt x="545" y="389" on="1"/>
        <pt x="543" y="382" on="0"/>
        <pt x="530" y="381" on="1"/>
        <pt x="526" y="382" on="0"/>
      </contour>
    </TTGlyph>
    <TTGlyph name="Ccircumflex" xMin="38" yMin="-29" xMax="592" yMax="684">
      <contour>
        <pt x="526" y="384" on="1"/>
        <pt x="543" y="412" on="0"/>
        <pt x="543" y="482" on="0"/>
        <pt x="532" y="502" on="1"/>
        <pt x="513" y="534" on="0"/>
        <pt x="458" y="534" on="1"/>
        <pt x="356" y="534" on="0"/>
        <pt x="259" y="452" on="1"/>
        <pt x="188" y="389" on="0"/>
        <pt x="97" y="214" on="0"/>
        <pt x="97" y="77" on="0"/>
        <pt x="160" y="8" on="0"/>
        <pt x="209" y="1" on="1"/>
        <pt x="235" y="-3" on="0"/>
        <pt x="260" y="-3" on="1"/>
        <pt x="336" y="-3" on="0"/>
        <pt x="404" y="24" on="1"/>
        <pt x="513" y="66" on="0"/>
        <pt x="579" y="148" on="1"/>
        <pt x="587" y="158" on="0"/>
        <pt x="591" y="144" on="0"/>
        <pt x="581" y="130" on="1"/>
        <pt x="518" y="46" on="0"/>
        <pt x="412" y="2" on="1"/>
        <pt x="337" y="-29" on="0"/>
        <pt x="253" y="-29" on="1"/>
        <pt x="117" y="-29" on="0"/>
        <pt x="65" y="43" on="1"/>
        <pt x="38" y="80" on="0"/>
        <pt x="38" y="135" on="1"/>
        <pt x="38" y="229" on="0"/>
        <pt x="142" y="408" on="0"/>
        <pt x="224" y="470" on="1"/>
        <pt x="329" y="549" on="0"/>
        <pt x="451" y="549" on="1"/>
        <pt x="506" y="549" on="0"/>
        <pt x="587" y="510" on="0"/>
        <pt x="587" y="478" on="1"/>
        <pt x="587" y="464" on="0"/>
        <pt x="550" y="403" on="0"/>
        <pt x="545" y="389" on="1"/>
        <pt x="543" y="382" on="0"/>
        <pt x="530" y="381" on="1"/>
        <pt x="526" y="382" on="0"/>
      </contour>
      <contour>
        <pt x="567" y="593" on="1"/>
        <pt x="544" y="593" on="0"/>
        <pt x="490" y="658" on="1"/>
        <pt x="490" y="661" on="0"/>
        <pt x="484" y="658" on="1"/>
        <pt x="473" y="648" on="0"/>
        <pt x="409" y="605" on="0"/>
        <pt x="390" y="598" on="0"/>
        <pt x="381" y="600" on="1"/>
        <pt x="454" y="649" on="0"/>
        <pt x="494" y="684" on="1"/>
        <pt x="506" y="684" on="1"/>
        <pt x="530" y="644" on="0"/>
        <pt x="574" y="614" on="1"/>
        <pt x="587" y="606" on="0"/>
        <pt x="592" y="606" on="1"/>
        <pt x="592" y="603" on="1"/>
      </contour>
    </TTGlyph>
    <TTGlyph name="Cdotaccent" xMin="38" yMin="-29" xMax="590" yMax="642">
      <contour>
        <pt x="526" y="384" on="1"/>
        <pt x="543" y="412" on="0"/>
        <pt x="543" y="482" on="0"/>
        <pt x="532" y="502" on="1"/>
        <pt x="513" y="534" on="0"/>
        <pt x="458" y="534" on="1"/>
        <pt x="356" y="534" on="0"/>
        <pt x="259" y="452" on="1"/>
        <pt x="188" y="389" on="0"/>
        <pt x="97" y="214" on="0"/>
        <pt x="97" y="77" on="0"/>
        <pt x="160" y="8" on="0"/>
        <pt x="209" y="1" on="1"/>
        <pt x="235" y="-3" on="0"/>
        <pt x="260" y="-3" on="1"/>
        <pt x="336" y="-3" on="0"/>
        <pt x="404" y="24" on="1"/>
        <pt x="513" y="66" on="0"/>
        <pt x="579" y="148" on="1"/>
        <pt x="589" y="160" on="0"/>
        <pt x="589" y="148" on="1"/>
        <pt x="589" y="141" on="0"/>
        <pt x="581" y="130" on="1"/>
        <pt x="518" y="46" on="0"/>
        <pt x="412" y="2" on="1"/>
        <pt x="337" y="-29" on="0"/>
        <pt x="253" y="-29" on="1"/>
        <pt x="117" y="-29" on="0"/>
        <pt x="65" y="43" on="1"/>
        <pt x="38" y="80" on="0"/>
        <pt x="38" y="135" on="1"/>
        <pt x="38" y="229" on="0"/>
        <pt x="142" y="408" on="0"/>
        <pt x="224" y="470" on="1"/>
        <pt x="329" y="549" on="0"/>
        <pt x="451" y="549" on="1"/>
        <pt x="506" y="549" on="0"/>
        <pt x="587" y="510" on="0"/>
        <pt x="587" y="478" on="1"/>
        <pt x="587" y="464" on="0"/>
        <pt x="550" y="403" on="0"/>
        <pt x="545" y="389" on="1"/>
        <pt x="543" y="382" on="0"/>
        <pt x="530" y="381" on="1"/>
        <pt x="526" y="382" on="0"/>
      </contour>
      <contour>
        <pt x="499" y="594" on="1"/>
        <pt x="479" y="594" on="0"/>
        <pt x="462" y="616" on="1"/>
        <pt x="462" y="618" on="0"/>
        <pt x="472" y="625" on="0"/>
        <pt x="480" y="631" on="0"/>
        <pt x="488" y="636" on="0"/>
        <pt x="492" y="638" on="1"/>
        <pt x="498" y="642" on="0"/>
        <pt x="501" y="642" on="1"/>
        <pt x="521" y="630" on="0"/>
        <pt x="533" y="630" on="0"/>
        <pt x="542" y="632" on="0"/>
        <pt x="542" y="627" on="1"/>
        <pt x="541" y="623" on="0"/>
        <pt x="536" y="617" on="1"/>
        <pt x="508" y="594" on="0"/>
      </contour>
    </TTGlyph>
    <TTGlyph name="D" xMin="-2" yMin="-19" xMax="684" yMax="549">
      <contour>
        <pt x="228" y="544" on="1"/>
        <pt x="427" y="549" on="1"/>
        <pt x="566" y="549" on="0"/>
        <pt x="630" y="500" on="1"/>
        <pt x="654" y="481" on="0"/>
        <pt x="684" y="415" on="0"/>
        <pt x="684" y="371" on="1"/>
        <pt x="684" y="269" on="0"/>
        <pt x="616" y="167" on="1"/>
        <pt x="494" y="-16" on="0"/>
        <pt x="274" y="-16" on="1"/>
        <pt x="197" y="-16" on="0"/>
        <pt x="138" y="14" on="1"/>
        <pt x="120" y="23" on="0"/>
        <pt x="90" y="23" on="0"/>
        <pt x="24" y="-19" on="0"/>
        <pt x="-2" y="-19" on="0"/>
        <pt x="-2" y="-13" on="1"/>
        <pt x="0" y="-10" on="1"/>
        <pt x="6" y="-8" on="1"/>
        <pt x="6" y="-9" on="0"/>
        <pt x="13" y="-7" on="1"/>
        <pt x="45" y="4" on="0"/>
        <pt x="64" y="38" on="1"/>
        <pt x="93" y="86" on="0"/>
        <pt x="240" y="357" on="1"/>
        <pt x="308" y="491" on="1"/>
        <pt x="323" y="516" on="0"/>
        <pt x="367" y="531" on="1"/>
        <pt x="343" y="531" on="1"/>
        <pt x="277" y="531" on="0"/>
        <pt x="126" y="504" on="0"/>
        <pt x="108" y="470" on="1"/>
        <pt x="98" y="452" on="0"/>
        <pt x="98" y="423" on="0"/>
        <pt x="107" y="407" on="0"/>
        <pt x="116" y="400" on="0"/>
        <pt x="116" y="399" on="1"/>
        <pt x="116" y="393" on="0"/>
        <pt x="100" y="393" on="0"/>
        <pt x="85" y="416" on="1"/>
        <pt x="64" y="449" on="0"/>
        <pt x="64" y="473" on="1"/>
        <pt x="64" y="544" on="0"/>
      </contour>
      <contour>
        <pt x="593" y="229" on="1"/>
        <pt x="623" y="305" on="0"/>
        <pt x="623" y="442" on="0"/>
        <pt x="529" y="528" on="0"/>
        <pt x="451" y="528" on="1"/>
        <pt x="398" y="528" on="0"/>
        <pt x="362" y="487" on="0"/>
        <pt x="317" y="409" on="0"/>
        <pt x="289" y="354" on="0"/>
        <pt x="272" y="319" on="1"/>
        <pt x="261" y="295" on="0"/>
        <pt x="161" y="102" on="0"/>
        <pt x="146" y="69" on="0"/>
        <pt x="146" y="42" on="0"/>
        <pt x="171" y="21" on="1"/>
        <pt x="201" y="-2" on="0"/>
        <pt x="262" y="-2" on="1"/>
        <pt x="373" y="-2" on="0"/>
        <pt x="550" y="125" on="0"/>
      </contour>
    </TTGlyph>
    <TTGlyph name="D.roman" xMin="9" yMin="-2" xMax="637" yMax="532">
      <contour>
        <pt x="273" y="-1" on="1"/>
        <pt x="153" y="4" on="1"/>
        <pt x="94" y="4" on="0"/>
        <pt x="9" y="-2" on="1"/>
        <pt x="20" y="14" on="1"/>
        <pt x="23" y="13" on="0"/>
        <pt x="58" y="13" on="0"/>
        <pt x="78" y="21" on="1"/>
        <pt x="110" y="33" on="0"/>
        <pt x="132" y="90" on="0"/>
        <pt x="205" y="437" on="0"/>
        <pt x="205" y="490" on="1"/>
        <pt x="205" y="517" on="0"/>
        <pt x="167" y="517" on="1"/>
        <pt x="154" y="517" on="0"/>
        <pt x="139" y="514" on="1"/>
        <pt x="150" y="531" on="1"/>
        <pt x="218" y="524" on="0"/>
        <pt x="282" y="524" on="0"/>
        <pt x="371" y="532" on="0"/>
        <pt x="385" y="532" on="1"/>
        <pt x="575" y="532" on="0"/>
        <pt x="623" y="412" on="1"/>
        <pt x="637" y="373" on="0"/>
        <pt x="637" y="302" on="0"/>
        <pt x="631" y="271" on="1"/>
        <pt x="602" y="133" on="0"/>
        <pt x="402" y="-1" on="0"/>
      </contour>
      <contour>
        <pt x="563" y="326" on="1"/>
        <pt x="563" y="413" on="0"/>
        <pt x="449" y="510" on="0"/>
        <pt x="362" y="510" on="1"/>
        <pt x="300" y="510" on="0"/>
        <pt x="287" y="498" on="1"/>
        <pt x="254" y="449" on="0"/>
        <pt x="189" y="60" on="1"/>
        <pt x="200" y="19" on="0"/>
        <pt x="285" y="19" on="1"/>
        <pt x="508" y="19" on="0"/>
        <pt x="558" y="275" on="1"/>
        <pt x="563" y="305" on="0"/>
      </contour>
    </TTGlyph>
    <TTGlyph name="D.roman_caron" xMin="9" yMin="-2" xMax="637" yMax="666">
      <contour>
        <pt x="273" y="-1" on="1"/>
        <pt x="153" y="4" on="1"/>
        <pt x="94" y="4" on="0"/>
        <pt x="9" y="-2" on="1"/>
        <pt x="20" y="14" on="1"/>
        <pt x="23" y="13" on="0"/>
        <pt x="58" y="13" on="0"/>
        <pt x="78" y="21" on="1"/>
        <pt x="110" y="33" on="0"/>
        <pt x="132" y="90" on="0"/>
        <pt x="205" y="437" on="0"/>
        <pt x="205" y="490" on="1"/>
        <pt x="205" y="517" on="0"/>
        <pt x="167" y="517" on="1"/>
        <pt x="154" y="517" on="0"/>
        <pt x="139" y="514" on="1"/>
        <pt x="150" y="531" on="1"/>
        <pt x="218" y="524" on="0"/>
        <pt x="282" y="524" on="0"/>
        <pt x="371" y="532" on="0"/>
        <pt x="385" y="532" on="1"/>
        <pt x="575" y="532" on="0"/>
        <pt x="623" y="412" on="1"/>
        <pt x="637" y="373" on="0"/>
        <pt x="637" y="302" on="0"/>
        <pt x="631" y="271" on="1"/>
        <pt x="602" y="133" on="0"/>
        <pt x="402" y="-1" on="0"/>
      </contour>
      <contour>
        <pt x="563" y="326" on="1"/>
        <pt x="563" y="413" on="0"/>
        <pt x="449" y="510" on="0"/>
        <pt x="362" y="510" on="1"/>
        <pt x="300" y="510" on="0"/>
        <pt x="287" y="498" on="1"/>
        <pt x="254" y="449" on="0"/>
        <pt x="189" y="60" on="1"/>
        <pt x="200" y="19" on="0"/>
        <pt x="285" y="19" on="1"/>
        <pt x="508" y="19" on="0"/>
        <pt x="558" y="275" on="1"/>
        <pt x="563" y="305" on="0"/>
      </contour>
      <contour>
        <pt x="330" y="666" on="1"/>
        <pt x="353" y="666" on="0"/>
        <pt x="407" y="601" on="1"/>
        <pt x="407" y="598" on="0"/>
        <pt x="413" y="601" on="1"/>
        <pt x="424" y="611" on="0"/>
        <pt x="488" y="654" on="0"/>
        <pt x="507" y="661" on="0"/>
        <pt x="516" y="659" on="1"/>
        <pt x="443" y="610" on="0"/>
        <pt x="403" y="575" on="1"/>
        <pt x="391" y="575" on="1"/>
        <pt x="367" y="615" on="0"/>
        <pt x="323" y="645" on="1"/>
        <pt x="310" y="653" on="0"/>
        <pt x="305" y="653" on="1"/>
        <pt x="305" y="656" on="1"/>
      </contour>
    </TTGlyph>
    <TTGlyph name="D.roman_croat" xMin="9" yMin="-2" xMax="637" yMax="532">
      <contour>
        <pt x="273" y="-1" on="1"/>
        <pt x="153" y="4" on="1"/>
        <pt x="94" y="4" on="0"/>
        <pt x="9" y="-2" on="1"/>
        <pt x="20" y="14" on="1"/>
        <pt x="23" y="13" on="0"/>
        <pt x="58" y="13" on="0"/>
        <pt x="78" y="21" on="1"/>
        <pt x="110" y="33" on="0"/>
        <pt x="132" y="90" on="0"/>
        <pt x="160" y="229" on="0"/>
        <pt x="164" y="242" on="1"/>
        <pt x="130" y="242" on="0"/>
        <pt x="92" y="239" on="1"/>
        <pt x="86" y="238" on="0"/>
        <pt x="114" y="267" on="0"/>
        <pt x="119" y="267" on="1"/>
        <pt x="133" y="265" on="0"/>
        <pt x="168" y="263" on="1"/>
        <pt x="205" y="441" on="0"/>
        <pt x="205" y="490" on="1"/>
        <pt x="205" y="517" on="0"/>
        <pt x="167" y="517" on="1"/>
        <pt x="154" y="517" on="0"/>
        <pt x="139" y="514" on="1"/>
        <pt x="150" y="531" on="1"/>
        <pt x="218" y="524" on="0"/>
        <pt x="282" y="524" on="0"/>
        <pt x="371" y="532" on="0"/>
        <pt x="385" y="532" on="1"/>
        <pt x="575" y="532" on="0"/>
        <pt x="623" y="412" on="1"/>
        <pt x="637" y="373" on="0"/>
        <pt x="637" y="302" on="0"/>
        <pt x="631" y="271" on="1"/>
        <pt x="602" y="133" on="0"/>
        <pt x="402" y="-1" on="0"/>
      </contour>
      <contour>
        <pt x="285" y="19" on="1"/>
        <pt x="508" y="19" on="0"/>
        <pt x="558" y="275" on="1"/>
        <pt x="563" y="305" on="0"/>
        <pt x="563" y="326" on="1"/>
        <pt x="563" y="413" on="0"/>
        <pt x="449" y="510" on="0"/>
        <pt x="362" y="510" on="1"/>
        <pt x="300" y="510" on="0"/>
        <pt x="287" y="498" on="1"/>
        <pt x="265" y="467" on="0"/>
        <pt x="225" y="263" on="1"/>
        <pt x="248" y="263" on="0"/>
        <pt x="302" y="266" on="1"/>
        <pt x="308" y="266" on="0"/>
        <pt x="279" y="237" on="0"/>
        <pt x="274" y="238" on="1"/>
        <pt x="221" y="241" on="1"/>
        <pt x="204" y="152" on="0"/>
        <pt x="189" y="60" on="1"/>
        <pt x="200" y="19" on="0"/>
      </contour>
    </TTGlyph>
    <TTGlyph name="D.sm" xMin="2" yMin="-2" xMax="445" yMax="373">
      <contour>
        <pt x="177" y="368" on="1"/>
        <pt x="268" y="373" on="1"/>
        <pt x="400" y="373" on="0"/>
        <pt x="434" y="289" on="1"/>
        <pt x="445" y="261" on="0"/>
        <pt x="445" y="232" on="1"/>
        <pt x="445" y="121" on="0"/>
        <pt x="289" y="-1" on="0"/>
        <pt x="189" y="-1" on="1"/>
        <pt x="107" y="3" on="1"/>
        <pt x="67" y="3" on="0"/>
        <pt x="2" y="-2" on="1"/>
        <pt x="15" y="18" on="1"/>
        <pt x="21" y="16" on="0"/>
        <pt x="25" y="16" on="1"/>
        <pt x="69" y="16" on="0"/>
        <pt x="91" y="66" on="0"/>
        <pt x="139" y="328" on="0"/>
        <pt x="139" y="355" on="0"/>
        <pt x="115" y="355" on="1"/>
        <pt x="105" y="355" on="0"/>
        <pt x="90" y="352" on="1"/>
        <pt x="104" y="372" on="1"/>
        <pt x="156" y="368" on="0"/>
      </contour>
      <contour>
        <pt x="386" y="228" on="1"/>
        <pt x="386" y="285" on="0"/>
        <pt x="309" y="351" on="0"/>
        <pt x="250" y="351" on="1"/>
        <pt x="219" y="351" on="0"/>
        <pt x="200" y="338" on="0"/>
        <pt x="193" y="330" on="0"/>
        <pt x="184" y="301" on="0"/>
        <pt x="180" y="281" on="0"/>
        <pt x="175" y="255" on="1"/>
        <pt x="167" y="214" on="0"/>
        <pt x="156" y="165" on="0"/>
        <pt x="136" y="45" on="1"/>
        <pt x="142" y="20" on="0"/>
        <pt x="199" y="20" on="1"/>
        <pt x="351" y="20" on="0"/>
        <pt x="382" y="192" on="1"/>
        <pt x="386" y="209" on="0"/>
      </contour>
    </TTGlyph>
    <TTGlyph name="Dcaron" xMin="-2" yMin="-19" xMax="684" yMax="667">
      <contour>
        <pt x="228" y="544" on="1"/>
        <pt x="427" y="549" on="1"/>
        <pt x="566" y="549" on="0"/>
        <pt x="630" y="500" on="1"/>
        <pt x="654" y="481" on="0"/>
        <pt x="684" y="415" on="0"/>
        <pt x="684" y="371" on="1"/>
        <pt x="684" y="269" on="0"/>
        <pt x="616" y="167" on="1"/>
        <pt x="494" y="-16" on="0"/>
        <pt x="274" y="-16" on="1"/>
        <pt x="197" y="-16" on="0"/>
        <pt x="138" y="14" on="1"/>
        <pt x="120" y="23" on="0"/>
        <pt x="90" y="23" on="0"/>
        <pt x="24" y="-19" on="0"/>
        <pt x="-2" y="-19" on="0"/>
        <pt x="-2" y="-13" on="1"/>
        <pt x="0" y="-10" on="1"/>
        <pt x="6" y="-8" on="1"/>
        <pt x="6" y="-9" on="0"/>
        <pt x="13" y="-7" on="1"/>
        <pt x="45" y="4" on="0"/>
        <pt x="64" y="38" on="1"/>
        <pt x="93" y="86" on="0"/>
        <pt x="240" y="357" on="1"/>
        <pt x="308" y="491" on="1"/>
        <pt x="323" y="516" on="0"/>
        <pt x="367" y="531" on="1"/>
        <pt x="343" y="531" on="1"/>
        <pt x="277" y="531" on="0"/>
        <pt x="126" y="504" on="0"/>
        <pt x="108" y="470" on="1"/>
        <pt x="98" y="452" on="0"/>
        <pt x="98" y="423" on="0"/>
        <pt x="107" y="407" on="0"/>
        <pt x="116" y="400" on="0"/>
        <pt x="116" y="399" on="1"/>
        <pt x="116" y="393" on="0"/>
        <pt x="100" y="393" on="0"/>
        <pt x="85" y="416" on="1"/>
        <pt x="64" y="449" on="0"/>
        <pt x="64" y="473" on="1"/>
        <pt x="64" y="544" on="0"/>
      </contour>
      <contour>
        <pt x="593" y="229" on="1"/>
        <pt x="623" y="305" on="0"/>
        <pt x="623" y="442" on="0"/>
        <pt x="529" y="528" on="0"/>
        <pt x="451" y="528" on="1"/>
        <pt x="398" y="528" on="0"/>
        <pt x="362" y="487" on="0"/>
        <pt x="317" y="409" on="0"/>
        <pt x="289" y="354" on="0"/>
        <pt x="272" y="319" on="1"/>
        <pt x="261" y="295" on="0"/>
        <pt x="161" y="102" on="0"/>
        <pt x="146" y="69" on="0"/>
        <pt x="146" y="42" on="0"/>
        <pt x="171" y="21" on="1"/>
        <pt x="201" y="-2" on="0"/>
        <pt x="262" y="-2" on="1"/>
        <pt x="373" y="-2" on="0"/>
        <pt x="550" y="125" on="0"/>
      </contour>
      <contour>
        <pt x="409" y="667" on="1"/>
        <pt x="432" y="667" on="0"/>
        <pt x="486" y="602" on="1"/>
        <pt x="486" y="599" on="0"/>
        <pt x="492" y="602" on="1"/>
        <pt x="503" y="612" on="0"/>
        <pt x="567" y="655" on="0"/>
        <pt x="586" y="662" on="0"/>
        <pt x="595" y="660" on="1"/>
        <pt x="522" y="611" on="0"/>
        <pt x="482" y="576" on="1"/>
        <pt x="470" y="576" on="1"/>
        <pt x="446" y="616" on="0"/>
        <pt x="402" y="646" on="1"/>
        <pt x="389" y="654" on="0"/>
        <pt x="384" y="654" on="1"/>
        <pt x="384" y="657" on="1"/>
      </contour>
    </TTGlyph>
    <TTGlyph name="Dcroat" xMin="-2" yMin="-19" xMax="684" yMax="549">
      <contour>
        <pt x="228" y="544" on="1"/>
        <pt x="427" y="549" on="1"/>
        <pt x="566" y="549" on="0"/>
        <pt x="630" y="500" on="1"/>
        <pt x="654" y="481" on="0"/>
        <pt x="684" y="415" on="0"/>
        <pt x="684" y="371" on="1"/>
        <pt x="684" y="269" on="0"/>
        <pt x="616" y="167" on="1"/>
        <pt x="494" y="-16" on="0"/>
        <pt x="274" y="-16" on="1"/>
        <pt x="197" y="-16" on="0"/>
        <pt x="138" y="14" on="1"/>
        <pt x="120" y="23" on="0"/>
        <pt x="90" y="23" on="0"/>
        <pt x="24" y="-19" on="0"/>
        <pt x="-2" y="-19" on="0"/>
        <pt x="-2" y="-13" on="1"/>
        <pt x="0" y="-10" on="1"/>
        <pt x="6" y="-8" on="1"/>
        <pt x="6" y="-9" on="0"/>
        <pt x="13" y="-7" on="1"/>
        <pt x="45" y="4" on="0"/>
        <pt x="64" y="38" on="1"/>
        <pt x="109" y="111" on="0"/>
        <pt x="180" y="244" on="1"/>
        <pt x="166" y="243" on="0"/>
        <pt x="139" y="243" on="1"/>
        <pt x="135" y="243" on="0"/>
        <pt x="130" y="250" on="1"/>
        <pt x="123" y="258" on="0"/>
        <pt x="126" y="263" on="1"/>
        <pt x="135" y="265" on="0"/>
        <pt x="192" y="268" on="1"/>
        <pt x="285" y="444" on="1"/>
        <pt x="299" y="476" on="0"/>
        <pt x="308" y="491" on="1"/>
        <pt x="323" y="516" on="0"/>
        <pt x="367" y="531" on="1"/>
        <pt x="343" y="531" on="1"/>
        <pt x="277" y="531" on="0"/>
        <pt x="126" y="504" on="0"/>
        <pt x="108" y="470" on="1"/>
        <pt x="98" y="452" on="0"/>
        <pt x="98" y="423" on="0"/>
        <pt x="107" y="407" on="0"/>
        <pt x="116" y="400" on="0"/>
        <pt x="116" y="399" on="1"/>
        <pt x="116" y="393" on="0"/>
        <pt x="100" y="393" on="0"/>
        <pt x="85" y="416" on="1"/>
        <pt x="64" y="449" on="0"/>
        <pt x="64" y="473" on="1"/>
        <pt x="64" y="544" on="0"/>
      </contour>
      <contour>
        <pt x="293" y="252" on="1"/>
        <pt x="264" y="252" on="0"/>
        <pt x="237" y="249" on="1"/>
        <pt x="155" y="90" on="0"/>
        <pt x="146" y="69" on="0"/>
        <pt x="146" y="42" on="0"/>
        <pt x="171" y="21" on="1"/>
        <pt x="201" y="-2" on="0"/>
        <pt x="262" y="-2" on="1"/>
        <pt x="373" y="-2" on="0"/>
        <pt x="550" y="125" on="0"/>
        <pt x="593" y="229" on="1"/>
        <pt x="623" y="305" on="0"/>
        <pt x="623" y="442" on="0"/>
        <pt x="529" y="528" on="0"/>
        <pt x="451" y="528" on="1"/>
        <pt x="398" y="528" on="0"/>
        <pt x="362" y="487" on="0"/>
        <pt x="317" y="409" on="0"/>
        <pt x="289" y="354" on="0"/>
        <pt x="255" y="284" on="0"/>
        <pt x="246" y="267" on="1"/>
        <pt x="246" y="266" on="1"/>
        <pt x="300" y="263" on="0"/>
        <pt x="300" y="257" on="1"/>
        <pt x="298" y="252" on="0"/>
      </contour>
    </TTGlyph>
    <TTGlyph name="Delta" xMin="49" yMin="0" xMax="594" yMax="575">
      <contour>
        <pt x="425" y="575" on="1"/>
        <pt x="483" y="575" on="1"/>
        <pt x="477" y="562" on="0"/>
        <pt x="477" y="535" on="1"/>
        <pt x="477" y="471" on="0"/>
        <pt x="553" y="117" on="0"/>
        <pt x="594" y="1" on="1"/>
        <pt x="131" y="0" on="1"/>
        <pt x="49" y="0" on="1"/>
        <pt x="83" y="62" on="0"/>
        <pt x="345" y="499" on="0"/>
        <pt x="360" y="525" on="0"/>
        <pt x="366" y="535" on="0"/>
        <pt x="381" y="554" on="0"/>
        <pt x="386" y="558" on="1"/>
        <pt x="407" y="575" on="0"/>
      </contour>
      <contour>
        <pt x="149" y="44" on="1"/>
        <pt x="487" y="44" on="1"/>
        <pt x="454" y="145" on="0"/>
        <pt x="393" y="455" on="0"/>
        <pt x="392" y="503" on="1"/>
        <pt x="335" y="419" on="0"/>
        <pt x="190" y="141" on="0"/>
      </contour>
    </TTGlyph>
    <TTGlyph name="E" xMin="33" yMin="-12" xMax="582" yMax="549">
      <contour>
        <pt x="245" y="544" on="1"/>
        <pt x="474" y="548" on="1"/>
        <pt x="557" y="548" on="0"/>
        <pt x="573" y="534" on="1"/>
        <pt x="582" y="527" on="0"/>
        <pt x="582" y="513" on="0"/>
        <pt x="580" y="505" on="1"/>
        <pt x="576" y="476" on="0"/>
        <pt x="551" y="439" on="1"/>
        <pt x="544" y="426" on="0"/>
        <pt x="534" y="427" on="1"/>
        <pt x="530" y="427" on="0"/>
        <pt x="537" y="456" on="0"/>
        <pt x="537" y="474" on="1"/>
        <pt x="537" y="516" on="0"/>
        <pt x="505" y="526" on="1"/>
        <pt x="491" y="530" on="0"/>
        <pt x="429" y="530" on="0"/>
        <pt x="358" y="526" on="0"/>
        <pt x="344" y="508" on="1"/>
        <pt x="313" y="464" on="0"/>
        <pt x="222" y="307" on="1"/>
        <pt x="218" y="296" on="0"/>
        <pt x="230" y="296" on="1"/>
        <pt x="346" y="294" on="1"/>
        <pt x="425" y="294" on="0"/>
        <pt x="452" y="308" on="1"/>
        <pt x="461" y="314" on="0"/>
        <pt x="460" y="306" on="1"/>
        <pt x="459" y="290" on="0"/>
        <pt x="425" y="265" on="0"/>
        <pt x="412" y="265" on="1"/>
        <pt x="255" y="269" on="1"/>
        <pt x="231" y="269" on="0"/>
        <pt x="200" y="267" on="0"/>
        <pt x="191" y="250" on="0"/>
        <pt x="180" y="228" on="1"/>
        <pt x="111" y="100" on="0"/>
        <pt x="111" y="63" on="1"/>
        <pt x="111" y="10" on="0"/>
        <pt x="211" y="8" on="1"/>
        <pt x="420" y="8" on="0"/>
        <pt x="518" y="133" on="1"/>
        <pt x="522" y="139" on="0"/>
        <pt x="526" y="124" on="0"/>
        <pt x="520" y="116" on="0"/>
        <pt x="482" y="67" on="0"/>
        <pt x="468" y="52" on="0"/>
        <pt x="454" y="36" on="1"/>
        <pt x="428" y="9" on="0"/>
        <pt x="399" y="0" on="1"/>
        <pt x="357" y="-12" on="0"/>
        <pt x="172" y="-12" on="0"/>
        <pt x="53" y="0" on="0"/>
        <pt x="39" y="21" on="1"/>
        <pt x="34" y="29" on="0"/>
        <pt x="34" y="59" on="0"/>
        <pt x="49" y="89" on="1"/>
        <pt x="78" y="141" on="0"/>
        <pt x="186" y="329" on="0"/>
        <pt x="249" y="442" on="0"/>
        <pt x="299" y="520" on="0"/>
        <pt x="336" y="529" on="1"/>
        <pt x="207" y="522" on="0"/>
        <pt x="130" y="490" on="0"/>
        <pt x="109" y="453" on="0"/>
        <pt x="109" y="411" on="0"/>
        <pt x="125" y="401" on="1"/>
        <pt x="129" y="399" on="0"/>
        <pt x="119" y="392" on="0"/>
        <pt x="107" y="399" on="0"/>
        <pt x="94" y="418" on="1"/>
        <pt x="75" y="447" on="0"/>
        <pt x="75" y="473" on="1"/>
        <pt x="75" y="535" on="0"/>
        <pt x="189" y="543" on="1"/>
        <pt x="208" y="544" on="0"/>
        <pt x="240" y="544" on="1"/>
      </contour>
    </TTGlyph>
    <TTGlyph name="E.roman" xMin="8" yMin="-6" xMax="488" yMax="535">
      <contour>
        <pt x="377" y="237" on="1"/>
        <pt x="377" y="271" on="0"/>
        <pt x="264" y="266" on="1"/>
        <pt x="251" y="266" on="0"/>
        <pt x="248" y="266" on="1"/>
        <pt x="226" y="266" on="1"/>
        <pt x="190" y="95" on="0"/>
        <pt x="190" y="50" on="1"/>
        <pt x="190" y="41" on="0"/>
        <pt x="196" y="36" on="1"/>
        <pt x="209" y="22" on="0"/>
        <pt x="367" y="22" on="0"/>
        <pt x="439" y="67" on="0"/>
        <pt x="460" y="114" on="1"/>
        <pt x="469" y="110" on="1"/>
        <pt x="461" y="97" on="0"/>
        <pt x="433" y="28" on="0"/>
        <pt x="405" y="-6" on="0"/>
        <pt x="384" y="-6" on="1"/>
        <pt x="174" y="7" on="1"/>
        <pt x="169" y="7" on="0"/>
        <pt x="8" y="-2" on="1"/>
        <pt x="17" y="14" on="1"/>
        <pt x="29" y="13" on="1"/>
        <pt x="57" y="13" on="0"/>
        <pt x="107" y="35" on="0"/>
        <pt x="115" y="53" on="1"/>
        <pt x="124" y="72" on="0"/>
        <pt x="182" y="340" on="1"/>
        <pt x="205" y="440" on="0"/>
        <pt x="205" y="505" on="0"/>
        <pt x="182" y="520" on="0"/>
        <pt x="153" y="520" on="0"/>
        <pt x="141" y="519" on="0"/>
        <pt x="137" y="519" on="1"/>
        <pt x="147" y="535" on="1"/>
        <pt x="185" y="528" on="0"/>
        <pt x="254" y="528" on="1"/>
        <pt x="482" y="530" on="1"/>
        <pt x="488" y="530" on="0"/>
        <pt x="488" y="521" on="1"/>
        <pt x="447" y="419" on="1"/>
        <pt x="431" y="422" on="1"/>
        <pt x="453" y="464" on="0"/>
        <pt x="453" y="472" on="1"/>
        <pt x="453" y="488" on="0"/>
        <pt x="409" y="501" on="0"/>
        <pt x="326" y="501" on="0"/>
        <pt x="287" y="498" on="1"/>
        <pt x="265" y="451" on="0"/>
        <pt x="231" y="290" on="1"/>
        <pt x="401" y="292" on="1"/>
        <pt x="407" y="292" on="0"/>
        <pt x="407" y="284" on="0"/>
        <pt x="403" y="274" on="1"/>
        <pt x="391" y="245" on="0"/>
        <pt x="385" y="215" on="1"/>
        <pt x="368" y="211" on="1"/>
        <pt x="377" y="229" on="0"/>
      </contour>
    </TTGlyph>
    <TTGlyph name="E.roman_acute" xMin="8" yMin="-6" xMax="488" yMax="680">
      <contour>
        <pt x="377" y="237" on="1"/>
        <pt x="377" y="271" on="0"/>
        <pt x="264" y="266" on="1"/>
        <pt x="251" y="266" on="0"/>
        <pt x="248" y="266" on="1"/>
        <pt x="226" y="266" on="1"/>
        <pt x="190" y="95" on="0"/>
        <pt x="190" y="50" on="1"/>
        <pt x="190" y="41" on="0"/>
        <pt x="196" y="36" on="1"/>
        <pt x="209" y="22" on="0"/>
        <pt x="367" y="22" on="0"/>
        <pt x="439" y="67" on="0"/>
        <pt x="460" y="114" on="1"/>
        <pt x="469" y="110" on="1"/>
        <pt x="461" y="97" on="0"/>
        <pt x="433" y="28" on="0"/>
        <pt x="405" y="-6" on="0"/>
        <pt x="384" y="-6" on="1"/>
        <pt x="174" y="7" on="1"/>
        <pt x="169" y="7" on="0"/>
        <pt x="8" y="-2" on="1"/>
        <pt x="17" y="14" on="1"/>
        <pt x="29" y="13" on="1"/>
        <pt x="57" y="13" on="0"/>
        <pt x="107" y="35" on="0"/>
        <pt x="115" y="53" on="1"/>
        <pt x="124" y="72" on="0"/>
        <pt x="182" y="340" on="1"/>
        <pt x="205" y="440" on="0"/>
        <pt x="205" y="505" on="0"/>
        <pt x="182" y="520" on="0"/>
        <pt x="153" y="520" on="0"/>
        <pt x="141" y="519" on="0"/>
        <pt x="137" y="519" on="1"/>
        <pt x="147" y="535" on="1"/>
        <pt x="185" y="528" on="0"/>
        <pt x="254" y="528" on="1"/>
        <pt x="482" y="530" on="1"/>
        <pt x="488" y="530" on="0"/>
        <pt x="488" y="521" on="1"/>
        <pt x="447" y="419" on="1"/>
        <pt x="431" y="422" on="1"/>
        <pt x="453" y="464" on="0"/>
        <pt x="453" y="472" on="1"/>
        <pt x="453" y="488" on="0"/>
        <pt x="409" y="501" on="0"/>
        <pt x="326" y="501" on="0"/>
        <pt x="287" y="498" on="1"/>
        <pt x="265" y="451" on="0"/>
        <pt x="231" y="290" on="1"/>
        <pt x="401" y="292" on="1"/>
        <pt x="407" y="292" on="0"/>
        <pt x="407" y="284" on="0"/>
        <pt x="403" y="274" on="1"/>
        <pt x="391" y="245" on="0"/>
        <pt x="385" y="215" on="1"/>
        <pt x="368" y="211" on="1"/>
        <pt x="377" y="229" on="0"/>
      </contour>
      <contour>
        <pt x="449" y="680" on="1"/>
        <pt x="452" y="680" on="0"/>
        <pt x="452" y="653" on="0"/>
        <pt x="448" y="649" on="1"/>
        <pt x="443" y="640" on="0"/>
        <pt x="329" y="573" on="0"/>
        <pt x="317" y="571" on="1"/>
        <pt x="316" y="571" on="0"/>
        <pt x="318" y="578" on="1"/>
        <pt x="354" y="605" on="0"/>
        <pt x="440" y="680" on="0"/>
      </contour>
    </TTGlyph>
    <TTGlyph name="E.roman_caron" xMin="8" yMin="-6" xMax="488" yMax="660">
      <contour>
        <pt x="377" y="237" on="1"/>
        <pt x="377" y="271" on="0"/>
        <pt x="264" y="266" on="1"/>
        <pt x="251" y="266" on="0"/>
        <pt x="248" y="266" on="1"/>
        <pt x="226" y="266" on="1"/>
        <pt x="190" y="95" on="0"/>
        <pt x="190" y="50" on="1"/>
        <pt x="190" y="41" on="0"/>
        <pt x="196" y="36" on="1"/>
        <pt x="209" y="22" on="0"/>
        <pt x="367" y="22" on="0"/>
        <pt x="439" y="67" on="0"/>
        <pt x="460" y="114" on="1"/>
        <pt x="469" y="110" on="1"/>
        <pt x="461" y="97" on="0"/>
        <pt x="433" y="28" on="0"/>
        <pt x="405" y="-6" on="0"/>
        <pt x="384" y="-6" on="1"/>
        <pt x="174" y="7" on="1"/>
        <pt x="169" y="7" on="0"/>
        <pt x="8" y="-2" on="1"/>
        <pt x="17" y="14" on="1"/>
        <pt x="29" y="13" on="1"/>
        <pt x="57" y="13" on="0"/>
        <pt x="107" y="35" on="0"/>
        <pt x="115" y="53" on="1"/>
        <pt x="124" y="72" on="0"/>
        <pt x="182" y="340" on="1"/>
        <pt x="205" y="440" on="0"/>
        <pt x="205" y="505" on="0"/>
        <pt x="182" y="520" on="0"/>
        <pt x="153" y="520" on="0"/>
        <pt x="141" y="519" on="0"/>
        <pt x="137" y="519" on="1"/>
        <pt x="147" y="535" on="1"/>
        <pt x="185" y="528" on="0"/>
        <pt x="254" y="528" on="1"/>
        <pt x="482" y="530" on="1"/>
        <pt x="488" y="530" on="0"/>
        <pt x="488" y="521" on="1"/>
        <pt x="447" y="419" on="1"/>
        <pt x="431" y="422" on="1"/>
        <pt x="453" y="464" on="0"/>
        <pt x="453" y="472" on="1"/>
        <pt x="453" y="488" on="0"/>
        <pt x="409" y="501" on="0"/>
        <pt x="326" y="501" on="0"/>
        <pt x="287" y="498" on="1"/>
        <pt x="265" y="451" on="0"/>
        <pt x="231" y="290" on="1"/>
        <pt x="401" y="292" on="1"/>
        <pt x="407" y="292" on="0"/>
        <pt x="407" y="284" on="0"/>
        <pt x="403" y="274" on="1"/>
        <pt x="391" y="245" on="0"/>
        <pt x="385" y="215" on="1"/>
        <pt x="368" y="211" on="1"/>
        <pt x="377" y="229" on="0"/>
      </contour>
      <contour>
        <pt x="270" y="660" on="1"/>
        <pt x="293" y="660" on="0"/>
        <pt x="347" y="595" on="1"/>
        <pt x="347" y="592" on="0"/>
        <pt x="353" y="595" on="1"/>
        <pt x="364" y="605" on="0"/>
        <pt x="428" y="648" on="0"/>
        <pt x="447" y="655" on="0"/>
        <pt x="456" y="653" on="1"/>
        <pt x="383" y="604" on="0"/>
        <pt x="343" y="569" on="1"/>
        <pt x="331" y="569" on="1"/>
        <pt x="307" y="609" on="0"/>
        <pt x="263" y="639" on="1"/>
        <pt x="250" y="647" on="0"/>
        <pt x="245" y="647" on="1"/>
        <pt x="245" y="650" on="1"/>
      </contour>
    </TTGlyph>
    <TTGlyph name="E.roman_circumflex" xMin="8" yMin="-6" xMax="488" yMax="672">
      <contour>
        <pt x="377" y="237" on="1"/>
        <pt x="377" y="271" on="0"/>
        <pt x="264" y="266" on="1"/>
        <pt x="251" y="266" on="0"/>
        <pt x="248" y="266" on="1"/>
        <pt x="226" y="266" on="1"/>
        <pt x="190" y="95" on="0"/>
        <pt x="190" y="50" on="1"/>
        <pt x="190" y="41" on="0"/>
        <pt x="196" y="36" on="1"/>
        <pt x="209" y="22" on="0"/>
        <pt x="367" y="22" on="0"/>
        <pt x="439" y="67" on="0"/>
        <pt x="460" y="114" on="1"/>
        <pt x="469" y="110" on="1"/>
        <pt x="461" y="97" on="0"/>
        <pt x="433" y="28" on="0"/>
        <pt x="405" y="-6" on="0"/>
        <pt x="384" y="-6" on="1"/>
        <pt x="174" y="7" on="1"/>
        <pt x="169" y="7" on="0"/>
        <pt x="8" y="-2" on="1"/>
        <pt x="17" y="14" on="1"/>
        <pt x="29" y="13" on="1"/>
        <pt x="57" y="13" on="0"/>
        <pt x="107" y="35" on="0"/>
        <pt x="115" y="53" on="1"/>
        <pt x="124" y="72" on="0"/>
        <pt x="182" y="340" on="1"/>
        <pt x="205" y="440" on="0"/>
        <pt x="205" y="505" on="0"/>
        <pt x="182" y="520" on="0"/>
        <pt x="153" y="520" on="0"/>
        <pt x="141" y="519" on="0"/>
        <pt x="137" y="519" on="1"/>
        <pt x="147" y="535" on="1"/>
        <pt x="185" y="528" on="0"/>
        <pt x="254" y="528" on="1"/>
        <pt x="482" y="530" on="1"/>
        <pt x="488" y="530" on="0"/>
        <pt x="488" y="521" on="1"/>
        <pt x="447" y="419" on="1"/>
        <pt x="431" y="422" on="1"/>
        <pt x="453" y="464" on="0"/>
        <pt x="453" y="472" on="1"/>
        <pt x="453" y="488" on="0"/>
        <pt x="409" y="501" on="0"/>
        <pt x="326" y="501" on="0"/>
        <pt x="287" y="498" on="1"/>
        <pt x="265" y="451" on="0"/>
        <pt x="231" y="290" on="1"/>
        <pt x="401" y="292" on="1"/>
        <pt x="407" y="292" on="0"/>
        <pt x="407" y="284" on="0"/>
        <pt x="403" y="274" on="1"/>
        <pt x="391" y="245" on="0"/>
        <pt x="385" y="215" on="1"/>
        <pt x="368" y="211" on="1"/>
        <pt x="377" y="229" on="0"/>
      </contour>
      <contour>
        <pt x="430" y="581" on="1"/>
        <pt x="407" y="581" on="0"/>
        <pt x="353" y="646" on="1"/>
        <pt x="353" y="649" on="0"/>
        <pt x="347" y="646" on="1"/>
        <pt x="336" y="636" on="0"/>
        <pt x="272" y="593" on="0"/>
        <pt x="253" y="586" on="0"/>
        <pt x="244" y="588" on="1"/>
        <pt x="317" y="637" on="0"/>
        <pt x="357" y="672" on="1"/>
        <pt x="369" y="672" on="1"/>
        <pt x="393" y="632" on="0"/>
        <pt x="437" y="602" on="1"/>
        <pt x="450" y="594" on="0"/>
        <pt x="455" y="594" on="1"/>
        <pt x="455" y="591" on="1"/>
      </contour>
    </TTGlyph>
    <TTGlyph name="E.roman_dieresis" xMin="8" yMin="-6" xMax="488" yMax="638">
      <contour>
        <pt x="377" y="237" on="1"/>
        <pt x="377" y="271" on="0"/>
        <pt x="264" y="266" on="1"/>
        <pt x="251" y="266" on="0"/>
        <pt x="248" y="266" on="1"/>
        <pt x="226" y="266" on="1"/>
        <pt x="190" y="95" on="0"/>
        <pt x="190" y="50" on="1"/>
        <pt x="190" y="41" on="0"/>
        <pt x="196" y="36" on="1"/>
        <pt x="209" y="22" on="0"/>
        <pt x="367" y="22" on="0"/>
        <pt x="439" y="67" on="0"/>
        <pt x="460" y="114" on="1"/>
        <pt x="469" y="110" on="1"/>
        <pt x="461" y="97" on="0"/>
        <pt x="433" y="28" on="0"/>
        <pt x="405" y="-6" on="0"/>
        <pt x="384" y="-6" on="1"/>
        <pt x="174" y="7" on="1"/>
        <pt x="169" y="7" on="0"/>
        <pt x="8" y="-2" on="1"/>
        <pt x="17" y="14" on="1"/>
        <pt x="29" y="13" on="1"/>
        <pt x="57" y="13" on="0"/>
        <pt x="107" y="35" on="0"/>
        <pt x="115" y="53" on="1"/>
        <pt x="124" y="72" on="0"/>
        <pt x="182" y="340" on="1"/>
        <pt x="205" y="440" on="0"/>
        <pt x="205" y="505" on="0"/>
        <pt x="182" y="520" on="0"/>
        <pt x="153" y="520" on="0"/>
        <pt x="141" y="519" on="0"/>
        <pt x="137" y="519" on="1"/>
        <pt x="147" y="535" on="1"/>
        <pt x="185" y="528" on="0"/>
        <pt x="254" y="528" on="1"/>
        <pt x="482" y="530" on="1"/>
        <pt x="488" y="530" on="0"/>
        <pt x="488" y="521" on="1"/>
        <pt x="447" y="419" on="1"/>
        <pt x="431" y="422" on="1"/>
        <pt x="453" y="464" on="0"/>
        <pt x="453" y="472" on="1"/>
        <pt x="453" y="488" on="0"/>
        <pt x="409" y="501" on="0"/>
        <pt x="326" y="501" on="0"/>
        <pt x="287" y="498" on="1"/>
        <pt x="265" y="451" on="0"/>
        <pt x="231" y="290" on="1"/>
        <pt x="401" y="292" on="1"/>
        <pt x="407" y="292" on="0"/>
        <pt x="407" y="284" on="0"/>
        <pt x="403" y="274" on="1"/>
        <pt x="391" y="245" on="0"/>
        <pt x="385" y="215" on="1"/>
        <pt x="368" y="211" on="1"/>
        <pt x="377" y="229" on="0"/>
      </contour>
      <contour>
        <pt x="388" y="626" on="0"/>
        <pt x="399" y="633" on="0"/>
        <pt x="407" y="637" on="0"/>
        <pt x="409" y="637" on="0"/>
        <pt x="429" y="625" on="0"/>
        <pt x="441" y="625" on="0"/>
        <pt x="450" y="627" on="0"/>
        <pt x="450" y="622" on="1"/>
        <pt x="449" y="618" on="0"/>
        <pt x="444" y="612" on="1"/>
        <pt x="416" y="589" on="0"/>
        <pt x="407" y="589" on="1"/>
        <pt x="387" y="589" on="0"/>
        <pt x="370" y="611" on="1"/>
        <pt x="369" y="612" on="0"/>
        <pt x="376" y="618" on="0"/>
      </contour>
      <contour>
        <pt x="291" y="589" on="1"/>
        <pt x="254" y="589" on="0"/>
        <pt x="254" y="612" on="1"/>
        <pt x="254" y="617" on="0"/>
        <pt x="291" y="637" on="0"/>
        <pt x="293" y="637" on="0"/>
        <pt x="313" y="625" on="0"/>
        <pt x="325" y="625" on="0"/>
        <pt x="334" y="627" on="0"/>
        <pt x="334" y="622" on="1"/>
        <pt x="333" y="618" on="0"/>
        <pt x="328" y="612" on="1"/>
        <pt x="300" y="589" on="0"/>
      </contour>
    </TTGlyph>
    <TTGlyph name="E.roman_dotaccent" xMin="8" yMin="-6" xMax="488" yMax="624">
      <contour>
        <pt x="377" y="237" on="1"/>
        <pt x="377" y="271" on="0"/>
        <pt x="264" y="266" on="1"/>
        <pt x="251" y="266" on="0"/>
        <pt x="248" y="266" on="1"/>
        <pt x="226" y="266" on="1"/>
        <pt x="190" y="95" on="0"/>
        <pt x="190" y="50" on="1"/>
        <pt x="190" y="41" on="0"/>
        <pt x="196" y="36" on="1"/>
        <pt x="209" y="22" on="0"/>
        <pt x="367" y="22" on="0"/>
        <pt x="439" y="67" on="0"/>
        <pt x="460" y="114" on="1"/>
        <pt x="469" y="110" on="1"/>
        <pt x="461" y="97" on="0"/>
        <pt x="433" y="28" on="0"/>
        <pt x="405" y="-6" on="0"/>
        <pt x="384" y="-6" on="1"/>
        <pt x="174" y="7" on="1"/>
        <pt x="169" y="7" on="0"/>
        <pt x="8" y="-2" on="1"/>
        <pt x="17" y="14" on="1"/>
        <pt x="29" y="13" on="1"/>
        <pt x="57" y="13" on="0"/>
        <pt x="107" y="35" on="0"/>
        <pt x="115" y="53" on="1"/>
        <pt x="124" y="72" on="0"/>
        <pt x="182" y="340" on="1"/>
        <pt x="205" y="440" on="0"/>
        <pt x="205" y="505" on="0"/>
        <pt x="182" y="520" on="0"/>
        <pt x="153" y="520" on="0"/>
        <pt x="141" y="519" on="0"/>
        <pt x="137" y="519" on="1"/>
        <pt x="147" y="535" on="1"/>
        <pt x="185" y="528" on="0"/>
        <pt x="254" y="528" on="1"/>
        <pt x="482" y="530" on="1"/>
        <pt x="488" y="530" on="0"/>
        <pt x="488" y="521" on="1"/>
        <pt x="447" y="419" on="1"/>
        <pt x="431" y="422" on="1"/>
        <pt x="453" y="464" on="0"/>
        <pt x="453" y="472" on="1"/>
        <pt x="453" y="488" on="0"/>
        <pt x="409" y="501" on="0"/>
        <pt x="326" y="501" on="0"/>
        <pt x="287" y="498" on="1"/>
        <pt x="265" y="451" on="0"/>
        <pt x="231" y="290" on="1"/>
        <pt x="401" y="292" on="1"/>
        <pt x="407" y="292" on="0"/>
        <pt x="407" y="284" on="0"/>
        <pt x="403" y="274" on="1"/>
        <pt x="391" y="245" on="0"/>
        <pt x="385" y="215" on="1"/>
        <pt x="368" y="211" on="1"/>
        <pt x="377" y="229" on="0"/>
      </contour>
      <contour>
        <pt x="349" y="576" on="1"/>
        <pt x="329" y="576" on="0"/>
        <pt x="312" y="598" on="1"/>
        <pt x="312" y="600" on="0"/>
        <pt x="322" y="607" on="0"/>
        <pt x="330" y="613" on="0"/>
        <pt x="338" y="618" on="0"/>
        <pt x="342" y="620" on="1"/>
        <pt x="348" y="624" on="0"/>
        <pt x="351" y="624" on="1"/>
        <pt x="371" y="612" on="0"/>
        <pt x="383" y="612" on="0"/>
        <pt x="392" y="614" on="0"/>
        <pt x="392" y="609" on="1"/>
        <pt x="391" y="605" on="0"/>
        <pt x="386" y="599" on="1"/>
        <pt x="358" y="576" on="0"/>
      </contour>
    </TTGlyph>
    <TTGlyph name="E.roman_grave" xMin="8" yMin="-6" xMax="488" yMax="683">
      <contour>
        <pt x="377" y="237" on="1"/>
        <pt x="377" y="271" on="0"/>
        <pt x="264" y="266" on="1"/>
        <pt x="251" y="266" on="0"/>
        <pt x="248" y="266" on="1"/>
        <pt x="226" y="266" on="1"/>
        <pt x="190" y="95" on="0"/>
        <pt x="190" y="50" on="1"/>
        <pt x="190" y="41" on="0"/>
        <pt x="196" y="36" on="1"/>
        <pt x="209" y="22" on="0"/>
        <pt x="367" y="22" on="0"/>
        <pt x="439" y="67" on="0"/>
        <pt x="460" y="114" on="1"/>
        <pt x="469" y="110" on="1"/>
        <pt x="461" y="97" on="0"/>
        <pt x="433" y="28" on="0"/>
        <pt x="405" y="-6" on="0"/>
        <pt x="384" y="-6" on="1"/>
        <pt x="174" y="7" on="1"/>
        <pt x="169" y="7" on="0"/>
        <pt x="8" y="-2" on="1"/>
        <pt x="17" y="14" on="1"/>
        <pt x="29" y="13" on="1"/>
        <pt x="57" y="13" on="0"/>
        <pt x="107" y="35" on="0"/>
        <pt x="115" y="53" on="1"/>
        <pt x="124" y="72" on="0"/>
        <pt x="182" y="340" on="1"/>
        <pt x="205" y="440" on="0"/>
        <pt x="205" y="505" on="0"/>
        <pt x="182" y="520" on="0"/>
        <pt x="153" y="520" on="0"/>
        <pt x="141" y="519" on="0"/>
        <pt x="137" y="519" on="1"/>
        <pt x="147" y="535" on="1"/>
        <pt x="185" y="528" on="0"/>
        <pt x="254" y="528" on="1"/>
        <pt x="482" y="530" on="1"/>
        <pt x="488" y="530" on="0"/>
        <pt x="488" y="521" on="1"/>
        <pt x="447" y="419" on="1"/>
        <pt x="431" y="422" on="1"/>
        <pt x="453" y="464" on="0"/>
        <pt x="453" y="472" on="1"/>
        <pt x="453" y="488" on="0"/>
        <pt x="409" y="501" on="0"/>
        <pt x="326" y="501" on="0"/>
        <pt x="287" y="498" on="1"/>
        <pt x="265" y="451" on="0"/>
        <pt x="231" y="290" on="1"/>
        <pt x="401" y="292" on="1"/>
        <pt x="407" y="292" on="0"/>
        <pt x="407" y="284" on="0"/>
        <pt x="403" y="274" on="1"/>
        <pt x="391" y="245" on="0"/>
        <pt x="385" y="215" on="1"/>
        <pt x="368" y="211" on="1"/>
        <pt x="377" y="229" on="0"/>
      </contour>
      <contour>
        <pt x="268" y="652" on="1"/>
        <pt x="264" y="656" on="0"/>
        <pt x="264" y="683" on="0"/>
        <pt x="267" y="683" on="1"/>
        <pt x="276" y="683" on="0"/>
        <pt x="362" y="608" on="0"/>
        <pt x="398" y="581" on="1"/>
        <pt x="398" y="581" on="0"/>
        <pt x="399" y="574" on="1"/>
        <pt x="387" y="576" on="0"/>
        <pt x="273" y="643" on="0"/>
      </contour>
    </TTGlyph>
    <TTGlyph name="E.roman_macron" xMin="8" yMin="-6" xMax="488" yMax="612">
      <contour>
        <pt x="377" y="237" on="1"/>
        <pt x="377" y="271" on="0"/>
        <pt x="264" y="266" on="1"/>
        <pt x="251" y="266" on="0"/>
        <pt x="248" y="266" on="1"/>
        <pt x="226" y="266" on="1"/>
        <pt x="190" y="95" on="0"/>
        <pt x="190" y="50" on="1"/>
        <pt x="190" y="41" on="0"/>
        <pt x="196" y="36" on="1"/>
        <pt x="209" y="22" on="0"/>
        <pt x="367" y="22" on="0"/>
        <pt x="439" y="67" on="0"/>
        <pt x="460" y="114" on="1"/>
        <pt x="469" y="110" on="1"/>
        <pt x="461" y="97" on="0"/>
        <pt x="433" y="28" on="0"/>
        <pt x="405" y="-6" on="0"/>
        <pt x="384" y="-6" on="1"/>
        <pt x="174" y="7" on="1"/>
        <pt x="169" y="7" on="0"/>
        <pt x="8" y="-2" on="1"/>
        <pt x="17" y="14" on="1"/>
        <pt x="29" y="13" on="1"/>
        <pt x="57" y="13" on="0"/>
        <pt x="107" y="35" on="0"/>
        <pt x="115" y="53" on="1"/>
        <pt x="124" y="72" on="0"/>
        <pt x="182" y="340" on="1"/>
        <pt x="205" y="440" on="0"/>
        <pt x="205" y="505" on="0"/>
        <pt x="182" y="520" on="0"/>
        <pt x="153" y="520" on="0"/>
        <pt x="141" y="519" on="0"/>
        <pt x="137" y="519" on="1"/>
        <pt x="147" y="535" on="1"/>
        <pt x="185" y="528" on="0"/>
        <pt x="254" y="528" on="1"/>
        <pt x="482" y="530" on="1"/>
        <pt x="488" y="530" on="0"/>
        <pt x="488" y="521" on="1"/>
        <pt x="447" y="419" on="1"/>
        <pt x="431" y="422" on="1"/>
        <pt x="453" y="464" on="0"/>
        <pt x="453" y="472" on="1"/>
        <pt x="453" y="488" on="0"/>
        <pt x="409" y="501" on="0"/>
        <pt x="326" y="501" on="0"/>
        <pt x="287" y="498" on="1"/>
        <pt x="265" y="451" on="0"/>
        <pt x="231" y="290" on="1"/>
        <pt x="401" y="292" on="1"/>
        <pt x="407" y="292" on="0"/>
        <pt x="407" y="284" on="0"/>
        <pt x="403" y="274" on="1"/>
        <pt x="391" y="245" on="0"/>
        <pt x="385" y="215" on="1"/>
        <pt x="368" y="211" on="1"/>
        <pt x="377" y="229" on="0"/>
      </contour>
      <contour>
        <pt x="432" y="596" on="1"/>
        <pt x="278" y="587" on="1"/>
        <pt x="274" y="587" on="0"/>
        <pt x="268" y="594" on="1"/>
        <pt x="262" y="602" on="0"/>
        <pt x="265" y="607" on="1"/>
        <pt x="284" y="612" on="0"/>
        <pt x="350" y="612" on="1"/>
        <pt x="420" y="612" on="0"/>
        <pt x="438" y="602" on="1"/>
        <pt x="439" y="602" on="0"/>
        <pt x="437" y="596" on="0"/>
      </contour>
    </TTGlyph>
    <TTGlyph name="E.roman_ogonek" xMin="8" yMin="-169" xMax="488" yMax="535">
      <contour>
        <pt x="384" y="-6" on="1"/>
        <pt x="251" y="3" on="1"/>
        <pt x="234" y="-10" on="0"/>
        <pt x="206" y="-79" on="0"/>
        <pt x="206" y="-131" on="0"/>
        <pt x="223" y="-131" on="1"/>
        <pt x="238" y="-131" on="0"/>
        <pt x="271" y="-105" on="0"/>
        <pt x="303" y="-75" on="0"/>
        <pt x="308" y="-71" on="1"/>
        <pt x="308" y="-78" on="1"/>
        <pt x="303" y="-91" on="1"/>
        <pt x="271" y="-136" on="0"/>
        <pt x="209" y="-162" on="1"/>
        <pt x="194" y="-168" on="0"/>
        <pt x="183" y="-168" on="1"/>
        <pt x="159" y="-168" on="0"/>
        <pt x="159" y="-106" on="0"/>
        <pt x="209" y="-13" on="0"/>
        <pt x="232" y="4" on="1"/>
        <pt x="186" y="7" on="0"/>
        <pt x="169" y="7" on="0"/>
        <pt x="8" y="-2" on="1"/>
        <pt x="17" y="14" on="1"/>
        <pt x="29" y="13" on="1"/>
        <pt x="57" y="13" on="0"/>
        <pt x="107" y="35" on="0"/>
        <pt x="115" y="53" on="1"/>
        <pt x="124" y="72" on="0"/>
        <pt x="182" y="340" on="1"/>
        <pt x="205" y="440" on="0"/>
        <pt x="205" y="505" on="0"/>
        <pt x="182" y="520" on="0"/>
        <pt x="153" y="520" on="0"/>
        <pt x="141" y="519" on="0"/>
        <pt x="137" y="519" on="1"/>
        <pt x="147" y="535" on="1"/>
        <pt x="185" y="528" on="0"/>
        <pt x="254" y="528" on="1"/>
        <pt x="482" y="530" on="1"/>
        <pt x="488" y="530" on="0"/>
        <pt x="488" y="521" on="1"/>
        <pt x="447" y="419" on="1"/>
        <pt x="431" y="422" on="1"/>
        <pt x="453" y="464" on="0"/>
        <pt x="453" y="472" on="1"/>
        <pt x="453" y="488" on="0"/>
        <pt x="409" y="501" on="0"/>
        <pt x="326" y="501" on="0"/>
        <pt x="287" y="498" on="1"/>
        <pt x="265" y="451" on="0"/>
        <pt x="231" y="290" on="1"/>
        <pt x="401" y="292" on="1"/>
        <pt x="407" y="292" on="0"/>
        <pt x="407" y="284" on="0"/>
        <pt x="403" y="274" on="1"/>
        <pt x="391" y="245" on="0"/>
        <pt x="385" y="215" on="1"/>
        <pt x="368" y="211" on="1"/>
        <pt x="377" y="229" on="0"/>
        <pt x="377" y="237" on="1"/>
        <pt x="377" y="271" on="0"/>
        <pt x="264" y="266" on="1"/>
        <pt x="251" y="266" on="0"/>
        <pt x="248" y="266" on="1"/>
        <pt x="226" y="266" on="1"/>
        <pt x="190" y="95" on="0"/>
        <pt x="190" y="50" on="1"/>
        <pt x="190" y="41" on="0"/>
        <pt x="196" y="36" on="1"/>
        <pt x="209" y="22" on="0"/>
        <pt x="367" y="22" on="0"/>
        <pt x="439" y="67" on="0"/>
        <pt x="460" y="114" on="1"/>
        <pt x="469" y="110" on="1"/>
        <pt x="461" y="97" on="0"/>
        <pt x="433" y="28" on="0"/>
        <pt x="405" y="-6" on="0"/>
      </contour>
    </TTGlyph>
    <TTGlyph name="E.sm" xMin="1" yMin="-4" xMax="341" yMax="376">
      <contour>
        <pt x="257" y="165" on="1"/>
        <pt x="257" y="186" on="0"/>
        <pt x="160" y="183" on="1"/>
        <pt x="138" y="73" on="0"/>
        <pt x="136" y="31" on="0"/>
        <pt x="141" y="28" on="1"/>
        <pt x="142" y="29" on="1"/>
        <pt x="151" y="22" on="0"/>
        <pt x="255" y="22" on="0"/>
        <pt x="300" y="50" on="0"/>
        <pt x="317" y="87" on="1"/>
        <pt x="326" y="83" on="1"/>
        <pt x="327" y="78" on="1"/>
        <pt x="323" y="72" on="0"/>
        <pt x="304" y="22" on="0"/>
        <pt x="283" y="-4" on="0"/>
        <pt x="266" y="-4" on="1"/>
        <pt x="259" y="-4" on="1"/>
        <pt x="136" y="5" on="0"/>
        <pt x="121" y="5" on="1"/>
        <pt x="62" y="3" on="1"/>
        <pt x="1" y="-2" on="1"/>
        <pt x="12" y="17" on="1"/>
        <pt x="18" y="17" on="1"/>
        <pt x="22" y="16" on="0"/>
        <pt x="44" y="16" on="0"/>
        <pt x="63" y="20" on="0"/>
        <pt x="83" y="53" on="0"/>
        <pt x="95" y="100" on="0"/>
        <pt x="134" y="280" on="0"/>
        <pt x="138" y="300" on="0"/>
        <pt x="138" y="348" on="0"/>
        <pt x="125" y="357" on="0"/>
        <pt x="104" y="357" on="0"/>
        <pt x="93" y="356" on="0"/>
        <pt x="90" y="356" on="1"/>
        <pt x="101" y="376" on="1"/>
        <pt x="129" y="370" on="0"/>
        <pt x="177" y="370" on="1"/>
        <pt x="335" y="372" on="1"/>
        <pt x="341" y="372" on="0"/>
        <pt x="341" y="365" on="1"/>
        <pt x="341" y="359" on="0"/>
        <pt x="325" y="323" on="1"/>
        <pt x="312" y="288" on="1"/>
        <pt x="293" y="291" on="1"/>
        <pt x="310" y="323" on="0"/>
        <pt x="310" y="328" on="1"/>
        <pt x="310" y="338" on="0"/>
        <pt x="282" y="344" on="0"/>
        <pt x="243" y="344" on="1"/>
        <pt x="243" y="344" on="0"/>
        <pt x="201" y="343" on="1"/>
        <pt x="185" y="299" on="0"/>
        <pt x="165" y="206" on="1"/>
        <pt x="278" y="208" on="1"/>
        <pt x="286" y="208" on="0"/>
        <pt x="286" y="195" on="0"/>
        <pt x="272" y="162" on="0"/>
        <pt x="270" y="148" on="1"/>
        <pt x="250" y="144" on="1"/>
        <pt x="257" y="162" on="1"/>
      </contour>
    </TTGlyph>
</ttFont>
